<svg viewBox="0 0 1422 800" width="100%" height="100%"><g shape-rendering="crispEdges" stroke-linejoin="round" fill="none" stroke-width="1" stroke="hsl(167, 72%, 60%)"><polygon points="1422,0 1244.25,0 1244.25,100" class="about-1"></polygon><polygon points="1066.5,100 1244.25,0 1244.25,100" class="about-2"></polygon><polygon points="1066.5,200 1244.25,100 1244.25,200" class="about-3"></polygon><polygon points="1422,100 1244.25,200 1244.25,100" class="about-4"></polygon><polygon points="1066.5,100 888.75,100 888.75,0" class="about-5"></polygon><polygon points="711,100 888.75,0 888.75,100" class="about-6"></polygon><polygon points="888.75,150 888.75,100 799.875,150" class="about-7"></polygon><polygon points="711,150 711,100 799.875,100" class="about-8"></polygon><polygon points="799.875,200 711,200 799.875,150" class="about-9"></polygon><polygon points="888.75,200 799.875,200 799.875,150" class="about-10"></polygon><polygon points="1066.5,150 977.625,100 1066.5,100" class="about-11"></polygon><polygon points="888.75,100 977.625,150 977.625,100" class="about-12"></polygon><polygon points="977.625,200 888.75,150 888.75,200" class="about-13"></polygon><polygon points="1066.5,200 1066.5,150 977.625,150" class="about-14"></polygon><polygon points="1066.5,200 1066.5,250 977.625,250" class="about-15"></polygon><polygon points="888.75,200 977.625,200 888.75,250" class="about-16"></polygon><polygon points="888.75,300 977.625,250 977.625,300" class="about-17"></polygon><polygon points="1066.5,250 1066.5,300 977.625,250" class="about-18"></polygon><polygon points="888.75,200 888.75,250 799.875,200" class="about-19"></polygon><polygon points="711,200 799.875,200 799.875,250" class="about-20"></polygon><polygon points="799.875,250 799.875,300 711,300" class="about-21"></polygon><polygon points="888.75,300 799.875,250 888.75,250" class="about-22"></polygon><polygon points="888.75,350 888.75,300 799.875,350" class="about-23"></polygon><polygon points="799.875,350 799.875,300 711,350" class="about-24"></polygon><polygon points="799.875,400 711,350 711,400" class="about-25"></polygon><polygon points="888.75,350 799.875,350 888.75,400" class="about-26"></polygon><polygon points="977.625,300 1066.5,350 1066.5,300" class="about-27"></polygon><polygon points="933.1875,300 977.625,325 977.625,300" class="about-28"></polygon><polygon points="933.1875,325 888.75,325 888.75,300" class="about-29"></polygon><polygon points="933.1875,325 888.75,350 888.75,325" class="about-30"></polygon><polygon points="977.625,350 977.625,325 933.1875,325" class="about-31"></polygon><polygon points="977.625,350 977.625,400 888.75,400" class="about-32"></polygon><polygon points="1066.5,400 977.625,350 977.625,400" class="about-33"></polygon><polygon points="1244.25,200 1422,300 1244.25,300" class="about-34"></polygon><polygon points="1155.375,250 1244.25,250 1244.25,200" class="about-35"></polygon><polygon points="1066.5,200 1155.375,200 1155.375,250" class="about-36"></polygon><polygon points="1155.375,300 1155.375,250 1066.5,300" class="about-37"></polygon><polygon points="1244.25,250 1155.375,250 1244.25,300" class="about-38"></polygon><polygon points="1244.25,350 1244.25,300 1155.375,350" class="about-39"></polygon><polygon points="1155.375,350 1066.5,300 1066.5,350" class="about-40"></polygon><polygon points="1155.375,350 1155.375,400 1066.5,400" class="about-41"></polygon><polygon points="1244.25,350 1155.375,400 1244.25,400" class="about-42"></polygon><polygon points="1244.25,400 1422,300 1422,400" class="about-43"></polygon><polygon points="533.25,0 711,100 533.25,100" class="about-44"></polygon><polygon points="533.25,0 533.25,100 355.5,100" class="about-45"></polygon><polygon points="533.25,100 355.5,200 533.25,200" class="about-46"></polygon><polygon points="622.125,100 622.125,150 711,150" class="about-47"></polygon><polygon points="533.25,150 622.125,100 622.125,150" class="about-48"></polygon><polygon points="622.125,150 622.125,200 533.25,150" class="about-49"></polygon><polygon points="711,150 622.125,150 711,200" class="about-50"></polygon><polygon points="355.5,0 355.5,100 177.75,100" class="about-51"></polygon><polygon points="0,100 177.75,100 177.75,0" class="about-52"></polygon><polygon points="177.75,200 0,100 0,200" class="about-53"></polygon><polygon points="177.75,200 177.75,100 355.5,100" class="about-54"></polygon><polygon points="177.75,200 355.5,300 355.5,200" class="about-55"></polygon><polygon points="177.75,300 177.75,200 0,300" class="about-56"></polygon><polygon points="177.75,300 177.75,400 0,400" class="about-57"></polygon><polygon points="355.5,350 355.5,300 266.625,300" class="about-58"></polygon><polygon points="266.625,300 266.625,350 177.75,300" class="about-59"></polygon><polygon points="177.75,400 266.625,350 266.625,400" class="about-60"></polygon><polygon points="355.5,350 355.5,400 266.625,350" class="about-61"></polygon><polygon points="711,200 711,250 622.125,250" class="about-62"></polygon><polygon points="622.125,250 622.125,200 533.25,200" class="about-63"></polygon><polygon points="622.125,300 622.125,250 533.25,300" class="about-64"></polygon><polygon points="711,300 622.125,250 711,250" class="about-65"></polygon><polygon points="444.375,250 533.25,250 533.25,200" class="about-66"></polygon><polygon points="444.375,250 355.5,250 444.375,200" class="about-67"></polygon><polygon points="444.375,300 355.5,250 355.5,300" class="about-68"></polygon><polygon points="533.25,300 444.375,250 444.375,300" class="about-69"></polygon><polygon points="533.25,300 533.25,350 444.375,300" class="about-70"></polygon><polygon points="444.375,300 355.5,300 444.375,350" class="about-71"></polygon><polygon points="444.375,400 355.5,350 444.375,350" class="about-72"></polygon><polygon points="444.375,400 533.25,350 444.375,350" class="about-73"></polygon><polygon points="622.125,350 622.125,300 711,350" class="about-74"></polygon><polygon points="622.125,350 622.125,300 533.25,350" class="about-75"></polygon><polygon points="533.25,350 622.125,400 533.25,400" class="about-76"></polygon><polygon points="711,400 711,350 622.125,400" class="about-77"></polygon><polygon points="622.125,450 711,400 711,450" class="about-78"></polygon><polygon points="622.125,450 533.25,450 533.25,400" class="about-79"></polygon><polygon points="622.125,500 622.125,450 533.25,500" class="about-80"></polygon><polygon points="622.125,450 711,500 711,450" class="about-81"></polygon><polygon points="533.25,400 444.375,400 444.375,450" class="about-82"></polygon><polygon points="355.5,400 444.375,450 444.375,400" class="about-83"></polygon><polygon points="355.5,500 444.375,450 355.5,450" class="about-84"></polygon><polygon points="533.25,450 444.375,500 444.375,450" class="about-85"></polygon><polygon points="444.375,500 444.375,550 533.25,550" class="about-86"></polygon><polygon points="444.375,550 444.375,500 355.5,500" class="about-87"></polygon><polygon points="444.375,600 355.5,600 444.375,550" class="about-88"></polygon><polygon points="444.375,550 533.25,550 533.25,600" class="about-89"></polygon><polygon points="622.125,500 711,550 711,500" class="about-90"></polygon><polygon points="622.125,550 622.125,500 533.25,500" class="about-91"></polygon><polygon points="622.125,550 622.125,600 533.25,600" class="about-92"></polygon><polygon points="622.125,600 711,550 711,600" class="about-93"></polygon><polygon points="355.5,500 355.5,400 177.75,400" class="about-94"></polygon><polygon points="177.75,500 177.75,400 0,400" class="about-95"></polygon><polygon points="177.75,600 0,600 0,500" class="about-96"></polygon><polygon points="266.625,550 266.625,500 355.5,500" class="about-97"></polygon><polygon points="266.625,550 177.75,500 266.625,500" class="about-98"></polygon><polygon points="266.625,600 177.75,550 177.75,600" class="about-99"></polygon><polygon points="355.5,550 355.5,600 266.625,550" class="about-100"></polygon><polygon points="177.75,600 355.5,700 177.75,700" class="about-101"></polygon><polygon points="177.75,700 0,600 177.75,600" class="about-102"></polygon><polygon points="0,700 177.75,800 177.75,700" class="about-103"></polygon><polygon points="355.5,700 355.5,800 177.75,800" class="about-104"></polygon><polygon points="711,700 533.25,600 711,600" class="about-105"></polygon><polygon points="533.25,650 444.375,600 444.375,650" class="about-106"></polygon><polygon points="444.375,650 444.375,600 355.5,650" class="about-107"></polygon><polygon points="444.375,650 444.375,700 355.5,650" class="about-108"></polygon><polygon points="444.375,650 533.25,700 533.25,650" class="about-109"></polygon><polygon points="533.25,700 355.5,700 355.5,800" class="about-110"></polygon><polygon points="711,800 711,700 533.25,700" class="about-111"></polygon><polygon points="1422,500 1422,400 1244.25,500" class="about-112"></polygon><polygon points="1155.375,450 1244.25,450 1155.375,400" class="about-113"></polygon><polygon points="1066.5,400 1155.375,450 1066.5,450" class="about-114"></polygon><polygon points="1066.5,500 1155.375,450 1155.375,500" class="about-115"></polygon><polygon points="1244.25,500 1244.25,450 1155.375,450" class="about-116"></polygon><polygon points="1066.5,600 1244.25,500 1244.25,600" class="about-117"></polygon><polygon points="1422,600 1422,500 1244.25,600" class="about-118"></polygon><polygon points="888.75,400 1066.5,500 888.75,500" class="about-119"></polygon><polygon points="888.75,450 799.875,400 888.75,400" class="about-120"></polygon><polygon points="799.875,400 711,400 799.875,450" class="about-121"></polygon><polygon points="799.875,500 711,500 711,450" class="about-122"></polygon><polygon points="799.875,450 888.75,500 888.75,450" class="about-123"></polygon><polygon points="799.875,500 888.75,500 799.875,550" class="about-124"></polygon><polygon points="799.875,550 711,550 711,500" class="about-125"></polygon><polygon points="799.875,550 711,550 799.875,600" class="about-126"></polygon><polygon points="888.75,550 799.875,600 799.875,550" class="about-127"></polygon><polygon points="1066.5,500 1066.5,550 977.625,500" class="about-128"></polygon><polygon points="888.75,550 888.75,500 977.625,550" class="about-129"></polygon><polygon points="888.75,550 888.75,600 977.625,550" class="about-130"></polygon><polygon points="977.625,550 977.625,600 1066.5,550" class="about-131"></polygon><polygon points="1066.5,700 888.75,700 888.75,600" class="about-132"></polygon><polygon points="888.75,600 711,600 711,700" class="about-133"></polygon><polygon points="888.75,800 711,700 711,800" class="about-134"></polygon><polygon points="1066.5,800 1066.5,700 888.75,700" class="about-135"></polygon><polygon points="1422,600 1422,700 1244.25,700" class="about-136"></polygon><polygon points="1244.25,700 1066.5,700 1244.25,600" class="about-137"></polygon><polygon points="1066.5,700 1244.25,700 1244.25,800" class="about-138"></polygon><polygon points="1422,700 1422,800 1244.25,800" class="about-139"></polygon></g><g fill="hsl(220, 62%, 45%)" stroke-width="3" stroke="hsl(220, 43%, 13%)"></g></svg>