<svg viewBox="0 0 1422 800" width="100%" height="100%"><g shape-rendering="crispEdges" stroke-linejoin="round" fill="none" stroke-width="2" stroke="hsl(167, 72%, 60%)"><polygon points="1422,0 1244.25,100 1244.25,0" class="about-1"></polygon><polygon points="1244.25,0 1066.5,0 1066.5,100" class="about-2"></polygon><polygon points="1244.25,200 1066.5,200 1066.5,100" class="about-3"></polygon><polygon points="1422,200 1422,100 1244.25,100" class="about-4"></polygon><polygon points="888.75,100 1066.5,0 1066.5,100" class="about-5"></polygon><polygon points="888.75,0 888.75,100 711,100" class="about-6"></polygon><polygon points="888.75,150 799.875,100 888.75,100" class="about-7"></polygon><polygon points="711,100 799.875,100 799.875,150" class="about-8"></polygon><polygon points="799.875,200 799.875,150 711,200" class="about-9"></polygon><polygon points="888.75,150 799.875,150 888.75,200" class="about-10"></polygon><polygon points="1066.5,100 888.75,200 888.75,100" class="about-11"></polygon><polygon points="1066.5,200 1066.5,300 888.75,300" class="about-12"></polygon><polygon points="888.75,200 711,200 711,300" class="about-13"></polygon><polygon points="888.75,400 888.75,300 711,300" class="about-14"></polygon><polygon points="1066.5,300 1066.5,350 977.625,300" class="about-15"></polygon><polygon points="977.625,350 888.75,350 977.625,300" class="about-16"></polygon><polygon points="977.625,350 977.625,400 888.75,400" class="about-17"></polygon><polygon points="1066.5,350 977.625,350 1066.5,400" class="about-18"></polygon><polygon points="1422,300 1244.25,300 1422,200" class="about-19"></polygon><polygon points="1244.25,200 1066.5,200 1066.5,300" class="about-20"></polygon><polygon points="1244.25,300 1244.25,400 1066.5,400" class="about-21"></polygon><polygon points="1422,400 1422,300 1244.25,400" class="about-22"></polygon><polygon points="533.25,100 711,0 711,100" class="about-23"></polygon><polygon points="533.25,0 355.5,0 355.5,100" class="about-24"></polygon><polygon points="355.5,200 533.25,200 533.25,100" class="about-25"></polygon><polygon points="711,100 533.25,100 711,200" class="about-26"></polygon><polygon points="355.5,100 355.5,0 177.75,0" class="about-27"></polygon><polygon points="177.75,0 0,0 0,100" class="about-28"></polygon><polygon points="177.75,100 177.75,200 0,100" class="about-29"></polygon><polygon points="177.75,100 355.5,200 355.5,100" class="about-30"></polygon><polygon points="355.5,300 355.5,200 177.75,300" class="about-31"></polygon><polygon points="177.75,300 177.75,200 0,200" class="about-32"></polygon><polygon points="177.75,300 0,300 177.75,400" class="about-33"></polygon><polygon points="177.75,300 177.75,400 355.5,400" class="about-34"></polygon><polygon points="711,250 622.125,250 622.125,200" class="about-35"></polygon><polygon points="533.25,250 622.125,200 622.125,250" class="about-36"></polygon><polygon points="533.25,300 533.25,250 622.125,250" class="about-37"></polygon><polygon points="711,300 622.125,300 622.125,250" class="about-38"></polygon><polygon points="533.25,300 533.25,200 355.5,200" class="about-39"></polygon><polygon points="533.25,350 533.25,300 444.375,300" class="about-40"></polygon><polygon points="444.375,350 355.5,300 355.5,350" class="about-41"></polygon><polygon points="444.375,400 355.5,400 355.5,350" class="about-42"></polygon><polygon points="533.25,350 444.375,350 533.25,400" class="about-43"></polygon><polygon points="711,300 533.25,400 533.25,300" class="about-44"></polygon><polygon points="711,500 711,400 533.25,500" class="about-45"></polygon><polygon points="355.5,500 533.25,400 355.5,400" class="about-46"></polygon><polygon points="533.25,600 533.25,500 355.5,600" class="about-47"></polygon><polygon points="533.25,500 711,500 533.25,600" class="about-48"></polygon><polygon points="177.75,500 355.5,400 177.75,400" class="about-49"></polygon><polygon points="177.75,500 177.75,400 0,400" class="about-50"></polygon><polygon points="0,500 0,600 177.75,500" class="about-51"></polygon><polygon points="355.5,600 177.75,600 177.75,500" class="about-52"></polygon><polygon points="0,800 355.5,600 0,600" class="about-53"></polygon><polygon points="711,700 711,600 533.25,700" class="about-54"></polygon><polygon points="533.25,700 533.25,600 355.5,700" class="about-55"></polygon><polygon points="533.25,800 355.5,700 533.25,700" class="about-56"></polygon><polygon points="711,800 533.25,700 711,700" class="about-57"></polygon><polygon points="1244.25,500 1422,400 1422,500" class="about-58"></polygon><polygon points="1244.25,500 1244.25,400 1066.5,400" class="about-59"></polygon><polygon points="1244.25,500 1244.25,600 1066.5,500" class="about-60"></polygon><polygon points="1244.25,500 1244.25,600 1422,500" class="about-61"></polygon><polygon points="888.75,400 888.75,500 1066.5,400" class="about-62"></polygon><polygon points="799.875,450 799.875,400 888.75,400" class="about-63"></polygon><polygon points="799.875,450 711,450 711,400" class="about-64"></polygon><polygon points="711,450 799.875,500 711,500" class="about-65"></polygon><polygon points="799.875,450 888.75,500 799.875,500" class="about-66"></polygon><polygon points="799.875,500 888.75,550 799.875,550" class="about-67"></polygon><polygon points="799.875,500 711,500 799.875,550" class="about-68"></polygon><polygon points="711,550 799.875,600 799.875,550" class="about-69"></polygon><polygon points="799.875,550 888.75,600 888.75,550" class="about-70"></polygon><polygon points="888.75,500 1066.5,500 888.75,600" class="about-71"></polygon><polygon points="1066.5,700 888.75,600 888.75,700" class="about-72"></polygon><polygon points="711,600 888.75,700 888.75,600" class="about-73"></polygon><polygon points="888.75,800 711,700 711,800" class="about-74"></polygon><polygon points="1066.5,800 1066.5,700 888.75,800" class="about-75"></polygon><polygon points="1422,800 1066.5,800 1066.5,600" class="about-76"></polygon></g><g fill="hsl(220, 62%, 45%)" stroke-width="3" stroke="hsl(220, 43%, 13%)"></g></svg>