<svg viewBox="0 0 800 800" width="800" height="800"><defs><linearGradient x1="50%" y1="0%" x2="50%" y2="100%" id="ccchaos-grad"><stop stop-color="hsl(206, 75%, 49%)" stop-opacity="1" offset="0%"></stop><stop stop-color="hsl(331, 90%, 56%)" stop-opacity="1" offset="100%"></stop></linearGradient></defs><g stroke-width="2" stroke="url(#ccchaos-grad)" fill="none" stroke-linecap="round"><path d="M377.58 68.2Q385.96 76 394.62 83.82 403.57 91.56 412.82 99.1 422.39 106.33 432.28 113.13 442.48 119.44 452.98 125.18 463.79 130.32 474.87 134.83 486.23 138.73 497.82 142.06 509.62 144.89 521.61 147.3 533.74 149.41 545.98 151.34 558.29 153.23 570.63 155.23 582.95 157.48 595.2 160.1 607.35 163.23 619.35 166.97 631.15 171.38 642.71 176.53 653.98 182.42 664.94 189.04 675.55 196.35 685.77 204.25 695.58 212.66 704.95 221.43 713.88 230.41 722.34 239.44 719.15 249.85 714.37 260.26 708.22 270.68 701.01 281.09 693.08 291.51 684.8 301.92 676.59 312.34 668.82 322.75 661.88 333.16 656.1 343.58 651.75 353.99 649.05 364.41 648.12 374.82 649.01 385.24 651.68 395.65 655.99 406.06 661.75 416.48 668.67 426.89 676.42 437.31 684.63 447.72 692.91 458.14 700.85 468.55 708.09 478.97 714.26 489.38 719.07 499.79 722.29 510.21 723.78 520.62 723.44 531.04 721.31 541.45 717.48 551.87 712.14 562.28 705.55 572.7 692.74 571.46 679.84 570.09 666.89 568.87 653.96 568.08 641.08 567.99 628.31 568.82 615.7 570.79 603.28 574.04 591.1 578.67 579.19 584.72 567.57 592.17 556.28 600.93 545.34 610.87 534.75 621.78 524.54 633.44 514.71 645.57 505.25 657.86 496.17 670.02 487.45 681.74 479.08 692.72 471.03 702.71 463.3 711.49 455.85 718.88 448.65 724.77 434.97 731.23 421.75 733.43 408.94 730.34 396.17 725.67 384.96 713.01 373.92 700.95 363.08 689.78 352.45 679.73 342.06 671.02 331.9 663.78 321.98 658.09 312.32 653.94 302.9 651.28 293.72 649.99 276.17 651.09 259.24 654.21 243.18 657.76 227.5 659.76 212.24 656.79 197.08 649.84 189.5 643.89 181.88 636.57 174.21 627.98 166.46 618.29 158.62 607.69 150.68 596.44 142.62 584.81 134.44 573.08 126.12 561.52 117.68 550.42 118.92 540.29 119.92 530.15 120.64 520.01 121.04 509.87 121.11 499.73 120.83 489.59 120.22 479.46 119.31 469.32 118.15 459.18 116.79 449.04 115.3 438.9 113.74 428.76 112.19 418.63 110.73 408.49 109.43 398.35 108.35 388.21 107.54 378.07 107.04 367.94 106.87 357.8 107.04 347.66 107.55 337.52 108.37 327.38 109.46 317.25 110.76 307.11 112.22 296.97 113.77 286.83 115.33 276.7 116.82 266.56 118.18 256.42 119.33 246.28 125.33 230.33 139.94 223.17 149.37 221.8 158.69 220.26 167.88 218.37 176.94 216.02 185.84 213.09 194.59 209.49 203.17 205.18 211.57 200.14 219.8 194.36 227.85 187.91 235.74 180.84 243.46 173.27 251.03 165.29 258.46 157.04 265.77 148.67 272.97 140.31 280.1 132.11 287.16 124.18 294.2 116.64 301.22 109.59 308.28 103.09 315.38 97.19 329.95 87.49 344.93 79.46 369.24 70.86 377.58 68.2" stroke-dasharray="2 8" transform="rotate(0, 400, 400)" opacity="0.18" class="about-1"></path><path d="M377.87 80.85Q386.58 88.43 395.56 96.05 404.82 103.6 414.35 110.96 424.17 118.03 434.26 124.72 444.61 130.95 455.21 136.65 466.05 141.79 477.1 146.32 488.34 150.27 499.75 153.66 511.29 156.53 522.93 158.96 534.64 161.05 546.38 162.9 558.11 164.63 569.8 166.38 581.41 168.27 592.89 170.43 604.22 172.98 615.34 176.04 626.23 179.68 636.85 183.98 647.17 188.97 657.16 194.68 666.79 201.07 676.05 208.12 684.92 215.74 693.37 223.85 701.42 232.32 709.04 241.02 705.1 250.94 699.82 260.86 693.44 270.78 686.24 280.7 678.54 290.62 670.68 300.54 663.02 310.45 655.88 320.37 649.6 330.29 644.44 340.21 640.64 350.13 638.37 360.05 637.72 369.97 638.73 379.89 641.35 389.81 645.46 399.73 650.89 409.65 657.38 419.57 664.66 429.49 672.4 439.41 680.25 449.33 687.87 459.25 694.91 469.17 701.08 479.09 706.08 489.01 709.7 498.93 711.78 508.85 712.23 518.77 711.03 528.69 708.22 538.61 703.94 548.53 698.37 558.45 686.33 557.23 674.16 556.2 661.89 555.6 649.57 555.66 637.25 556.58 624.96 558.53 612.75 561.66 600.67 566.04 588.74 571.71 577 578.66 565.49 586.83 554.24 596.1 543.26 606.3 532.57 617.24 522.2 628.69 512.16 640.4 502.45 652.08 493.08 663.49 484.04 674.34 475.34 684.4 466.96 693.46 458.89 701.34 443.73 712.4 429.33 719.27 415.94 719.86 402.96 717.61 396.65 715.41 390.39 713.03 379.94 700.94 369.71 689.39 359.7 678.63 349.92 668.87 340.38 660.32 331.08 653.08 322.02 647.24 313.2 642.82 296.33 638.62 280.07 637.82 264.68 640.66 249.69 644.17 235.15 646.17 220.75 645.82 206.36 639.93 191.85 630.21 184.48 623.12 177.02 614.89 169.46 605.64 161.79 595.58 153.99 584.9 146.07 573.84 138.02 562.64 129.83 551.57 130.99 541.73 131.87 531.89 132.45 522.06 132.7 512.22 132.61 502.38 132.18 492.55 131.43 482.71 130.39 472.87 129.12 463.03 127.66 453.2 126.08 443.36 124.46 433.52 122.86 423.69 121.35 413.85 120 404.01 118.88 394.18 118.03 384.34 117.49 374.5 117.28 364.67 117.41 354.83 117.88 344.99 118.67 335.15 119.74 325.32 121.04 315.48 122.52 305.64 124.1 295.81 125.73 285.97 127.32 276.13 128.81 266.3 130.13 256.46 136.3 241.11 150.64 234.36 159.83 232.93 168.94 231.17 177.93 228.95 186.81 226.18 195.55 222.78 204.15 218.71 212.58 213.93 220.86 208.47 228.97 202.34 236.9 195.62 244.67 188.39 252.27 180.74 259.7 172.8 266.99 164.69 274.12 156.53 281.13 148.47 288.03 140.61 294.83 133.07 301.56 125.95 308.24 119.32 321.54 108.02 334.93 98.45 348.71 91.47 362.89 85.65 374.07 82.02 377.87 80.85" stroke-dasharray="0 10" transform="rotate(4.04, 400, 400)" opacity="0.64" class="about-2"></path><path d="M379.77 93.49Q388.75 100.86 397.97 108.27 407.43 115.61 417.14 122.78 427.08 129.7 437.23 136.26 447.59 142.41 458.14 148.06 468.85 153.18 479.71 157.74 490.68 161.74 501.74 165.19 512.87 168.13 524.02 170.61 535.18 172.71 546.3 174.53 557.35 176.16 568.3 177.72 579.11 179.33 589.76 181.11 600.2 183.18 610.42 185.63 620.38 188.57 630.06 192.08 639.43 196.2 648.48 200.99 657.18 206.44 665.52 212.56 673.5 219.29 681.1 226.59 689.49 243.14 685.02 261.36 678.54 270.79 671.46 280.23 664.08 289.66 656.69 299.09 649.6 308.52 643.1 317.96 637.46 327.39 632.9 336.82 629.62 346.25 627.74 355.69 627.35 365.12 628.46 374.55 631.02 383.99 634.93 393.42 640.04 402.85 646.12 412.28 652.94 421.72 660.21 431.15 667.63 440.58 674.91 450.01 681.73 459.45 687.84 468.88 692.96 478.31 696.9 487.74 699.49 497.18 700.63 506.61 700.27 516.04 698.43 525.47 695.17 534.91 690.64 544.34 679.41 543.52 668.01 543.14 656.47 543.4 644.83 544.47 633.13 546.49 621.41 549.58 609.71 553.81 598.06 559.22 586.5 565.8 575.07 573.48 563.78 582.18 552.68 591.75 541.79 602.04 531.13 612.84 520.72 623.94 510.59 635.11 500.73 646.1 491.16 656.69 481.89 666.66 472.92 675.8 464.25 683.95 455.88 690.97 440.11 700.65 425.13 706.55 411.27 706.83 397.97 704.63 391.58 702.59 385.31 700.39 375.73 688.86 366.38 677.82 357.26 667.48 348.37 658.03 339.71 649.65 331.28 642.45 323.07 636.51 315.06 631.86 299.73 626.87 284.9 625.15 270.73 627.23 256.85 630.32 243.23 632.79 229.64 633.55 215.92 629.79 202.02 622.66 194.92 617.04 187.72 610.29 180.42 602.49 172.99 593.76 165.44 584.27 157.76 574.18 149.96 563.71 142.03 553.07 143.06 543.53 143.79 534 144.21 524.46 144.29 514.93 144.04 505.4 143.45 495.86 142.56 486.33 141.39 476.79 140.01 467.26 138.47 457.73 136.82 448.19 135.14 438.66 133.49 429.12 131.95 419.59 130.57 410.06 129.41 400.52 128.53 390.99 127.95 381.45 127.69 371.92 127.78 362.39 128.21 352.85 128.95 343.32 129.98 333.78 131.26 324.25 132.73 314.71 134.34 305.18 136.01 295.65 137.69 286.11 139.29 276.58 140.76 267.04 147.07 252.17 161.13 245.49 170.08 243.81 178.97 241.69 187.76 239.03 196.45 235.77 205.02 231.87 213.47 227.31 221.77 222.1 229.92 216.25 237.92 209.84 245.75 202.92 253.42 195.59 260.93 187.94 268.26 180.11 275.44 172.19 282.46 164.3 289.34 156.57 296.08 149.1 302.69 141.98 315.59 129.36 328.28 118.31 340.84 109.97 353.46 103.1 373.1 95.75 379.77 93.49" stroke-dasharray="10 0" transform="rotate(8.08, 400, 400)" opacity="0.22" class="about-3"></path><path d="M383.14 106.14Q392.28 113.29 401.63 120.48 411.18 127.61 420.91 134.59 430.83 141.33 440.9 147.76 451.11 153.81 461.44 159.41 471.87 164.51 482.38 169.09 492.94 173.14 503.52 176.65 514.1 179.67 524.64 182.22 535.13 184.38 545.53 186.2 555.81 187.79 565.95 189.24 575.92 190.65 585.69 192.13 595.23 193.79 604.53 195.74 613.57 198.06 622.32 200.85 630.77 204.16 638.91 208.07 646.73 212.59 654.21 217.75 661.36 223.52 668.18 229.9 675.27 244.98 670.05 262.11 663.58 271.07 656.72 280.03 649.72 288.99 642.84 297.94 636.35 306.9 630.48 315.86 625.46 324.82 621.47 333.78 618.67 342.74 617.16 351.7 616.99 360.65 618.19 369.61 620.69 378.57 624.4 387.53 629.19 396.49 634.88 405.45 641.25 414.4 648.06 423.36 655.05 432.32 661.97 441.28 668.55 450.24 674.54 459.2 679.73 468.15 683.91 477.11 686.92 486.07 688.67 495.03 689.06 503.99 688.11 512.94 678.87 526.32 661.31 531.24 650.54 532.51 639.63 534.67 628.62 537.81 617.54 541.99 606.43 547.23 595.31 553.52 584.22 560.82 573.19 569.04 562.25 578.07 551.43 587.77 540.75 597.96 530.24 608.47 519.92 619.08 509.81 629.61 499.92 639.84 490.27 649.58 480.87 658.65 471.73 666.89 462.85 674.16 454.24 680.36 437.93 688.77 422.38 693.76 408.01 693.79 394.25 691.64 387.69 689.76 381.29 687.73 372.63 676.77 364.2 666.23 355.98 656.31 347.99 647.19 340.2 639 332.61 631.87 318.06 621.61 304 614.81 290.58 613.13 277.43 613.78 264.56 616.54 251.74 619.38 238.82 620.37 225.75 619.23 212.28 613.39 198.52 604.38 191.44 598.04 184.24 590.74 176.92 582.59 169.47 573.7 161.9 564.24 154.21 554.38 155.08 545.16 155.64 535.94 155.88 526.72 155.78 517.49 155.35 508.27 154.61 499.05 153.58 489.83 152.3 480.6 150.82 471.38 149.2 462.16 147.49 452.94 145.77 443.71 144.09 434.49 142.52 425.27 141.12 416.05 139.94 406.82 139.02 397.6 138.4 388.38 138.11 379.16 138.15 369.93 138.52 360.71 139.21 351.49 140.19 342.27 141.43 333.04 142.88 323.82 144.48 314.6 146.18 305.37 147.9 296.15 149.6 286.93 151.19 277.71 157.62 263.22 171.37 256.32 180.08 254.24 188.73 251.64 197.31 248.47 205.81 244.7 214.21 240.29 222.49 235.27 230.66 229.66 238.69 223.51 246.58 216.87 254.32 209.83 261.9 202.48 269.33 194.92 276.59 187.26 283.69 179.59 290.64 172.03 297.43 164.68 304.07 157.62 310.57 150.94 323.15 139.19 335.41 128.96 347.34 121.29 359.17 114.97 377.1 108.22 383.14 106.14" stroke-dasharray="9 4" transform="rotate(12.12, 400, 400)" opacity="0.64" class="about-4"></path><path d="M387.73 118.78Q406.24 132.66 425.34 146.35 444.89 159.21 464.77 170.67 484.79 180.34 504.78 188.02 524.55 193.77 543.89 197.87 562.63 200.86 580.6 203.42 597.64 206.3 613.64 210.26 628.51 215.94 642.2 223.78 654.7 233.97 666.08 246.41 654.96 263.42 642.07 280.42 629.17 297.43 618.03 314.43 610.15 331.44 606.62 348.44 607.92 365.45 613.87 382.45 623.66 399.46 635.95 416.46 649.07 433.47 661.22 450.47 670.75 467.47 676.35 484.48 677.26 501.48 673.36 518.49 653.99 520.8 633.87 526.4 613.22 535.75 592.25 548.85 571.2 565.23 550.28 584.03 529.69 604.03 509.61 623.86 490.21 642.15 471.59 657.67 453.85 669.53 437.03 677.27 421.14 680.94 406.15 681.07 392.01 678.68 378.63 675.09 363.37 654.64 348.9 636.36 335.13 621.36 321.95 610.36 309.26 603.54 296.92 600.6 284.78 600.76 272.72 602.87 260.59 605.59 248.29 607.49 235.7 607.32 222.74 604.06 209.35 597.12 195.5 586.35 181.17 572.08 166.37 555.06 167.41 537.26 167.17 519.47 165.67 501.67 163.12 483.87 159.88 466.08 156.37 448.28 153.08 430.48 150.47 412.69 148.88 394.89 148.53 377.09 149.47 359.3 151.58 341.5 154.56 323.7 158.01 305.9 161.45 288.11 164.42 270.31 181.38 266.57 198.23 260.86 214.87 252.85 231.19 242.55 247.1 230.23 262.51 216.39 277.37 201.7 291.62 186.92 305.25 172.8 318.28 159.95 330.73 148.83 342.69 139.67 354.24 132.43 365.5 126.86 382.17 120.64 387.73 118.78" stroke-dasharray="10 5" transform="rotate(16.16, 400, 400)" opacity="0.34" class="about-5"></path><path d="M393.21 131.42Q411.44 144.83 430.03 158.08 448.87 170.59 467.79 181.86 486.65 191.49 505.29 199.28 523.53 205.21 541.24 209.5 558.26 212.55 574.47 214.92 589.76 217.27 604.06 220.3 617.32 224.62 629.55 230.75 640.75 239 651 249.44 639.82 265.58 627.54 281.71 615.68 297.85 605.74 313.98 598.94 330.11 596.13 346.25 597.66 362.38 603.34 378.51 612.46 394.65 623.89 410.78 636.21 426.91 647.87 443.05 657.44 459.18 663.71 475.31 665.91 491.45 663.76 507.58 646.02 511.99 627.48 519.68 608.33 530.78 588.74 545.06 568.91 561.9 549.02 580.39 529.25 599.43 509.77 617.8 490.75 634.36 472.3 648.15 454.54 658.49 437.53 665.09 421.32 668.08 405.94 668 391.35 665.73 377.52 662.45 364.01 643.04 351.14 625.54 338.82 610.91 326.93 599.82 315.35 592.49 303.96 588.76 292.63 588.03 281.24 589.42 269.69 591.8 257.87 593.96 245.72 594.74 233.16 593.17 220.16 588.52 206.7 580.47 192.79 569.03 178.45 554.63 179.07 537.52 178.43 520.41 176.62 503.29 173.86 486.18 170.49 469.06 166.93 451.95 163.63 434.84 161 417.72 159.36 400.61 158.92 383.5 159.73 366.38 161.69 349.27 164.56 332.15 167.99 315.04 171.53 297.92 174.76 280.81 191.12 276.04 207.42 269.21 223.59 260.2 239.51 249.16 255.1 236.46 270.27 222.63 284.96 208.32 299.1 194.22 312.66 180.95 325.63 169.03 338.01 158.81 349.85 150.44 361.19 143.85 372.13 138.78 387.99 133.12 393.21 131.42" stroke-dasharray="11 5" transform="rotate(20.200000000000003, 400, 400)" opacity="0.70" class="about-6"></path><path d="M399.18 144.06Q416.82 156.99 434.62 169.78 452.45 181.92 470.19 192.97 487.69 202.54 504.82 210.41 521.46 216.54 537.48 221.05 552.79 224.24 567.28 226.57 580.91 228.58 593.64 230.89 605.44 234.09 616.35 238.7 626.41 245.11 635.7 253.53 624.69 268.84 613.16 284.15 602.4 299.45 593.62 314.76 587.83 330.06 585.68 345.37 587.4 360.67 592.81 375.98 601.29 391.28 611.88 406.59 623.4 421.89 634.52 437.2 644.01 452.5 650.78 467.8 654.07 483.11 653.51 498.41 637.36 504.91 620.41 514.45 602.8 526.94 584.66 541.97 566.17 558.86 547.46 576.73 528.71 594.57 510.06 611.37 491.65 626.19 473.62 638.3 456.08 647.22 439.12 652.79 422.8 655.18 407.17 654.92 392.26 652.8 378.05 649.81 366.12 631.44 354.68 614.72 343.61 600.52 332.8 589.41 322.15 581.67 311.54 577.21 300.86 575.62 290.02 576.22 278.93 578.1 267.52 580.25 255.74 581.64 243.53 581.36 230.89 578.65 217.81 573.05 204.31 564.36 190.41 552.74 190.58 536.35 189.56 519.95 187.45 503.56 184.5 487.17 181.04 470.78 177.46 454.39 174.17 438 171.53 421.61 169.85 405.21 169.31 388.82 169.98 372.43 171.78 356.04 174.51 339.65 177.86 323.25 181.45 306.86 184.87 290.47 200.59 284.55 216.31 276.61 231.95 266.72 247.43 255.12 262.65 242.25 277.54 228.62 292.03 214.85 306.04 201.53 319.53 189.17 332.47 178.2 344.84 168.88 356.66 161.28 367.94 155.32 378.74 150.74 394.15 145.6 399.18 144.06" stroke-dasharray="7 8" transform="rotate(24.24, 400, 400)" opacity="0.29" class="about-7"></path><path d="M405.22 156.71Q421.98 169.12 438.72 181.44 455.33 193.2 471.69 203.99 487.69 213.47 503.24 221.41 518.23 227.72 532.57 232.48 546.21 235.88 559.09 238.29 571.17 240.14 582.46 241.96 592.96 244.28 602.71 247.61 611.78 252.37 620.24 258.86 609.64 273.38 598.97 287.89 589.32 302.41 581.68 316.93 576.83 331.45 575.26 345.97 577.14 360.48 582.28 375 590.14 389.52 599.92 404.04 610.63 418.55 621.18 433.07 630.48 447.59 637.58 462.11 641.77 476.62 642.61 491.14 628 499.53 612.61 510.6 596.54 524.06 579.91 539.41 562.83 555.97 545.44 572.91 527.85 589.37 510.21 604.53 492.65 617.64 475.28 628.15 458.21 635.75 441.53 640.38 425.34 642.26 409.69 641.85 394.62 639.87 380.16 637.17 369.61 619.82 359.37 603.91 349.33 590.17 339.41 579.13 329.49 571.06 319.5 565.96 309.33 563.56 298.92 563.34 288.2 564.59 277.13 566.49 265.66 568.17 253.78 568.79 241.48 567.63 228.76 564.14 215.66 557.99 202.21 549.1 201.93 533.48 200.53 517.85 198.16 502.22 195.05 486.59 191.53 470.97 187.95 455.34 184.69 439.71 182.06 424.08 180.35 408.45 179.72 392.83 180.24 377.2 181.86 361.57 184.41 345.94 187.64 330.31 191.2 314.68 194.74 299.05 209.79 291.96 224.89 283.03 239.96 272.44 254.94 260.5 269.74 247.66 284.29 234.43 298.51 221.34 312.35 208.88 325.74 197.49 338.64 187.48 351.02 179.05 362.87 172.21 374.18 166.85 384.99 162.73 400.26 158.1 405.22 156.71" stroke-dasharray="8 4" transform="rotate(28.28, 400, 400)" opacity="0.42" class="about-8"></path><path d="M410.87 169.35Q426.51 181.25 441.98 193.07 457.19 204.42 472.06 214.92 486.49 224.27 500.42 232.25 513.78 238.74 526.5 243.75 538.57 247.42 549.95 250 560.63 251.85 570.64 253.4 579.99 255.1 588.75 257.41 596.97 260.77 604.74 265.51 594.72 279.28 584.99 293.04 576.46 306.81 569.91 320.58 565.93 334.34 564.89 348.11 566.89 361.88 571.74 375.65 579 389.41 588 403.18 597.92 416.95 607.85 430.72 616.87 444.49 624.16 458.25 629.05 472.02 631.09 485.79 617.94 495.77 604.06 507.94 589.52 521.92 574.4 537.17 558.78 553.04 542.78 568.81 526.49 583.77 510.02 597.24 493.48 608.69 476.98 617.7 460.61 624.1 444.48 627.89 428.66 629.31 413.22 628.8 398.23 626.96 383.72 624.52 374.29 608.2 365.01 593.1 355.78 579.87 346.54 568.97 337.18 560.67 327.65 555.02 317.87 551.86 307.79 550.82 297.38 551.36 286.58 552.83 275.4 554.51 263.82 555.67 251.85 555.63 239.51 553.85 226.82 549.91 213.83 543.59 213.09 528.76 211.35 513.94 208.74 499.11 205.51 484.29 201.96 469.46 198.41 454.63 195.19 439.81 192.59 424.98 190.86 410.16 190.14 395.33 190.51 380.51 191.94 365.68 194.28 350.86 197.33 336.03 200.81 321.21 204.4 306.39 218.73 298.22 233.16 288.47 247.61 277.4 262.03 265.36 276.34 252.78 290.48 240.12 304.38 227.83 317.97 216.32 331.21 205.93 344.03 196.89 356.4 189.32 368.28 183.2 379.67 178.42 390.55 174.74 405.91 170.6 410.87 169.35" stroke-dasharray="4 0" transform="rotate(32.32, 400, 400)" opacity="0.35" class="about-9"></path><path d="M415.74 182Q430.06 193.37 444.12 204.68 457.83 215.59 471.15 225.78 484 234.96 496.33 242.93 508.12 249.56 519.33 254.82 529.94 258.79 539.96 261.63 549.4 263.62 558.28 265.08 574.36 268.33 589.26 273.5 579.98 286.55 571.26 299.6 563.84 312.64 558.31 325.69 555.12 338.74 554.55 351.79 556.64 364.83 561.21 377.88 567.89 390.93 576.14 403.98 585.27 417.03 594.55 430.08 603.21 443.12 610.54 456.17 615.94 469.22 618.97 482.27 607.2 493.42 594.76 506.22 581.7 520.26 568.07 535.02 553.93 549.9 539.37 564.31 524.45 577.68 509.27 589.48 493.91 599.32 478.46 606.95 463.01 612.25 447.64 615.3 432.44 616.33 417.47 615.74 402.79 614.05 388.46 611.87 379.89 596.55 371.34 582.28 362.71 569.6 353.96 558.91 345.01 550.47 335.81 544.38 326.32 540.54 316.5 538.7 306.33 538.49 295.79 539.38 284.87 540.81 273.59 542.17 261.96 542.87 250 542.37 237.74 540.24 225.21 536.16 224.05 522.18 221.99 508.19 219.19 494.2 215.87 480.21 212.33 466.23 208.83 452.24 205.68 438.25 203.12 424.27 201.38 410.28 200.58 396.29 200.8 382.3 202.01 368.32 204.13 354.33 206.97 340.34 210.3 326.36 213.85 312.37 227.44 303.31 241.15 293 254.93 281.72 268.72 269.83 282.47 257.71 296.12 245.78 309.61 234.4 322.89 223.89 335.88 214.52 348.55 206.44 360.85 199.71 372.74 194.3 384.18 190.07 395.17 186.8 410.71 183.11 415.74 182" stroke-dasharray="5 6" transform="rotate(36.36, 400, 400)" opacity="0.61" class="about-10"></path><path d="M419.46 194.64Q432.35 205.46 444.91 216.24 457.09 226.69 468.86 236.53 480.17 245.52 490.99 253.44 501.32 260.17 511.14 265.66 520.45 269.93 529.27 273.09 545.34 276.69 560.26 279.21 566.33 287.88 557.8 307.45 551.44 319.8 546.87 332.15 544.41 344.5 544.25 356.86 546.39 369.21 550.68 381.56 556.81 393.91 564.32 406.26 572.69 418.61 581.3 430.96 589.52 443.31 596.76 455.66 602.49 468.01 606.3 480.36 595.81 492.2 584.73 505.17 573.08 518.84 560.89 532.76 548.21 546.41 535.09 559.33 521.59 571.06 507.77 581.23 493.7 589.57 479.44 595.92 465.08 600.24 450.68 602.64 436.32 603.35 422.05 602.71 407.93 601.17 394.03 599.23 386.09 584.9 378.04 571.47 369.83 559.37 361.41 548.96 352.73 540.48 343.77 534.04 334.5 529.61 324.89 527.03 314.94 526.04 304.64 526.26 294 527.25 283.03 528.52 271.75 529.57 260.19 529.93 248.38 529.16 236.35 526.93 234.8 513.81 232.46 500.69 229.5 487.57 226.15 474.45 222.64 461.33 219.22 448.21 216.16 435.09 213.66 421.97 211.91 408.85 211.03 395.73 211.1 382.6 212.1 369.48 213.97 356.36 216.56 343.24 219.69 330.12 223.13 317 235.94 307.32 248.88 296.72 261.93 285.5 275.03 274 288.15 262.55 301.24 251.48 314.23 241.1 327.09 231.63 339.75 223.28 352.18 216.13 364.31 210.21 376.12 205.46 387.57 201.76 398.62 198.89 414.35 195.63 419.46 194.64" stroke-dasharray="2 7" transform="rotate(40.400000000000006, 400, 400)" opacity="0.93" class="about-11"></path><path d="M421.76 207.28Q433.17 217.54 444.23 227.77 454.91 237.74 465.19 247.2 475.05 255.94 484.48 263.76 493.48 270.56 502.06 276.24 517.83 283.83 532.53 288.64 548.57 297.82 544.62 316.44 539.29 328.1 535.6 339.77 533.79 351.43 533.98 363.1 536.14 374.76 540.15 386.43 545.74 398.1 552.56 409.76 560.18 421.43 568.1 433.09 575.83 444.76 582.86 456.43 588.75 468.09 593.13 479.76 583.82 491.79 574 504.45 563.67 517.38 552.86 530.17 541.59 542.42 529.89 553.76 517.81 563.86 505.38 572.48 492.66 579.42 479.7 584.61 466.56 588.06 453.29 589.91 439.94 590.35 426.59 589.69 413.27 588.3 400.04 586.59 392.5 573.25 384.77 560.65 376.82 549.17 368.62 539.11 360.14 530.68 351.35 523.99 342.26 519.07 332.84 515.82 323.1 514.08 313.05 513.58 302.7 513.99 292.06 514.93 281.17 516 270.04 516.8 258.71 516.95 247.21 516.11 245.31 503.88 242.75 491.64 239.69 479.41 236.33 467.17 232.89 454.94 229.58 442.71 226.62 430.47 224.19 418.24 222.45 406 221.51 393.77 221.43 381.53 222.21 369.3 223.81 357.07 226.13 344.83 229.01 332.6 232.27 320.37 244.25 310.36 256.39 299.79 268.65 288.91 281.01 278.02 293.43 267.41 305.86 257.32 318.27 247.99 330.61 239.59 342.83 232.24 354.9 225.99 366.76 220.85 378.39 216.73 389.73 213.51 400.76 211.01 416.6 208.15 421.76 207.28" stroke-dasharray="8 6" transform="rotate(44.44, 400, 400)" opacity="0.76" class="about-12"></path><path d="M422.49 219.93Q432.43 229.6 442.04 239.27 451.3 248.73 460.2 257.78 468.74 266.22 476.93 273.9 484.76 280.7 492.26 286.53 506.22 294.73 519.43 300.23 534.55 308.95 531.74 326.28 527.38 337.27 524.5 348.25 523.26 359.23 523.73 370.22 525.89 381.2 529.62 392.19 534.69 403.17 540.85 414.16 547.73 425.14 554.97 436.12 562.15 447.11 568.87 458.09 574.77 469.08 579.51 480.06 571.28 491.8 562.61 503.75 553.52 515.62 544 527.07 534.06 537.8 523.73 547.54 513.03 556.07 502 563.22 490.65 568.88 479.03 573.04 467.19 575.75 455.16 577.11 442.98 577.34 430.71 576.69 418.38 575.44 406.05 573.95 398.74 561.58 391.2 549.83 383.41 539 375.35 529.35 367 521.05 358.37 514.22 349.44 508.92 340.22 505.1 330.72 502.66 320.95 501.43 310.92 501.16 300.66 501.6 290.19 502.42 279.53 503.31 262.15 498.31 252.86 481.34 249.75 470 246.43 458.67 243.09 447.33 239.91 435.99 237.07 424.66 234.72 413.32 233 401.98 232 390.65 231.78 379.31 232.35 367.97 233.68 356.64 235.7 345.3 238.29 333.97 241.3 322.63 252.43 312.65 263.73 302.4 275.16 292.12 286.72 282.04 298.36 272.4 310.06 263.37 321.79 255.13 333.51 247.79 345.18 241.41 356.77 236.04 368.23 231.62 379.54 228.08 390.65 225.32 401.53 223.16 417.33 220.68 422.49 219.93" stroke-dasharray="4 3" transform="rotate(48.48, 400, 400)" opacity="0.36" class="about-13"></path><path d="M421.59 232.57Q430.15 241.65 438.41 250.73 446.37 259.66 454.04 268.25 461.42 276.36 468.52 283.84 481.83 296.05 494.48 305.69 506.31 311.15 517.86 314.57 523.67 320.9 519.17 336.67 515.7 346.97 513.55 357.26 512.81 367.56 513.52 377.86 515.64 388.15 519.08 398.45 523.67 408.75 529.19 419.04 535.37 429.34 541.91 439.64 548.51 449.94 554.84 460.23 560.6 470.53 565.52 480.83 558.26 491.84 550.64 502.75 542.67 513.32 534.34 523.29 525.65 532.45 516.61 540.63 507.23 547.66 497.54 553.47 487.55 557.99 477.29 561.25 466.78 563.3 456.05 564.28 445.14 564.34 434.07 563.7 422.88 562.6 411.61 561.31 404.42 549.9 396.99 539 389.3 528.86 381.35 519.66 373.14 511.58 364.66 504.73 355.92 499.16 346.93 494.87 337.71 491.81 328.26 489.88 318.61 488.92 308.78 488.73 298.78 489.1 288.64 489.78 272 485.55 262.8 470.16 259.69 459.72 256.45 449.29 253.24 438.85 250.21 428.41 247.5 417.97 245.25 407.53 243.56 397.1 242.52 386.66 242.17 376.22 242.53 365.79 243.59 355.35 245.29 344.91 247.55 334.47 250.27 324.04 260.52 314.41 270.94 304.76 281.51 295.3 292.21 286.2 303.02 277.62 313.92 269.71 324.88 262.56 335.88 256.26 346.89 250.82 357.88 246.26 368.81 242.52 379.66 239.53 390.39 237.19 400.97 235.35 416.49 233.21 421.59 232.57" stroke-dasharray="3 9" transform="rotate(52.52, 400, 400)" opacity="0.95" class="about-14"></path><path d="M419.12 245.21Q426.42 253.68 433.48 262.17 440.31 270.53 446.91 278.64 453.29 286.37 459.47 293.58 471.22 305.76 482.56 315.74 501.55 324.62 515.14 328.05 510.59 337.65 506.91 347.24 504.27 356.84 502.75 366.43 502.43 376.03 503.33 385.63 505.4 395.22 508.55 404.82 512.67 414.41 517.58 424.01 523.08 433.61 528.94 443.2 534.93 452.8 540.8 462.39 546.3 471.99 551.23 481.58 544.83 491.53 538.16 501.15 531.2 510.26 523.95 518.69 516.4 526.3 508.56 532.98 500.42 538.64 492.01 543.23 483.32 546.75 474.37 549.23 465.19 550.74 455.78 551.4 446.16 551.34 436.37 550.73 426.42 549.77 416.33 548.66 409.21 538.21 401.86 528.17 394.27 518.73 386.44 510.05 378.39 502.27 370.11 495.49 361.61 489.77 352.91 485.13 344.03 481.56 334.97 478.99 325.75 477.35 316.39 476.49 306.92 476.27 297.35 476.51 281.57 472.55 272.57 458.53 269.51 448.99 266.39 439.44 263.34 429.9 260.48 420.35 257.93 410.81 255.78 401.26 254.14 391.72 253.06 382.17 252.6 372.63 252.76 363.08 253.55 353.54 254.93 343.99 256.84 334.45 259.21 324.9 268.58 315.93 278.09 307.13 287.76 298.66 297.57 290.65 307.49 283.21 317.53 276.42 327.65 270.35 337.84 265.04 348.09 260.49 358.35 256.68 368.62 253.57 378.87 251.08 389.07 249.12 399.19 247.57 414.17 245.76 419.12 245.21" stroke-dasharray="8 8" transform="rotate(56.56, 400, 400)" opacity="0.23" class="about-15"></path><path d="M415.25 257.86Q427.49 273.57 439.05 288.95 450.03 303.13 460.55 315.42 470.77 325.29 480.86 332.53 491.01 337.25 501.42 339.87 494.98 357.62 492.1 375.37 493.16 393.12 498.02 410.87 506.02 428.62 516.06 446.37 526.77 464.11 536.7 481.86 525.25 498.66 512.91 513.16 499.64 524.58 485.41 532.53 470.25 537.01 454.21 538.48 437.38 537.77 419.87 536.01 405.57 517.31 390.47 500.49 374.63 486.48 358.11 475.87 341.03 468.81 323.5 465.01 305.66 463.81 287.64 464.22 282.17 446.89 276.26 429.56 270.73 412.23 266.32 394.9 263.63 377.57 263.05 360.24 264.64 342.91 268.19 325.58 285.25 309.75 302.87 295.54 320.99 283.56 339.53 274.15 358.36 267.31 377.36 262.73 396.38 259.83 415.25 257.86 415.25 257.86 415.25 257.86" stroke-dasharray="5 1" transform="rotate(60.599999999999994, 400, 400)" opacity="0.23" class="about-16"></path><path d="M410.29 270.5Q420.75 284.94 430.78 299.15 440.46 312.48 449.93 324.34 459.29 334.29 468.69 342.07 478.26 347.63 488.17 351.16 483.37 367.42 481.59 383.68 483.01 399.95 487.49 416.21 494.51 432.47 503.28 448.73 512.81 465 522.02 481.26 512 495.1 501.34 506.64 489.96 515.46 477.83 521.41 464.94 524.63 451.3 525.55 436.96 524.84 421.97 523.37 407.98 506.46 393.36 490.99 378.18 477.7 362.52 467.09 346.46 459.36 330.12 454.44 313.6 451.96 297 451.32 291.63 435.71 286.06 420.1 280.94 404.49 276.85 388.88 274.23 373.27 273.4 357.65 274.44 342.04 277.24 326.43 292.48 312.84 308.22 300.98 324.45 291.19 341.1 283.61 358.1 278.13 375.37 274.47 392.8 272.12 410.29 270.5 410.29 270.5 410.29 270.5" stroke-dasharray="2 1" transform="rotate(64.64, 400, 400)" opacity="0.64" class="about-17"></path><path d="M404.57 283.14Q413.59 296.27 422.39 309.27 431.03 321.63 439.62 332.92 448.26 342.74 457.03 350.85 466.05 357.12 475.42 361.58 472.08 376.31 471.21 391.04 472.88 405.76 476.96 420.49 483.05 435.22 490.61 449.95 498.93 464.68 507.27 479.41 498.53 490.3 489.33 499.1 479.62 505.63 469.36 509.89 458.51 512.09 447.07 512.6 435.05 511.94 422.46 510.73 409 495.58 395.08 481.53 380.77 469.12 366.15 458.75 351.29 450.63 336.28 444.82 321.18 441.16 306.09 439.32 300.95 425.38 295.81 411.44 291.14 397.5 287.38 383.57 284.86 369.63 283.83 355.69 284.36 341.76 286.43 327.82 299.85 316.63 313.71 307.09 328 299.35 342.7 293.42 357.77 289.17 373.15 286.31 396.67 283.8 404.57 283.14" stroke-dasharray="10 7" transform="rotate(68.68, 400, 400)" opacity="0.81" class="about-18"></path><path d="M398.53 295.79Q406.4 307.57 414.2 319.3 421.99 330.59 429.84 341.13 437.81 350.62 445.98 358.82 454.42 365.58 463.18 370.85 461.09 384 460.95 397.15 462.77 410.3 466.43 423.44 471.64 436.59 478.05 449.74 485.18 462.89 492.51 476.04 484.91 484.16 477.02 490.54 468.78 495.14 460.15 498.04 451.11 499.44 441.63 499.66 431.71 499.05 421.33 498.09 408.64 484.7 395.67 472.12 382.46 460.72 369.07 450.82 355.57 442.63 342.01 436.22 328.44 431.58 314.93 428.57 310.15 416.26 305.5 403.95 301.32 391.64 297.91 379.33 295.52 367.02 294.34 354.72 294.43 342.41 295.79 330.1 307.42 321.3 319.43 313.95 331.79 308.07 344.52 303.6 357.59 300.4 370.97 298.24 391.58 296.3 398.53 295.79" stroke-dasharray="2 9" transform="rotate(72.72, 400, 400)" opacity="0.94" class="about-19"></path><path d="M392.59 308.43Q399.53 318.85 406.5 329.25 413.55 339.38 420.72 349.01 428.06 357.93 435.6 365.94 443.39 372.92 451.46 378.76 450.39 390.28 450.8 401.81 452.67 413.34 455.89 424.87 460.29 436.4 465.62 447.93 471.42 468.06 464.53 481 450.24 485.36 435.13 486.71 427.05 486.19 418.65 485.44 407.02 473.8 395.23 462.72 383.33 452.47 371.36 443.27 359.36 435.29 347.37 428.63 335.43 423.32 323.57 419.33 319.25 408.61 315.14 397.88 311.47 387.16 308.44 376.44 306.22 365.72 304.93 355 304.65 344.28 305.39 333.56 315.28 327.02 325.46 321.63 335.94 317.37 346.71 314.16 357.78 311.85 369.12 310.27 386.66 308.82 392.59 308.43" stroke-dasharray="8 8" transform="rotate(76.76, 400, 400)" opacity="0.91" class="about-20"></path><path d="M387.18 321.07Q393.34 330.09 399.58 339.12 405.93 348 412.42 356.57 419.08 364.7 425.92 372.24 432.97 379.09 440.26 385.16 439.98 395.04 440.77 404.92 442.59 414.8 445.36 424.68 448.99 434.56 453.31 444.44 452.04 466.74 440.21 473.47 427.7 473.62 414.62 472.8 404.3 462.88 393.94 453.34 383.55 444.35 373.15 436.05 362.78 428.58 352.45 422.01 342.19 416.4 332.03 411.77 328.27 402.6 324.75 393.43 321.61 384.26 318.97 375.09 316.95 365.92 315.63 356.75 319.26 340.72 331.9 330.16 340.55 327.26 349.42 325.07 358.53 323.49 367.86 322.39 382.3 321.35 387.18 321.07" stroke-dasharray="7 4" transform="rotate(80.80000000000001, 400, 400)" opacity="0.66" class="about-21"></path><path d="M382.71 333.72Q393.64 348.91 405.03 363.83 416.96 377.75 429.54 390.03 430.82 406.46 434.83 422.88 441.12 439.3 448.98 455.72 439.52 459.35 429.87 460.86 419.9 460.87 409.52 460.15 392 443.97 374.57 429.13 357.32 416.3 340.37 405.93 334.33 390.64 329.51 375.35 326.43 360.06 325.45 344.77 338.81 339.54 352.79 336.33 375.06 334.17 382.71 333.72" stroke-dasharray="5 3" transform="rotate(84.84, 400, 400)" opacity="0.66" class="about-22"></path><path d="M379.49 346.36Q388.86 358.64 398.59 370.83 408.73 382.55 419.3 393.43 420.96 406.51 424.3 419.59 419.94 444.03 403.73 447.51 389.68 434.59 375.79 422.43 362.09 411.39 348.63 401.75 343.9 389.48 340.04 377.22 341.8 357.34 356.92 347.92 373.74 346.64 379.49 346.36" stroke-dasharray="10 10" transform="rotate(88.88, 400, 400)" opacity="0.56" class="about-23"></path><path d="M377.76 359.01Q385.33 368.3 393.14 377.59 401.18 386.73 409.48 395.54 411.18 405.27 413.77 415.02 409.9 432.55 397.67 434.87 387.25 425.21 376.97 415.92 366.84 407.16 356.89 399.06 353.45 389.81 350.57 380.56 369.14 360.83 377.76 359.01" stroke-dasharray="0 3" transform="rotate(92.92, 400, 400)" opacity="0.56" class="about-24"></path><path d="M377.65 371.65Q388.63 384.16 400.06 396.59 389.9 412.76 365.19 397.6 371.04 375.11 377.65 371.65" stroke-dasharray="7 8" transform="rotate(96.96, 400, 400)" opacity="0.08" class="about-25"></path></g></svg>