<svg viewBox="0 0 800 800" width="800" height="800"><defs><linearGradient x1="50%" y1="0%" x2="50%" y2="100%" id="uundulate-grad"><stop stop-color="hsl(206, 75%, 49%)" stop-opacity="1" offset="45%"></stop><stop stop-color="hsl(331, 90%, 56%)" stop-opacity="1" offset="100%"></stop></linearGradient></defs><g stroke-width="2" stroke="url(#uundulate-grad)" fill="none"><path d="M661.7995964465649 187.44612778065442C684.987002147225 256.1459224740008 677.1250846794079 338.27635712862866 642.1631775246885 442.67451043364235C607.2012703699693 547.0726637386559 551.7039405448251 690.7744370925333 493.98244210391215 688.5572636447197C436.26094366299935 686.3400901969061 441.95339263114533 518.2892671393284 365.09998500830727 432.03207788413727C288.2465773854692 345.7748886289461 120.655006329012 332.1166158094155 125.08608551428989 274.52275521980243C129.51716469956784 216.92889463018935 301.83217662946777 189.2497260777912 386.3691650976409 155.58154705399477C470.90615356581395 121.91336803019834 473.48229029716185 106.27704158752596 530.8636301615211 112.91549590557997C588.2449700258803 119.55395022363393 638.612190745905 118.74633308730802 661.7995964465649 187.44612778065442C684.987002147225 256.1459224740008 677.1250846794079 338.27635712862866 642.1631775246885 442.67451043364235 " class="about-1"></path><path d="M649.8996120155776 197.10769933172907C672.033044729844 262.6847760844688 664.5284871469278 341.08200916388637 631.1557575901502 440.7347918641266C597.7830280333726 540.3875745643668 544.8083041093714 677.5574491294316 489.71051014304544 675.4410562928822C434.61271617671946 673.3246634563329 440.0464174644951 512.9125141740998 366.6863465517862 430.57610624868994C293.32627563907715 348.2396983232802 133.35250326700435 335.2022560864556 137.58216976204238 280.2262982509159C141.81183625708036 225.25034041537606 306.29434764471216 198.8293158880869 386.9887457279683 166.69150863809944C467.68314381122445 134.5537013881119 470.14218341842 119.6281170564701 524.915280561672 125.96482345097616C579.6883777049242 132.30152984548226 627.7661793013112 131.53062257898932 649.8996120155776 197.10769933172907C672.033044729844 262.6847760844688 664.5284871469278 341.08200916388637 631.1557575901502 440.7347918641266 " class="about-2"></path><path d="M637.9997038785357 206.76920984764752C659.0791636064084 269.22356865978054 651.9319659083928 343.8876001639878 620.1484139495572 438.7950122594548C588.3648619907214 533.7024243549215 537.912743967863 664.3404001311739 485.43865447612393 662.3247879058887C432.964564984385 660.3091756806035 438.1395185917904 507.53570017371476 368.2727843892104 429.1200735780865C298.4060501866304 350.7044469824581 146.05007649894202 338.2878353283395 150.07833030374013 285.92978024687295C154.1065841085382 233.57172516540652 310.75659495390187 208.40884466322638 387.608402652241 177.8014091870478C464.46021035058016 147.19397371086922 466.8021528336237 132.979131490258 518.9670072557685 139.01408996121614C571.1318616779133 145.0490484321743 616.9202441506629 144.31485103551438 637.9997038785357 206.76920984764752C659.0791636064084 269.22356865978054 651.9319659083928 343.8876001639878 620.1484139495572 438.7950122594548 " class="about-3"></path><path d="M626.0997194475483 216.4307661399331C646.1252061890274 275.7624070114595 639.3353683759127 346.69323694045636 609.1409940150187 436.8552784311498C578.9466196541248 527.0173199218434 531.0171075324092 651.123396909283 481.1667225152572 649.2085652952621C431.3163374981052 647.2937336812413 436.2325434251404 502.15893194969703 369.85914593268933 427.6640866838501C303.48574844023835 353.16924141800314 158.74757343693437 341.3734603465905 162.57441455149257 291.63330801919733C166.40125566605076 241.89315569180417 315.2187659691462 217.98841921473303 388.2279832825684 188.9113555123634C461.23720059599054 159.83429180999372 463.4620459548819 146.33019170041308 513.0186576559195 152.06340224782332C562.575269356957 157.79661279523356 606.0742327060692 157.09912526840668 626.0997194475483 216.4307661399331C646.1252061890274 275.7624070114595 639.3353683759127 346.69323694045636 609.1409940150187 436.8552784311498 " class="about-4"></path><path d="M614.1996282050375 226.09230717342962C633.171141960123 282.3012301043494 626.7386640319091 349.4988584581358 598.1334672689569 434.91552934405604C569.5282705060047 520.3322002299763 524.1213642854322 637.9063784286031 476.8946837428671 636.0923274258466C429.668003200302 634.2782764230901 434.32546144696687 496.78214846689025 371.4454006646448 426.20808453082464C308.5653398823228 355.63402059475914 171.4449635634033 344.4590701060523 175.07039198772156 297.33682053273253C178.69582041203984 250.21457095941275 319.6808301728671 227.56797850745062 388.84745710137236 200.02128657888989C458.0140840298776 172.47459465032915 460.12183226461684 159.68123665177905 507.0702012445471 165.11269927564143C554.0185702244773 170.54416189950376 595.228114449952 169.88338424250986 614.1996282050375 226.09230717342962C633.171141960123 282.3012301043494 626.7386640319091 349.4988584581358 598.1334672689569 434.91552934405604 " class="about-5"></path><path d="M602.2997200679955 235.75384820692614C620.2172608366873 288.8400531972393 614.1421427933742 352.3044799758154 587.1261236283638 432.97578025696225C560.1101044633533 513.6470805381091 517.2258041439238 624.6893599479235 472.62282807594556 622.9760895564311C428.01985200796753 621.2628191649387 432.41856257426207 491.40536498408335 373.03183850206915 424.7520823777993C313.64511442987606 358.09879977151513 184.14253679534096 347.54467986551435 187.5665525294193 303.0403330462678C190.99056826349772 258.53598622702134 324.1430774820568 237.1475378001682 389.46711402564506 211.13121764541643C454.7911505692334 185.11489749066465 456.7818016798203 173.03228160314507 501.12192793864347 178.1619963034595C545.4620541974665 183.2917110037739 584.3821792993037 182.66764321661304 602.2997200679955 235.75384820692614C620.2172608366873 288.8400531972393 614.1421427933742 352.3044799758154 587.1261236283638 432.97578025696225 " class="about-6"></path><path d="M590.3997203782191 245.41538924042266C607.2632881605173 295.37887629012914 601.5455300021049 355.1101014934949 576.1186884350363 431.03603116986847C550.6918468679678 506.96196084624194 510.330152449681 611.4723414672437 468.3508808562898 609.8598516870156C426.3716092628986 608.2473619067875 430.511572148823 486.02858150127645 374.618184786759 423.29608022477385C318.7247974246949 360.56357894827113 196.84001847454425 350.6302896249763 200.06262151838274 308.74384555980305C203.28522456222117 266.8574014946299 328.6052332385121 246.7270970928858 390.0866793971834 222.2411487119429C451.56812555585475 197.75520033100008 453.44167954228953 186.3833265545111 495.17356308000535 191.2112933312776C536.9054466177213 196.03926010804412 573.536152595921 195.45190219071623 590.3997203782191 245.41538924042266C607.2632881605173 295.37887629012914 601.5455300021049 355.1101014934949 576.1186884350363 431.03603116986847 " class="about-7"></path><path d="M578.4997054296537 255.07693027391923C594.3093002255582 301.917699383019 588.9489019520466 357.91572301117435 565.1112379829199 429.09628208277456C541.273574013793 500.2768411543748 503.43448549664913 598.2553229865639 464.07891837784496 596.7436138176C424.72335125904067 595.2319046486361 428.60456646459477 480.65179801846966 376.2045158126598 421.8400780717484C323.8044651607247 363.0283581250271 209.53748489495848 353.7158993844382 212.55867524855705 314.4473580733383C215.57986560215562 275.1788167622385 333.0673737361783 256.3066563856034 390.70622950993265 233.35107977846945C448.345085283687 210.39550317133552 450.1015421459697 199.7343715058771 489.2251829625783 204.26059035909572C528.3488237791869 208.78680921231432 562.6901106337491 208.2361611648194 578.4997054296537 255.07693027391923C594.3093002255582 301.917699383019 588.9489019520466 357.91572301117435 565.1112379829199 429.09628208277456 " class="about-8"></path><path d="M566.5998430689788 264.7384865662048C581.3554648784898 308.456537734698 576.3524264898789 360.721359787643 554.1039401186938 427.15654825446984C531.8554537475088 493.5917367212967 496.538971131508 585.0383197646731 459.80710848729063 583.6273912069736C423.0752458430734 582.216462649274 426.69771336825715 475.27502979445194 377.7909994264512 420.3840911775121C328.88428548464515 365.4931525605723 222.23510390326334 356.8015244026892 225.054881566622 320.15088584566263C227.87465922998064 283.50024728863616 337.5296668217352 265.88623093711004 391.3259322105726 244.461026103785C445.12219759941 223.03582127046002 446.76155733754047 213.08543171603213 483.27695543304185 217.3099026457029C519.7923535285431 221.5343735753736 551.844221259468 221.02043539771165 566.5998430689788 264.7384865662048C581.3554648784898 308.456537734698 576.3524264898789 360.721359787643 554.1039401186938 427.15654825446984 " class="about-9"></path><path d="M554.6997823440462 274.3999970821232C568.4014311671635 314.9953303100097 563.7557526634534 363.5269507877444 543.0964438902101 425.2167686497979C522.4371351169669 486.9065865118514 489.64325840210904 571.8212707664153 455.5351002324786 570.51112281998C421.4269420628483 569.2009748735447 424.79066190766184 469.898215794067 379.3772846759848 418.92805850690854C333.9639074443078 367.9579012197501 234.93252454731038 359.887103644573 237.5508895204291 325.85436784161976C240.1692544935479 291.82163203866656 341.9917615430342 275.4657597122495 391.94543654695474 255.57092665273342C441.8991115508751 235.67609359321733 443.42137416485343 226.43644614982003 477.3285295392476 230.35916915594282C511.23568491364165 234.28189216206562 540.998133520929 233.8046638542367 554.6997823440462 274.3999970821232C568.4014311671635 314.9953303100097 563.7557526634534 363.5269507877444 543.0964438902101 425.2167686497979 " class="about-10"></path><path d="M542.799813171848 284.0615533744088C555.4474890085716 321.5341686616887 551.1591703897623 366.332587564213 532.0890392144609 423.2770348214931C513.0189080391594 480.2214820787732 482.74763722544435 558.6042675445245 451.26318353040097 557.3949002093534C419.7787298353576 556.1855328741824 422.8837019998008 464.5214475700492 380.9636614782528 417.47207161267215C339.0436209567048 370.4226956552952 247.6300367440918 362.97272866282395 250.0469890269706 331.5578956139441C252.46394130984947 300.1430625650642 346.4539478170677 285.0453342637561 392.5650324360712 266.68087297804897C438.67611705507466 248.31641169234183 440.0812825449008 239.7875063599751 471.3801951981876 243.40848144255C502.67910785147455 247.02945652512489 530.1521373351243 246.58893808712895 542.799813171848 284.0615533744088C555.4474890085716 321.5341686616887 551.1591703897623 366.332587564213 532.0890392144609 423.2770348214931 " class="about-11"></path><path d="M530.8997982232825 293.7230791491163C542.4935010736125 328.0729764957895 538.5625423397039 369.1381938231034 521.0815887623443 421.33727047561024C503.60063518498464 473.5363471281171 475.8519702724125 545.3872338050558 446.991221051956 544.2786470811488C418.1304718314997 543.1700603572422 420.97669631557267 459.1446488284532 382.54999250415364 416.01605420085775C344.1232886927346 372.8874595732621 260.327503164506 366.0583231634968 262.543042757145 337.2613928686903C264.7585823497839 308.46446257388374 350.9160883147339 294.6248782976847 393.18458254882046 277.79078878578645C435.4530767829069 260.9566992738882 436.7411451485809 253.13853605255207 465.43181508076054 256.45776321157905C494.12248501294016 259.77699037060603 519.3060953729525 259.37318180244307 530.8997982232825 293.7230791491163C542.4935010736125 328.0729764957895 538.5625423397039 369.1381938231034 521.0815887623443 421.33727047561024 " class="about-12"></path><path d="M518.9998443098733 303.3846201826128C529.5395741738097 334.61179958867933 525.9659753248019 371.943815340783 510.07419934538405 419.39752138851645C494.1824233659661 466.8512274362498 468.95636435453696 532.1702153243759 442.71931960866743 531.1624092117333C416.48227486279796 530.1546030990908 419.0697516665007 453.76786534564644 384.1363845652107 414.5600520478323C349.2030174639207 375.3522387500181 273.0250306200765 369.1439329229588 275.03915752247553 342.96490538222554C277.05328442487456 316.7858778414923 355.3782898475564 304.2044375904022 393.804193696726 288.900719852313C432.23009754589555 273.5970021142237 433.40106878741733 266.48958100391803 459.48349599848973 269.50706023939716C485.56592320956213 272.52453947487624 508.46011444593694 272.15744077654625 518.9998443098733 303.3846201826128C529.5395741738097 334.61179958867933 525.9659753248019 371.943815340783 510.07419934538405 419.39752138851645 " class="about-13"></path><path d="M507.09984462009686 313.04616121610934C516.5856014976396 341.15062268156925 513.3693625335327 374.74943685846245 499.0667641520565 417.45777230142255C484.76416577058046 460.16610774438266 462.06071266029426 518.9531968436961 438.44737238901166 518.0461713423178C414.8340321177291 517.1391458409396 417.16276124106156 448.39108186283966 385.72273084990053 413.10404989480685C354.28270045873955 377.8170179267741 285.72251229927974 372.2295426824207 287.5352265114389 348.6684178957608C289.3479407235981 325.1072931091009 359.8404456040117 313.7839968831198 394.4237590682643 300.0106509188395C429.00707253251693 286.23730495455914 430.06094664988655 279.84062595528405 453.53513113985167 282.5563572672152C477.0093156298168 285.2720885791464 497.61408774255415 284.94169975064943 507.09984462009686 313.04616121610934C516.5856014976396 341.15062268156925 513.3693625335327 374.74943685846245 499.0667641520565 417.45777230142255 " class="about-14"></path><path d="M495.19987544789865 322.70767173202773C503.6316593390477 347.689415256881 500.7727802598415 377.55502785856385 488.05935947630724 415.51799269675064C475.34593869277296 453.4809575349374 455.16509148362957 505.73614784543827 434.17545568693396 504.9299029553242C413.18581989023835 504.1236580652102 415.25580133320057 443.01426786245463 387.30910765216856 411.64801722420333C359.3624139711365 380.28176658595197 298.42002449606116 375.31512192430455 300.0313260179804 354.37189989171793C301.64262753989965 333.42867785913137 364.3026318780451 323.3635256582593 395.04335495738076 311.1205514677879C425.78407803671644 298.87757727731645 426.72085502993383 293.19164038907195 447.58679679879174 295.6056237774552C468.4527385676497 298.01960716583847 486.7680915567496 297.7259282071745 495.19987544789865 322.70767173202773C503.6316593390477 347.689415256881 500.7727802598415 377.55502785856385 488.05935947630724 415.51799269675064 " class="about-15"></path><path d="M483.29989101691126 332.3692280243133C490.67770192166677 354.2282536085599 488.17618272736127 380.36066463503244 477.0519395417688 413.57825886844586C465.9276963561763 446.7958531018593 448.26945504817587 492.5191446235475 429.9035237260672 491.8136803446978C411.53759240395857 491.10821606584796 413.34882616655045 437.6374996384369 388.8954691956475 410.192030329967C364.44211222474445 382.7465610214971 311.1175214340535 378.40074694255554 312.5274102657329 360.07542766404225C313.9372990974122 341.750108385529 368.76480289328947 332.94310020976593 395.66293558770815 322.23049779310344C422.5610682821269 311.51789537644095 423.3807481511921 306.54270059922703 441.6384471989428 308.6549360640624C459.89614624669343 310.76717152889773 475.92208011215587 310.51020244006673 483.29989101691126 332.3692280243133C490.67770192166677 354.2282536085599 488.17618272736127 380.36066463503244 477.0519395417688 413.57825886844586 " class="about-16"></path><path d="M471.3998913271349 342.0307690578099C477.7237292454967 360.7670767014498 475.57956993609207 383.16628615271196 466.04450434844136 411.638509781352C456.50943876079066 440.11073340999206 441.3738033539331 479.3021261428678 425.6315765064114 478.6974424752822C409.8893496588897 478.09275880769667 411.44183574111133 432.26071615563006 390.48181548033733 408.73602817694155C369.52179521956333 385.2113401982531 323.8150031132568 381.4863567020175 325.02347925469627 365.7789401775775C326.2319553961357 350.0715236531376 373.22695864974474 342.5226595024835 396.28250095924653 333.34042885963C419.33804326874827 324.1581982167764 420.0406260136613 319.893745550593 435.69008234030474 321.7042330918805C451.3395386669482 323.51472063316794 465.0760534087731 323.29446141417 471.3998913271349 342.0307690578099C477.7237292454967 360.7670767014498 475.57956993609207 383.16628615271196 466.04450434844136 411.638509781352 " class="about-17"></path><path d="M459.4999068961476 351.6923100913064C464.7697718281158 367.30589979433967 462.9829724036119 385.9719076703915 455.03708441390296 409.6987606942582C447.091196424194 433.4256137181249 434.4781669184794 466.08510766218797 421.35964454554465 465.5812046058667C408.24112217260995 465.0773015495454 409.5348605744613 426.8839326728232 392.0681770238163 407.28002602391615C374.6014934731713 387.6761193750091 336.51250005124916 384.5719664614794 337.5195635024487 371.48245269111277C338.52662695364825 358.3929389207462 377.68912966498914 352.1022187952011 396.9020815895739 344.45035992615647C416.1150335141587 336.7985010571118 416.7005191349196 333.244790501959 429.7417327404558 334.75353011969855C442.782946345992 336.2622697374381 454.2300419641794 336.07872038827315 459.4999068961476 351.6923100913064C464.7697718281158 367.30589979433967 462.9829724036119 385.9719076703915 455.03708441390296 409.6987606942582 " class="about-18"></path><path d="M447.59992246516026 361.35383586601387C451.8158144107348 373.8447076284405 450.3863748711317 388.77751392928195 444.02966447936456 407.7589963483753C437.6729540875974 426.7404787674687 427.5825304830257 452.86807392271913 417.0877125846779 452.4649514776621C406.5928946863301 452.0618290326051 407.6278854078112 421.5071339312273 393.6545385672952 405.8240086121017C379.6811917267792 390.140883292976 349.2099969892415 387.6575609621523 350.01564775020114 377.18594994585897C350.82129851116076 366.71433892956566 382.1513006802335 361.68176282912964 397.5216622199013 355.56027573389395C412.89202375956916 349.4387886386582 413.3604122561779 346.595820194536 423.7933831406068 347.8028118887276C434.2263540250358 349.00980358291923 443.38403051958574 348.8629641035873 447.59992246516026 361.35383586601387C451.8158144107348 373.8447076284405 450.3863748711317 388.77751392928195 444.02966447936456 407.7589963483753 " class="about-19"></path><path d="M435.699953292962 371.0153768995104C438.8618722521429 380.3835307213304 437.78979259744057 391.5831354469614 433.0222598036152 405.8192472612815C428.25472700978986 420.05535907560153 420.6869093063611 439.65105544203936 412.81579588260024 439.34871360824656C404.9446824588394 439.0463717744538 405.7209254999502 416.1303504484205 395.2409153695632 404.36800645907624C384.76090523917617 392.605662469732 361.90750918602293 390.7431707216142 362.51174725674264 382.8894624593942C363.1159853274624 375.03575419717424 386.61348695426693 371.26132212184723 398.14125810901777 366.67020680042043C409.66902926376866 362.0790914789937 410.02032063622516 359.946865145902 417.84504879954693 360.8521089165457C425.66977696286864 361.75735268718944 432.53803433378107 361.64722307769046 435.699953292962 371.0153768995104C438.8618722521429 380.3835307213304 437.78979259744057 391.5831354469614 433.0222598036152 405.8192472612815 " class="about-20"></path><path d="M423.79996886197466 380.67691793300696C425.9079148347619 386.92235381422023 425.1931950649604 394.38875696464095 422.0148398690768 403.87949817418763C418.83648467319324 413.3702393837343 413.7912728709074 426.43403696135954 408.5438639217335 426.23247573883106C403.2964549725596 426.0309145163025 403.8139503333001 410.7535669656137 396.8272769130421 402.91200430605085C389.8406034927841 395.070441646488 374.6050061240153 393.82878048107614 375.00783150449513 388.5929749729295C375.4106568849749 383.3571694647828 391.07565796951127 380.8408814145648 398.7608387393452 377.780137866947C406.4460195091791 374.7193943193291 406.68021375748344 373.29791009726796 411.89669919969793 373.90140594436383C417.1131846419124 374.50490179145964 421.6920228891874 374.43148205179364 423.79996886197466 380.67691793300696C425.9079148347619 386.92235381422023 425.1931950649604 394.38875696464095 422.0148398690768 403.87949817418763 " class="about-21"></path><path d="M411.89998443098733 390.3384589665035C412.953957417381 393.46117690711014 412.5965975324802 397.1943784823205 411.0074199345384 401.93974908709384C409.4182423365966 406.68511969186716 406.8956364354537 413.21701848067977 404.27193196086677 413.1162378694155C401.6482274862798 413.0154572581513 401.90697516665006 405.37678348280684 398.4136384565211 401.4560021530254C394.92030174639206 397.535220823244 387.30250306200764 396.91439024053807 387.50391575224756 394.29648748646474C387.7053284424875 391.6785847323914 395.53782898475566 390.4204407072824 399.3804193696726 388.89006893347346C403.22300975458955 387.35969715966456 403.3401068787417 386.648955048634 405.948349599849 386.9507029721819C408.5565923209562 387.2524508957298 410.84601144459367 387.2157410258968 411.89998443098733 390.3384589665035C412.953957417381 393.46117690711014 412.5965975324802 397.1943784823205 411.0074199345384 401.93974908709384 " class="about-22"></path></g></svg>