<svg viewBox="0 0 800 800" width="800" height="100%"><defs><linearGradient x1="50%" y1="0%" x2="50%" y2="100%" id="ccchaos-grad"><stop stop-color="hsl(206, 75%, 49%)" stop-opacity="1" offset="0%"></stop><stop stop-color="hsl(331, 90%, 56%)" stop-opacity="1" offset="100%"></stop></linearGradient></defs><g stroke-width="2" stroke="url(#ccchaos-grad)" fill="none" stroke-linecap="round"><path d="M365.71 129.39C369.7 112.91 388.09 104.56 397.07 115.15Q403.28 121.77 409.94 128.46 416.98 135.25 424.35 142.19 431.99 149.3 439.82 156.62 447.75 164.18 455.7 172 463.58 180.11 471.31 188.51 478.8 197.23 485.96 206.26 492.74 215.62 499.05 225.28 504.84 235.25 510.06 245.5 514.69 256.01 518.7 266.74 522.08 277.67 524.84 288.75 527.01 299.95 528.62 311.21 529.72 322.49 530.38 333.73 530.67 344.88 530.68 355.9 530.49 366.72 530.21 377.31 529.94 387.62 529.78 397.61 529.83 407.24 530.19 416.48 532.49 433.49 536.48 449.18 543.8 462.72 553.29 475.07 566.3 485.77 581.2 495.75 589.58 500.47 598.36 505.12 607.45 509.79 616.73 514.52 626.08 519.39 635.4 524.47 644.55 529.82 653.43 535.5 661.92 541.56 669.92 548.06 677.33 555.04 684.07 562.54 690.07 570.57 695.29 579.17 699.69 588.33 703.25 598.06 705.98 608.35 707.9 619.16 709.06 630.48 709.51 642.25C709.08 659.91 691.17 665.6 677.41 656.4Q660.44 653.03 643.47 659.2 626.5 673.27 609.54 691.47 592.57 708.94 575.6 721.02 558.63 724.48 541.67 718.38 524.7 704.38 507.73 686.19 490.77 668.69 473.8 656.54 456.83 653 439.86 659.01 422.9 672.96 405.93 691.13 388.96 708.66 372 720.87 355.03 724.5 338.06 718.58 321.09 704.68 304.13 686.53 287.16 668.97 270.19 656.7 253.23 652.98 236.26 658.82 219.29 672.65 202.32 690.79 185.36 708.37 168.39 720.72 151.42 724.52 134.46 718.77C120.69 708.06 113.34 684.67 120.79 678.44Q130.85 668.32 140.56 656.83 149.47 642.74 157.77 626.98 161.56 618.13 165.13 608.73 168.48 598.83 171.64 588.45 174.62 577.65 177.43 566.45 180.12 554.94 182.7 543.15 185.22 531.16 187.72 519.03 190.22 506.83 192.79 494.62 195.45 482.48 198.26 470.45 201.24 458.61 204.44 447.01 207.88 435.69 211.6 424.7 215.61 414.08 219.93 403.85 224.56 394.04 229.51 384.66 234.76 375.72 240.3 367.21 246.11 359.13 252.15 351.45 258.39 344.16 264.78 337.22 271.28 330.6 277.84 324.26 290.83 312.29 303.47 300.73 315.01 289.35 325.62 277.77 334.33 265.45 341.81 252.45 347.28 238.08 351.66 222.79 354.64 205.95 357.12 188.24 358.23 178.91 359.37 169.35 360.62 159.58 362.05 149.64 364.72 134.48 365.71 129.39" stroke-dasharray="6 11" transform="rotate(0, 400, 400)" opacity="0.72" class="home-1"></path><path d="M368.96 140.07C371.99 124.15 389.77 115.86 399.31 125.95Q405.77 132.26 412.58 138.63 419.68 145.09 427.01 151.68 434.5 158.43 442.08 165.37 449.68 172.53 457.22 179.92 464.62 187.58 471.81 195.51 478.71 203.74 485.27 212.26 491.41 221.08 497.09 230.21 502.27 239.62 506.9 249.32 510.98 259.27 514.48 269.47 517.41 279.87 519.79 290.45 521.64 301.17 523 311.99 523.92 322.88 524.46 333.78 524.68 344.64 524.67 355.43 524.5 366.09 524.27 376.59 524.07 386.87 523.98 396.9 524.09 406.63 524.49 416.03 526.75 433.55 530.54 449.88 537.36 464.16 546.16 477.22 558.22 488.47 572.05 498.82 579.88 503.57 588.11 508.15 596.66 512.62 605.45 517.04 614.37 521.47 623.32 525.96 632.19 530.58 640.89 535.39 649.3 540.44 657.34 545.8 664.91 551.5 671.92 557.6 678.32 564.14 684.04 571.16 689.04 578.67 693.28 586.7 696.76 595.26 699.48 604.35 701.45 613.97 702.71 624.1C703.38 639.52 687.05 647.09 673.69 642.49Q657.21 644.75 640.74 655.14 624.27 671.1 607.79 688.68 591.32 703.52 574.84 711.96 558.37 711.91 541.89 703.37 525.42 688.47 508.94 670.88 492.47 654.97 475.99 644.67 459.52 642.52 443.04 649.06 426.57 662.67 410.1 679.99 393.62 696.72 377.15 708.73 360.67 713.05 344.2 708.6 327.72 696.49 311.25 679.72 294.77 662.43 278.3 648.9 261.82 642.48 245.35 644.76 228.87 655.18 212.4 671.15 195.92 688.72 179.45 703.55 162.97 711.97 146.5 711.89C133.13 705.53 125.95 684.81 133.05 677.48Q142.53 665.48 151.58 651.97 155.82 644.3 159.86 636.11 163.7 627.4 167.34 618.19 170.77 608.52 174.01 598.41 177.05 587.91 179.91 577.05 182.62 565.9 185.19 554.5 187.66 542.91 190.06 531.2 192.42 519.41 194.77 507.62 197.17 495.87 199.63 484.23 202.21 472.76 204.94 461.49 207.85 450.49 210.97 439.78 214.33 429.4 217.96 419.39 221.87 409.76 226.07 400.53 230.57 391.71 235.37 383.3 240.45 375.3 245.81 367.69 251.41 360.46 257.25 353.58 269.49 340.88 282.06 328.94 294.68 317.85 307.02 306.98 318.42 296.06 328.99 284.84 337.86 272.77 345.59 260 351.38 245.87 356.09 230.86 359.31 214.4 361.89 197.13 362.95 188.05 363.97 178.77 365.02 169.3 366.15 159.67 368.2 145 368.96 140.07" stroke-dasharray="4 7" transform="rotate(4.04, 400, 400)" opacity="0.20" class="home-2"></path><path d="M372.78 150.74C375.04 135.36 392.21 127.17 402.14 136.78Q415.57 148.84 429.77 161.23 444.26 174.18 458.51 187.92 471.99 202.6 484.23 218.36 494.81 235.24 503.47 253.24 510.06 272.26 514.62 292.17 517.32 312.72 518.51 333.66 518.66 354.67 518.34 375.41 518.18 395.56 518.79 414.81 520.77 432.88 524.6 449.57 530.64 464.76 539.09 478.39 549.94 490.52 563.03 501.3 577.98 510.97 594.26 519.83 611.25 528.27 628.23 536.7 644.47 545.56 659.29 555.28 672.08 566.23 682.4 578.74 690 593.06 694.82 609.34C696.65 622.27 682.07 632.18 669.13 632.22Q653.17 639.35 637.22 652.69 621.26 669.18 605.31 685.07 589.36 696.73 573.4 701.48 557.45 698.25 541.49 687.78 525.54 672.45 509.59 655.77 493.63 641.54 477.68 633.02 461.72 632.16 445.77 639.14 429.81 652.38 413.86 668.85 397.91 684.79 381.95 696.56 366 701.46 350.04 698.39 334.09 688.04 318.13 672.78 302.18 656.08 286.22 641.78 270.27 633.12 254.31 632.1 238.36 638.93 222.41 652.08 206.45 668.52 190.5 684.5 174.54 696.38 158.59 701.44C145.64 699.68 138.55 682.22 145.25 673.44Q154.14 659.58 162.41 643.76 169.95 626.05 176.7 606.66 182.71 585.85 188.04 563.98 192.85 541.46 197.36 518.72 201.81 496.17 206.47 474.22 211.63 453.21 217.52 433.42 224.34 415.05 232.23 398.19 241.24 382.86 251.32 368.97 262.34 356.36 274.09 344.79 286.26 333.98 298.53 323.61 310.51 313.35 321.86 302.87 332.24 291.88 341.4 280.14 349.17 267.47 355.46 253.72 360.35 238.87 363.99 222.92 366.65 205.97 368.72 188.16 370.61 169.68 372.78 150.74 372.78 150.74 372.78 150.74" stroke-dasharray="5 3" transform="rotate(8.08, 400, 400)" opacity="0.52" class="home-3"></path><path d="M377.04 161.39C378.73 146.58 395.33 138.5 405.45 147.62Q418.77 159.06 432.53 170.8 446.27 183.04 459.52 195.98 471.84 209.77 482.84 224.55 492.23 240.38 499.79 257.27 505.47 275.16 509.34 293.95 511.59 313.45 512.56 333.45 512.67 353.69 512.44 373.86 512.4 393.69 513.1 412.86 515.04 431.12 518.66 448.23 524.28 464.02 532.07 478.4 542.07 491.32 554.14 502.86 567.99 513.13 583.21 522.35 599.26 530.81 615.54 538.83 631.4 546.78 646.24 555.04 659.48 564.01 670.67 574.03 679.49 585.43 685.79 598.43C688.75 608.88 676.02 621.21 663.53 625.43Q648.13 636.25 632.73 651.11 617.32 666.87 601.92 680.23 586.52 688.37 571.11 689.59 555.71 683.64 540.31 671.76 524.9 656.44 509.5 640.91 494.1 628.43 478.69 621.63 463.29 621.92 447.88 629.25 432.48 642.09 417.08 657.72 401.67 672.87 386.27 684.36 370.87 689.77 355.46 687.96 340.06 679.31 324.65 665.65 309.25 649.84 293.85 635.2 278.44 624.81 263.04 620.85 247.63 624.16 232.23 634.04 216.83 648.41 201.42 664.25 186.02 678.24 170.62 687.44C158.13 690 151.07 676.01 157.3 665.68Q165.47 649.79 172.99 632.2 179.78 613.11 185.83 592.79 191.21 571.57 196.01 549.82 200.4 527.92 204.59 506.25 208.81 485.16 213.31 464.95 218.33 445.89 224.08 428.13 230.73 411.79 238.4 396.88 247.11 383.33 256.83 371.02 267.43 359.75 278.72 349.27 290.44 339.31 302.28 329.57 313.93 319.76 325.05 309.6 335.35 298.85 344.57 287.31 352.52 274.83 359.12 261.33 364.37 246.79 368.37 231.24 371.31 214.76 373.5 197.51 375.27 179.65 377.04 161.39 377.04 161.39 377.04 161.39" stroke-dasharray="9 5" transform="rotate(12.12, 400, 400)" opacity="0.67" class="home-4"></path><path d="M381.62 172.02C382.94 157.78 398.98 149.83 409.06 158.48Q422.06 169.31 435.18 180.41 448.02 191.94 460.18 204.1 471.3 217.04 481.09 230.86 489.32 245.65 495.87 261.44 500.71 278.19 503.97 295.82 505.83 314.22 506.61 333.2 506.71 352.55 506.55 372.01 506.63 391.33 507.4 410.25 509.31 428.5 512.73 445.85 517.94 462.11 525.12 477.14 534.29 490.84 545.37 503.19 558.15 514.25 572.29 524.12 587.35 532.99 602.83 541.1 618.18 548.74 632.84 556.22 646.31 563.9 658.13 572.1 667.96 581.17 675.57 591.39C679.61 599.59 668.76 614.07 656.74 621.58Q641.92 634.68 627.1 649.64 612.28 663.57 597.46 673.8 582.64 678.35 567.82 676.34 553 668.17 538.18 655.41 523.36 640.51 508.54 626.34 493.72 615.64 478.9 610.45 464.08 611.78 449.26 619.38 434.44 631.78 419.62 646.59 404.8 660.96 389.98 672.13 375.16 677.94 360.34 677.28 345.52 670.27 330.7 658.27 315.88 643.58 301.06 629.03 286.24 617.42 271.42 610.99 256.6 610.98 241.78 617.38 226.96 628.97 212.15 643.52 197.33 658.21 182.51 670.23C170.49 676.4 163.43 665.74 169.14 654.03Q176.55 636.48 183.3 617.65 189.35 597.78 194.74 577.19 199.53 556.21 203.85 535.18 207.87 514.44 211.78 494.28 215.8 474.98 220.15 456.75 225.04 439.74 230.66 424.05 237.14 409.68 244.57 396.6 252.99 384.69 262.34 373.78 272.51 363.67 283.34 354.11 294.59 344.85 306 335.62 317.29 326.17 328.15 316.27 338.32 305.72 347.55 294.36 355.66 282.08 362.53 268.84 368.13 254.62 372.51 239.48 375.8 223.5 378.22 206.82 380.84 180.81 381.62 172.02" stroke-dasharray="6 2" transform="rotate(16.16, 400, 400)" opacity="0.22" class="home-5"></path><path d="M386.38 182.65C387.51 168.97 402.98 161.17 412.85 169.36Q425.3 179.6 437.61 190.06 449.43 200.91 460.44 212.31 470.36 224.4 478.97 237.29 486.1 251.07 491.7 265.76 495.79 281.36 498.5 297.84 500.03 315.09 500.67 332.97 500.75 351.33 500.69 369.95 500.87 388.61 501.71 407.08 503.58 425.12 506.81 442.52 511.63 459.06 518.21 474.58 526.6 488.95 536.74 502.09 548.48 513.99 561.53 524.68 575.57 534.25 590.17 542.86 604.86 550.69 619.18 558.01 632.66 565.08 644.88 572.19 655.47 579.66 664.18 587.78C669.19 594.17 660.19 610.23 648.67 619.87Q634.46 633.74 620.26 647.52 606.06 658.79 591.85 665.57 577.65 666.66 563.44 661.87 549.24 652.05 535.03 638.93 520.83 624.79 506.63 612.14 492.42 603.19 478.22 599.51 464.01 601.76 449.81 609.53 435.61 621.46 421.4 635.46 407.2 649.06 392.99 659.88 378.79 666.01 364.59 666.39 350.38 660.93 336.18 650.6 321.97 637.22 307.77 623.14 293.57 610.83 279.36 602.44 265.16 599.47 250.95 602.42 236.75 610.79 222.55 623.09 208.34 637.17 194.14 650.56C182.62 659.27 175.54 651.47 180.69 638.74Q187.32 620.15 193.31 600.74 198.65 580.8 203.41 560.63 207.67 540.51 211.56 520.75 215.25 501.61 218.92 483.3 222.77 466.01 226.99 449.86 231.77 434.94 237.25 421.24 243.56 408.74 250.76 397.33 258.87 386.86 267.84 377.17 277.59 368.04 287.95 359.24 298.72 350.54 309.69 341.71 320.59 332.55 331.16 322.85 341.15 312.47 350.35 301.28 358.56 289.21 365.66 276.24 371.6 262.37 376.36 247.66 380.04 232.19 382.79 216.11 385.6 191.09 386.38 182.65" stroke-dasharray="4 7" transform="rotate(20.200000000000003, 400, 400)" opacity="0.74" class="home-6"></path><path d="M391.17 193.25C392.28 180.15 407.17 172.52 416.63 180.24Q428.35 189.9 439.71 199.75 450.44 209.93 460.27 220.59 469 231.86 476.46 243.84 482.58 256.62 487.31 270.24 490.73 284.71 492.96 300.02 494.21 316.09 494.73 332.83 494.83 350.11 494.85 367.77 495.13 385.62 496.03 403.47 497.86 421.1 500.89 438.31 505.35 454.92 511.37 470.73 519.01 485.6 528.25 499.43 538.97 512.13 550.96 523.69 563.95 534.11 577.6 543.48 591.54 551.91 605.35 559.56 618.64 566.63 631.01 573.35 642.13 579.98 651.7 586.77C657.52 591.91 650.24 608.79 639.25 619.28Q625.69 632.5 612.13 644.07 598.58 652.13 585.02 655.4 571.47 653.35 557.91 646.33 544.35 635.43 530.8 622.41 517.24 609.34 503.69 598.31 490.13 591.07 476.57 588.79 463.02 591.82 449.46 599.68 435.9 611.13 422.35 624.32 408.79 637.16 395.23 647.6 381.68 653.97 368.12 655.25 354.57 651.25 341.01 642.6 327.45 630.67 313.9 617.38 300.34 604.85 286.78 595.06 273.23 589.6 259.67 589.31 246.11 594.27 232.56 603.66 219 616 205.44 629.31C194.45 639.36 187.3 633.75 191.89 620.5Q197.74 601.6 202.99 582.37 207.67 563.06 211.85 543.93 215.64 525.23 219.16 507.17 222.57 489.95 226.04 473.7 229.74 458.52 233.85 444.48 238.51 431.57 243.86 419.74 249.99 408.92 256.95 398.98 264.75 389.77 273.34 381.09 282.65 372.75 292.54 364.56 302.83 356.29 313.34 347.77 323.83 338.82 334.07 329.29 343.85 319.06 352.96 308.05 361.23 296.2 368.51 283.52 374.74 270.01 379.88 255.75 383.97 240.82 387.11 225.34 390.3 201.34 391.17 193.25" stroke-dasharray="6 6" transform="rotate(24.24, 400, 400)" opacity="0.51" class="home-7"></path><path d="M395.83 203.84C397.07 191.32 411.36 183.88 420.26 191.16Q431.08 200.24 441.39 209.48 450.97 219.01 459.63 228.95 467.2 239.43 473.59 250.53 478.76 262.34 482.72 274.91 485.54 288.26 487.36 302.4 488.37 317.28 488.81 332.84 488.93 348.98 489.03 365.57 489.4 382.48 490.35 399.53 492.13 416.56 494.98 433.38 499.09 449.81 504.58 465.69 511.52 480.85 519.9 495.17 529.63 508.54 540.57 520.9 552.51 532.2 565.17 542.46 578.25 551.72 591.42 560.07 604.32 567.63 616.62 574.55 628 581.04 638.19 587.28C644.64 591.75 638.94 608.61 628.5 618.72Q615.62 630.1 602.74 638.72 589.86 643.34 576.98 643.3 564.1 638.6 551.22 629.93 538.34 618.52 525.46 606.04 512.58 594.26 499.7 584.91 486.82 579.31 473.93 578.29 461.05 581.98 448.17 589.86 435.29 600.79 422.41 613.19 409.53 625.28 396.65 635.31 383.77 641.83 370.89 643.91 358.01 641.24 345.13 634.22 332.25 623.84 319.37 611.62 306.48 599.31 293.6 588.68 280.72 581.27 267.84 578.15 254.96 579.77 242.08 585.89 229.2 595.64 216.32 607.6C205.88 617.74 198.7 613.49 202.71 600.3Q207.8 581.87 212.35 563.52 216.42 545.47 220.09 527.92 223.46 511.05 226.66 495 229.84 479.89 233.14 465.78 236.72 452.71 240.73 440.68 245.28 429.63 250.49 419.5 256.43 410.15 263.14 401.47 270.63 393.28 278.84 385.42 287.71 377.71 297.12 369.98 306.92 362.04 316.95 353.75 327 344.96 336.89 335.57 346.42 325.49 355.39 314.66 363.65 303.06 371.07 290.68 377.55 277.57 383.04 263.78 387.53 249.41 391.09 234.54 394.82 211.57 395.83 203.84" stroke-dasharray="7 1" transform="rotate(28.28, 400, 400)" opacity="0.87" class="home-8"></path><path d="M400.21 214.4C401.69 202.48 415.38 195.25 423.57 202.08Q433.38 210.6 442.57 219.25 450.99 228.14 458.48 237.39 464.96 247.09 470.35 257.34 474.66 268.21 477.92 279.77 480.23 292.03 481.7 305.01 482.52 318.7 482.89 333.05 483.05 348 483.23 363.45 483.68 379.3 484.67 395.42 486.39 411.66 489.07 427.87 492.84 443.9 497.84 459.59 504.11 474.79 511.67 489.36 520.46 503.2 530.38 516.2 541.27 528.29 552.91 539.43 565.07 549.61 577.47 558.85 589.83 567.21 601.85 574.79 613.25 581.68 623.77 588.05C630.67 592.39 626.36 608.4 616.47 617.12Q604.29 625.76 592.11 631.05 579.93 632.3 567.75 629.36 555.58 622.59 543.4 612.89 531.22 601.5 519.04 589.9 506.86 579.6 494.68 571.93 482.5 567.88 470.32 567.98 458.14 572.22 445.96 580.04 433.78 590.43 421.6 602.05 409.42 613.39 397.24 622.99 385.06 629.59 372.88 632.34 360.7 630.89 348.52 625.42 336.34 616.64 324.16 605.7 311.98 594 299.8 583.07 287.62 574.31 275.44 568.87 263.26 567.46 251.08 570.24 238.9 576.87 226.72 586.48C216.83 595.62 209.65 591.93 213.1 579.35Q217.48 562.09 221.39 545.23 224.92 528.94 228.13 513.35 231.15 498.57 234.09 484.68 237.08 471.73 240.25 459.73 243.73 448.66 247.64 438.47 252.09 429.08 257.15 420.4 262.9 412.3 269.35 404.64 276.51 397.28 284.34 390.05 292.76 382.81 301.69 375.4 311 367.7 320.53 359.57 330.13 350.92 339.64 341.66 348.86 331.73 357.65 321.09 365.85 309.75 373.33 297.71 380 285.02 385.79 271.73 390.67 257.92 394.66 243.7 399.01 221.78 400.21 214.4" stroke-dasharray="10 8" transform="rotate(32.32, 400, 400)" opacity="0.54" class="home-9"></path><path d="M404.19 224.96C405.99 213.64 419.04 206.64 426.42 213.03Q435.14 221 443.19 229.07 450.45 237.34 456.83 245.91 462.28 254.87 466.76 264.3 470.3 274.26 472.96 284.83 474.81 296.03 476 307.88 476.67 320.39 477 333.53 477.19 347.25 477.45 361.51 477.98 376.21 478.99 391.27 480.66 406.56 483.16 421.97 486.62 437.37 491.15 452.62 496.8 467.59 503.59 482.15 511.48 496.19 520.41 509.59 530.26 522.27 540.87 534.15 552.05 545.19 563.59 555.36 575.26 564.66 586.81 573.13 598 580.82 608.6 587.81C615.73 592.47 612.59 606.98 603.28 613.52Q591.82 618.94 580.36 620.86 568.9 619.08 557.45 613.79 545.99 605.61 534.53 595.48 523.07 584.57 511.61 574.15 500.15 565.43 488.69 559.41 477.23 556.79 465.77 557.87 454.31 562.53 442.85 570.22 431.39 580.07 419.93 590.92 408.47 601.53 397.01 610.66 385.55 617.26 374.09 620.56 362.63 620.19 351.17 616.19 339.71 609.01 328.25 599.5 316.79 588.74 305.33 577.99 293.88 568.49 282.42 561.33 270.96 557.36 259.5 557.02 248.04 560.35 236.58 566.98C227.28 574.26 220.13 570.41 223.06 558.92Q226.77 543.39 230.12 528.46 233.17 514.25 236.01 500.83 238.73 488.24 241.46 476.51 244.3 465.64 247.36 455.59 250.75 446.32 254.58 437.74 258.92 429.77 263.84 422.29 269.38 415.18 275.57 408.32 282.4 401.58 289.83 394.81 297.81 387.91 306.25 380.73 315.05 373.19 324.08 365.19 333.22 356.65 342.3 347.51 351.19 337.75 359.74 327.33 367.82 316.28 375.3 304.61 382.09 292.36 388.12 279.6 393.34 266.39 397.74 252.82 402.76 231.97 404.19 224.96" stroke-dasharray="5 3" transform="rotate(36.36, 400, 400)" opacity="0.31" class="home-10"></path><path d="M407.63 235.49C409.8 224.77 422.17 218.03 428.69 223.99Q436.28 231.41 443.19 238.92 449.34 246.58 454.67 254.5 459.17 262.74 462.84 271.38 465.71 280.48 467.83 290.1 469.32 300.27 470.27 311.03 470.82 322.38 471.13 334.31 471.37 346.81 471.7 359.83 472.29 373.32 473.32 387.22 474.93 401.43 477.26 415.87 480.42 430.43 484.51 445.01 489.57 459.49 495.63 473.76 502.67 487.7 510.65 501.22 519.48 514.21 529.06 526.6 539.24 538.31 549.85 549.29 560.71 559.5 571.63 568.93 582.41 577.58 592.83 585.49C600.03 590.75 597.8 603.28 589.1 607.22Q578.38 609.31 567.65 608.16 556.92 603.88 546.2 596.91 535.47 587.97 524.75 577.97 514.02 567.95 503.29 558.92 492.57 551.82 481.84 547.37 471.12 546.03 460.39 547.95 449.66 552.91 438.94 560.42 428.21 569.69 417.49 579.79 406.76 589.67 396.04 598.33 385.31 604.86 374.58 608.6 363.86 609.18 353.13 606.52 342.41 600.9 331.68 592.9 320.96 583.34 310.23 573.2 299.51 563.52 288.78 555.29 278.05 549.36 267.33 546.34 256.6 546.53 245.88 549.93C237.18 554.79 230.11 550.26 232.58 540.17Q235.72 526.73 238.57 513.99 241.22 501.99 243.75 490.77 246.25 480.31 248.8 470.61 254.67 453.6 261.56 438.32 270.83 425.05 281.8 412.33 288.29 406.03 295.33 399.58 302.85 392.89 310.81 385.87 319.09 378.44 327.61 370.53 336.26 362.1 344.89 353.1 353.41 343.53 361.67 333.37 369.56 322.64 376.98 311.37 383.82 299.6 390.02 287.38 395.52 274.79 400.29 261.89 405.97 242.12 407.63 235.49" stroke-dasharray="2 8" transform="rotate(40.400000000000006, 400, 400)" opacity="0.59" class="home-11"></path><path d="M410.43 246C412.98 235.9 424.65 229.43 430.28 234.96Q436.73 241.85 442.54 248.8 451.65 263.3 458.61 278.61 460.89 286.88 462.58 295.59 463.75 304.78 464.51 314.48 464.99 324.7 465.29 335.45 465.57 346.72 465.97 358.5 466.61 370.75 467.65 383.42 469.19 396.45 471.36 409.79 474.24 423.34 477.91 437.04 482.42 450.78 487.8 464.47 494.04 478.03 501.12 491.35 508.98 504.34 517.54 516.92 526.7 529.02 536.33 540.55 546.3 551.48 556.46 561.75 566.63 571.34 576.67 580.23C583.71 586.2 582.18 596.5 574.08 597.79Q564.1 596.81 554.12 593.11 544.14 587.01 534.15 579.07 524.17 569.99 514.19 560.61 504.21 551.77 494.22 544.27 484.24 538.77 474.26 535.79 464.28 535.59 454.29 538.18 444.31 543.34 434.33 550.6 424.34 559.29 414.36 568.65 404.38 577.82 394.4 585.97 384.41 592.37 374.43 596.45 364.45 597.82 354.46 596.38 344.48 592.24 334.5 585.79 324.52 577.6 314.53 568.42 304.55 559.07 294.57 550.4 284.58 543.19 274.6 538.09 264.62 535.56 254.63 535.83C246.53 538.1 239.64 532.55 241.68 524.07Q244.32 512.86 246.77 502.34 249.1 492.51 251.39 483.35 256.24 467.2 261.68 452.65 268.81 440.07 277.29 428.14 288.29 416.39 300.82 404.2 307.89 397.65 315.35 390.72 323.12 383.38 331.12 375.56 339.25 367.25 347.42 358.42 355.52 349.06 363.45 339.19 371.1 328.82 378.37 317.98 385.2 306.72 391.49 295.09 397.19 283.13 402.26 270.92 408.55 252.26 410.43 246" stroke-dasharray="7 5" transform="rotate(44.44, 400, 400)" opacity="0.92" class="home-12"></path><path d="M412.51 256.5C415.42 247.03 426.37 240.85 431.1 245.96Q440.91 258.79 448.87 271.92 453.83 286.14 457.21 301.31 458.13 309.56 458.75 318.24 459.17 327.38 459.48 336.99 459.81 347.07 460.26 357.61 460.95 368.59 461.98 380 463.45 391.79 465.46 403.92 468.07 416.33 471.36 428.96 475.36 441.75 480.1 454.63 485.59 467.51 491.81 480.32 498.74 492.98 506.31 505.42 514.45 517.56 523.09 529.32 532.1 540.66 541.39 551.5 550.82 561.81 560.27 571.54C567 578.18 565.98 586.27 558.48 585.15Q549.24 581.66 540 576.1 530.76 568.93 521.53 560.69 512.29 552.04 503.05 543.67 493.81 536.22 484.57 530.29 475.33 526.34 466.1 524.69 456.86 525.46 447.62 528.59 438.38 533.84 429.14 540.79 419.9 548.9 410.67 557.53 401.43 565.99 392.19 573.63 382.95 579.84 373.71 584.13 364.47 586.16 355.24 585.78 346 583.01 336.76 578.08 327.52 571.36 318.28 563.4 309.05 554.81 299.81 546.27 290.57 538.46 281.33 531.99 272.09 527.36 262.86 524.95C255.36 524.76 248.72 518.1 250.42 511.22Q254.76 494.03 258.97 478.52 263.61 465.4 268.92 453.35 275.87 442.38 284.06 431.6 294.51 420.4 306.31 408.54 312.92 402.07 319.89 395.21 327.14 387.95 334.6 380.23 342.22 372.06 349.89 363.43 357.54 354.34 365.08 344.8 372.43 334.83 379.5 324.47 386.22 313.75 392.52 302.72 398.33 291.42 403.62 279.92 410.43 262.38 412.51 256.5" stroke-dasharray="10 9" transform="rotate(48.48, 400, 400)" opacity="0.41" class="home-13"></path><path d="M413.81 266.98C417.03 258.14 427.24 252.26 431.1 256.97Q438.98 268.75 445.29 280.75 449.13 293.61 451.74 307.25 452.92 322.53 453.7 338.96 454.07 347.88 454.57 357.21 455.29 366.95 456.31 377.09 457.71 387.6 459.56 398.46 461.92 409.64 464.84 421.08 468.37 432.75 472.52 444.6 477.31 456.56 482.74 468.58 488.77 480.59 495.39 492.54 502.55 504.35 510.18 515.97 518.21 527.34 526.56 538.39 535.13 549.08 543.84 559.36C550.12 566.47 549.39 572.56 542.49 569.53Q525.5 557.63 508.51 542.2 491.52 527.34 474.52 517.03 457.53 514.02 440.54 519.12 423.55 530.96 406.56 546.38 389.57 561.27 372.57 571.63 355.58 574.72 338.59 569.69 321.6 557.9 304.61 542.49 287.61 527.58 270.62 517.16C263.72 514.91 257.42 507.28 258.85 501.88Q262.66 488.33 266.53 476 275.18 457.63 282.79 445.13 291.07 434.97 300.55 424.29 311.97 412.29 324.42 399.26 331.14 392.08 338.07 384.51 345.15 376.52 352.31 368.13 359.48 359.34 366.6 350.18 373.59 340.65 380.38 330.8 386.92 320.66 393.13 310.26 398.97 299.65 404.39 288.87 411.57 272.47 413.81 266.98" stroke-dasharray="6 10" transform="rotate(52.52, 400, 400)" opacity="0.94" class="home-14"></path><path d="M414.32 277.44C417.78 269.24 427.19 263.7 430.25 268.01Q436.64 278.73 441.28 289.67 444.37 301.14 446.21 313.42 447.24 326.77 447.96 341.38 448.92 357.37 450.65 374.79 453.67 393.6 458.38 413.66 465.07 434.75 473.9 456.59 484.82 478.83 497.67 501.08 512.08 522.94 527.57 544.01C533.3 551.33 532.67 555.76 526.38 551.47Q510.85 538.33 495.33 524.03 479.81 511.84 464.28 504.54 448.76 503.79 433.24 509.78 417.71 521.13 402.19 535.25 386.66 548.91 371.14 559 355.62 563.2 340.09 560.57 324.57 551.7 309.04 538.61 293.52 524.3 277.99 512.04C271.7 508.32 265.8 500.05 267.03 495.86Q270.44 485.08 274.12 475.28 278.4 466.09 283.61 457.1 289.98 447.93 297.7 438.19 306.81 427.58 317.28 415.84 328.93 402.79 341.52 388.35 354.68 372.5 368 355.33 381.04 337 393.35 317.73 404.56 297.78 414.32 277.44 414.32 277.44 414.32 277.44" stroke-dasharray="5 10" transform="rotate(56.56, 400, 400)" opacity="0.12" class="home-15"></path><path d="M414.02 287.89C417.62 280.33 426.24 275.14 428.59 279.06Q433.44 288.77 436.92 298.65 439.22 308.91 440.64 319.8 441.52 331.53 442.26 344.26 443.28 358.12 444.99 373.18 447.77 389.47 451.94 406.93 457.73 425.44 465.27 444.83 474.59 464.88 485.58 485.32 498.02 505.85 511.61 526.16C516.71 533.36 516.08 536.6 510.37 531.76Q496.29 518.86 482.21 506.6 468.13 497.32 454.05 492.83 439.97 493.99 425.89 500.56 411.81 511.3 397.74 524.12 383.66 536.57 369.58 546.24 355.5 551.27 341.42 550.7 327.34 544.64 313.26 534.24 299.18 521.52 285.1 508.92C279.39 504.41 273.97 495.89 275.06 492.62Q278.22 483.98 281.78 475.74 286 467.59 291.1 459.24 297.25 450.38 304.57 440.79 313.09 430.24 322.76 418.59 333.45 405.76 344.96 391.73 357.01 376.53 369.3 360.25 381.49 343.05 393.21 325.11 404.15 306.64 414.02 287.89 414.02 287.89 414.02 287.89" stroke-dasharray="5 7" transform="rotate(60.599999999999994, 400, 400)" opacity="0.08" class="home-16"></path><path d="M412.95 298.31C416.59 291.41 424.41 286.59 426.15 290.11Q429.71 298.86 432.24 307.7 433.95 316.82 435.05 326.41 435.84 336.62 436.61 347.6 437.68 359.48 439.34 372.33 441.88 386.21 445.54 401.11 450.5 416.99 456.88 433.77 464.71 451.32 473.95 469.47 484.5 488.03 496.15 506.78C500.55 513.53 499.83 516.05 494.69 511.31Q482.03 499.88 469.36 490.22 456.69 483.89 444.03 481.89 431.36 484.54 418.7 491.43 406.03 501.44 393.37 512.98 380.7 524.22 368.04 533.35 355.37 538.93 342.7 540.05 330.04 536.55 317.37 528.97 304.71 518.54 292.04 506.91C286.9 502.28 282.04 493.98 283.04 491.3Q289.89 476.49 298.69 460.91 304.59 452.15 311.48 442.59 319.38 432.1 328.24 420.63 337.96 408.13 348.39 394.65 359.32 380.22 370.53 364.95 381.76 348.96 392.75 332.41 403.22 315.47 412.95 298.31 412.95 298.31 412.95 298.31" stroke-dasharray="10 8" transform="rotate(64.64, 400, 400)" opacity="0.40" class="home-17"></path><path d="M411.17 308.73C414.74 302.48 421.74 298.05 422.98 301.2Q427.04 316.93 429.47 333.23 430.2 342.04 431 351.42 432.09 361.48 433.68 372.29 435.99 383.91 439.17 396.37 443.38 409.68 448.69 423.81 455.17 438.7 462.81 454.27 471.54 470.4 481.28 486.97C484.99 493 484.12 495.2 479.54 491.1Q468.26 481.99 456.97 475.2 445.69 471.62 434.4 471.71 423.12 475.46 411.83 482.38 400.55 491.57 389.26 501.85 377.98 511.89 366.69 520.37 355.41 526.21 344.12 528.65 332.84 527.36 321.55 522.53 310.27 514.76 298.98 505.08C294.4 500.89 290.13 493.21 291.09 490.85Q297.83 476.96 306.41 461.68 312.01 452.93 318.43 443.41 325.68 433.07 333.72 421.9 342.47 409.89 351.81 397.1 361.61 383.59 371.7 369.43 381.9 354.75 392.01 339.65 401.83 324.26 411.17 308.73 411.17 308.73 411.17 308.73" stroke-dasharray="3 9" transform="rotate(68.68, 400, 400)" opacity="0.90" class="home-18"></path><path d="M408.77 319.12C412.17 313.53 418.34 309.52 419.19 312.29Q422.05 326.09 423.91 340.24 425.57 355.93 428.03 373.05 430.1 382.61 432.84 392.82 436.35 403.71 440.72 415.28 445.98 427.51 452.15 440.39 459.22 453.85 467.13 467.84C470.18 473.01 469.13 475.16 465.1 472.05Q455.16 465.69 445.22 461.71 435.28 460.52 425.34 462.22 415.4 466.66 405.46 473.38 395.52 481.68 385.58 490.72 375.63 499.56 365.69 507.3 355.75 513.15 345.81 516.5 335.87 517.01 325.93 514.63 315.99 509.61 306.04 502.45C302.02 499.1 298.36 492.39 299.32 490.15Q305.97 476.46 314.27 461.18 319.51 452.48 325.43 443.11 332 433.06 339.2 422.35 346.97 411.01 355.23 399.08 363.89 386.62 372.84 373.69 381.93 360.39 391.05 346.8 404.4 326.06 408.77 319.12" stroke-dasharray="10 11" transform="rotate(72.72, 400, 400)" opacity="0.44" class="home-19"></path><path d="M405.85 329.5C408.98 324.59 414.33 321.01 414.9 323.41Q416.9 335.33 418.4 347.44 420.04 360.54 422.39 374.6 424.21 382.33 426.53 390.51 429.42 399.2 432.94 408.4 437.13 418.13 442 428.39 447.56 439.16 453.79 450.44C456.19 454.62 455.01 456.92 451.5 454.93Q434.24 450.95 416.98 453.39 408.35 458.14 399.72 464.44 391.09 471.78 382.46 479.59 373.83 487.25 365.19 494.17 356.56 499.79 347.93 503.68 330.67 504.1 313.41 498.2C309.9 495.9 306.87 490.35 307.83 488.11Q314.35 474.36 322.26 459.14 327.1 450.62 332.46 441.59 338.32 432.04 344.67 422.01 351.47 411.52 358.66 400.61 366.17 389.34 373.95 377.75 381.89 365.91 389.92 353.88 401.89 335.61 405.85 329.5" stroke-dasharray="8 10" transform="rotate(76.76, 400, 400)" opacity="0.72" class="home-20"></path><path d="M402.55 339.86C405.31 335.63 409.86 332.5 410.23 334.54Q411.72 344.61 412.97 354.81 414.48 365.47 416.75 376.91 420.25 389.44 425.35 403.29 432.32 418.62 441.28 435.53C443.1 438.74 441.83 441.2 438.85 440.3Q424.14 439.62 409.44 445.11 394.73 455.51 380.02 468.45 365.31 480.98 350.61 490.22 335.9 494.08 321.19 491.66C318.21 490.43 315.79 486.12 316.74 483.85Q322.84 470.39 330.42 455.37 339.53 438.82 350.14 420.87 362.08 401.71 375.06 381.62 388.7 360.89 402.55 339.86 402.55 339.86 402.55 339.86" stroke-dasharray="11 5" transform="rotate(80.80000000000001, 400, 400)" opacity="0.80" class="home-21"></path><path d="M399 350.19C401.33 346.65 405.09 343.99 405.34 345.68Q407.78 362.45 411.11 379.91 413.99 389.53 417.94 399.93 423.12 411.26 429.64 423.61C430.96 425.95 429.66 428.47 427.18 428.44Q414.98 430.91 402.78 437.3 390.57 446.59 378.37 457.31 366.17 467.75 353.96 476.23 341.76 481.4 329.55 482.45C327.08 482.13 325.22 478.99 326.14 476.77Q331.9 463.84 338.73 449.83 346.65 434.85 355.61 418.99 365.52 402.42 376.2 385.3 387.44 367.82 399 350.19 399 350.19 399 350.19" stroke-dasharray="2 5" transform="rotate(84.84, 400, 400)" opacity="0.17" class="home-22"></path><path d="M395.36 360.53C397.23 357.67 400.19 355.51 400.38 356.85Q402.53 370.06 405.47 383.53 411.05 398.45 418.85 414.8C419.75 416.42 418.51 418.83 416.54 419.37Q406.8 423.55 397.06 429.87 387.31 437.68 377.57 446.19 367.82 454.51 358.08 461.8 348.33 467.3 338.59 470.45C336.62 470.77 335.27 468.65 336.14 466.6Q341.32 454.91 347.22 442.6 353.82 429.75 361.08 416.45 368.96 402.77 377.37 388.83 390.79 367.62 395.36 360.53" stroke-dasharray="8 3" transform="rotate(88.88, 400, 400)" opacity="0.33" class="home-23"></path><path d="M391.79 370.83C393.16 368.69 395.36 367.04 395.52 368.02Q397.3 377.8 399.83 387.63 403.57 397.88 408.86 408.88C409.42 409.92 408.36 411.99 406.88 412.77Q392.26 422.69 377.64 435.05 363.03 447 348.41 455.83C346.92 456.46 346.03 455.15 346.78 453.44Q355.88 433.84 366.55 413.32 378.62 392.2 391.79 370.83 391.79 370.83 391.79 370.83" stroke-dasharray="2 4" transform="rotate(92.92, 400, 400)" opacity="0.93" class="home-24"></path><path d="M388.43 381.13C389.31 379.68 390.76 378.56 390.89 379.22Q394.47 392.15 399.61 405.27C399.92 405.89 399.12 407.42 398.14 408.11Q388.37 415.68 378.6 423.92 368.83 431.98 359.05 439.05C358.06 439.67 357.55 438.95 358.11 437.71Q364.72 423.85 372.02 409.72 384.19 388.29 388.43 381.13" stroke-dasharray="4 9" transform="rotate(96.96, 400, 400)" opacity="0.58" class="home-25"></path></g></svg>