<?xml version="1.0" encoding="UTF-8"?>
<svg xmlns="http://www.w3.org/2000/svg" version="1.1" xmlns="http://www.w3.org/1999/xlink" xmlns="http://svgjs.dev/svgjs" viewBox="0 0 800 800" width="800" height="800"><defs><linearGradient x1="50%" y1="0%" x2="50%" y2="100%" id="ccchaos-grad"><stop stop-color="hsl(184, 74%, 44%)" stop-opacity="1" offset="0%"></stop><stop stop-color="#a41f67" stop-opacity="1" offset="100%"></stop></linearGradient></defs><g stroke-width="2" stroke="url(#ccchaos-grad)" fill="none" stroke-linecap="round"><path d="M354.74 50.26C360.65 43.02 369.74 41.07 377.43 43.29 385.13 45.36 391.33 51.54 393.12 61.1Q397.02 72.92 402.9 84.64 410.76 96.23 420.47 107.65 431.75 118.88 444.21 129.89 457.36 140.67 470.66 151.2 483.56 161.47 495.49 171.47 505.96 181.19 514.58 190.65 521.07 199.84 525.28 208.78 526.3 225.91 522.26 242.52 514.83 258.61 509 274.63 508.51 282.71 510.15 290.91 514.21 299.27 520.82 307.84 529.94 316.66 541.32 325.76 554.59 335.19 569.22 344.97 584.56 355.13 599.92 365.69 614.59 376.66 627.9 388.05 639.26 399.85 648.2 412.05 654.42 424.64 657.81 437.6 658.45 450.9 656.61 464.49 652.74 478.33 647.46 492.37 641.47 506.56 635.54 520.84 630.46 535.15 626.96 549.43 625.67 563.6 627.09 577.61 631.52 591.4 639.06 604.89 649.59 618.04 662.8 630.79 678.16 643.09 694.99 654.91 712.51 666.21 729.87 676.97 746.22 687.16 760.75 696.79 772.81 705.85 781.87 714.37 788.38 729.61 785.41 743.48C781.28 748.03 770.73 757.15 758.94 766.92 747.1 776.57 734.68 786.33 726.3 791.62Q715.96 796.31 705.63 798.68 695.3 798.58 684.97 796.02 674.63 791.16 664.3 784.33 653.97 775.95 643.64 766.56 633.3 756.79 622.97 747.25 612.64 738.55 602.31 731.27 591.98 725.87 581.64 722.7 571.31 721.96 560.98 723.7 550.65 727.81 540.31 734.03 529.98 741.95 519.65 751.06 509.32 760.77 498.98 770.46 488.65 779.51 478.32 787.32 467.99 793.4 457.65 797.35 447.32 798.92 436.99 798.01 426.66 794.67 416.32 789.12 405.99 781.72 395.66 772.95 385.33 763.37 374.99 753.6 364.66 744.27 354.33 735.98 344 729.27 333.66 724.57 323.33 722.18 313 722.26 302.67 724.8 292.33 729.64 282 736.46 271.67 744.83 261.34 754.21 251 763.98 240.67 773.53 230.34 782.23 220.01 789.53 209.67 794.94 199.34 798.14 189.01 798.89 178.68 797.17 168.34 793.08 158.01 786.88 147.68 778.97 137.35 769.87 127.01 760.16 116.68 750.46 106.35 741.41 96.02 733.59 85.68 727.49 75.35 723.52 65.02 721.93C53.41 721.16 43.41 706.9 47.82 694.1Q54.04 682.08 60.13 670.65 65.98 659.82 71.52 649.59 76.67 639.92 81.38 630.8 85.67 622.2 89.55 614.05 96.38 599.11 102.95 585.07 110.58 571.86 119.68 558.74 125.32 552.07 131.66 545.23 138.64 538.18 146.17 530.85 154.12 523.19 162.32 515.18 170.54 506.78 178.57 497.95 186.19 488.69 193.2 478.98 199.43 468.83 204.77 458.24 209.16 447.21 212.62 435.78 215.23 423.97 217.14 411.81 218.55 399.34 219.73 386.6 220.95 373.64 222.52 360.51 224.69 347.25 227.73 333.92 231.83 320.56 237.11 307.23 243.6 293.97 251.28 280.82 260 267.83 269.55 255.03 279.66 242.46 289.98 230.14 300.18 218.09 309.88 206.33 318.74 194.87 326.49 183.71 332.9 172.85 337.84 162.28 341.29 152 343.33 141.98 344.13 132.2 343.99 122.64 343.23 113.27 342.29 104.05 341.58 94.97 341.54 85.97 342.55 77.04 344.95 68.13 351.85 54.74 354.74 50.26" stroke-dasharray="9 9" transform="rotate(0, 400, 400)" opacity="0.22" class="svg-elem-1"></path><path d="M354.41 60.61C358.8 53.62 366.92 51.8 374.33 54.02 381.75 56.1 388.41 62.18 391.57 71.49Q397.18 83.01 404.64 94.43 413.84 105.73 424.53 116.86 436.38 127.82 448.96 138.58 461.8 149.11 474.38 159.41 486.19 169.45 496.78 179.24 505.75 188.76 512.82 198.02 517.8 207.02 520.66 215.78 519.87 232.54 514.93 248.75 508.02 264.34 503.26 279.79 506.83 295.42 517.17 311.4 526.42 319.71 537.73 328.26 550.74 337.09 564.94 346.24 579.77 355.72 594.57 365.57 608.71 375.79 621.59 386.41 632.65 397.43 641.49 408.84 647.8 420.65 651.47 432.83 652.55 445.36 651.25 458.22 647.97 471.37 643.21 484.78 637.61 498.39 631.85 512.17 626.64 526.06 622.67 539.99 620.56 553.92 620.8 567.79 623.75 581.53 629.59 595.08 638.31 608.39 649.71 621.4 663.42 634.06 678.9 646.33 695.48 658.16 712.44 669.52 728.98 680.37 744.35 690.7 757.86 700.5 768.92 709.75 780.58 726.41 782.96 741.57C780.51 746.5 771.56 755.31 760.76 764.35 749.61 773.2 737.55 781.55 729.28 785.12Q719.07 787.57 708.87 787.72 698.67 785.57 688.47 781.25 678.26 775.02 668.06 767.25 657.86 758.43 647.65 749.08 637.45 739.78 627.25 731.08 617.04 723.53 606.84 717.58 596.64 713.59 586.44 711.79 576.23 712.32 566.03 715.12 555.83 720.03 545.62 726.75 535.42 734.88 525.22 743.91 515.02 753.31 504.81 762.49 494.61 770.9 484.41 778.03 474.2 783.45 464 786.82 453.8 787.94 443.6 786.75 433.39 783.31 423.19 777.84 412.99 770.66 402.79 762.22 392.58 753.02 382.38 743.63 372.18 734.62 361.97 726.53 351.77 719.85 341.57 715 331.37 712.27 321.16 711.82 310.96 713.67 300.76 717.73 290.55 723.74 280.35 731.33 270.15 740.05 259.95 749.36 249.74 758.7 239.54 767.5 229.34 775.23 219.14 781.41 208.93 785.67 198.73 787.75 188.53 787.53 178.32 785.02 168.12 780.36 157.92 773.85 147.72 765.88 137.51 756.93 127.31 747.55 117.11 738.31 106.91 729.77 96.7 722.45 86.5 716.79 76.3 713.14C68.02 711.81 61.71 707.71 58.53 702.26 55.24 697.13 55.06 689.63 59.45 681.7Q65.43 671.18 71.17 661.21 76.6 651.8 81.65 642.9 90.28 626.76 97.72 611.82 103.98 598.38 110.26 585.49 118.02 572.86 127.4 560.02 133.2 553.33 139.66 546.41 146.73 539.2 154.28 531.68 162.19 523.79 170.26 515.52 178.3 506.84 186.1 497.75 193.46 488.22 200.19 478.27 206.14 467.9 211.22 457.12 215.38 445.96 218.65 434.43 221.09 422.58 222.87 410.43 224.17 398.02 225.22 385.41 226.3 372.62 227.68 359.71 229.62 346.72 232.35 333.71 236.06 320.71 240.89 307.77 246.9 294.93 254.05 282.23 262.26 269.71 271.34 257.4 281.07 245.32 291.14 233.49 301.22 221.94 311 210.66 320.13 199.68 328.32 188.99 335.33 178.58 341 168.45 345.24 158.59 348.07 148.97 349.59 139.58 350 130.39 349.59 121.37 348.69 112.5 347.34 95.1 348.04 77.86 352.43 64.93 354.41 60.61" stroke-dasharray="1 3" transform="rotate(3.0606060606060606, 400, 400)" opacity="0.68" class="svg-elem-2"></path><path d="M355.76 70.97C358.7 64.22 365.86 62.53 373.03 64.76 380.19 66.84 387.35 72.8 391.86 81.86Q399.04 93.08 407.82 104.21 418.02 115.21 429.33 126.06 441.37 136.75 453.72 147.24 465.92 157.53 477.51 167.58 488.07 177.4 497.21 186.98 504.65 196.3 510.19 205.37 514.52 222.65 513.67 239.26 507.52 254.92 500.94 270.17 498.61 285.06 501.38 299.96 506.38 307.52 513.61 315.19 522.94 323.03 534.15 331.07 546.87 339.34 560.65 347.88 574.95 356.72 589.21 365.88 602.83 375.39 615.27 385.26 626.04 395.51 634.75 406.14 641.13 417.14 645.06 428.52 646.55 440.26 645.78 452.34 643.06 464.75 638.84 477.45 633.67 490.4 628.14 503.57 622.91 516.91 618.61 530.38 615.82 543.93 615.04 557.5 616.66 571.04 620.91 584.49 627.87 597.8 637.47 610.91 649.43 623.77 663.37 636.34 678.74 648.56 694.93 660.39 711.25 671.8 726.98 682.76 741.46 693.23 754.08 703.2 764.33 712.67 771.84 721.62 776.43 730.05 778.08 737.99C777.52 743.41 770.53 751.87 761.1 760.03 751.08 767.96 739.72 774.76 731.57 776.54Q721.51 776.79 711.45 774.89 701.39 770.95 691.34 765.19 681.28 757.96 671.22 749.65 661.16 740.74 651.11 731.75 641.05 723.19 630.99 715.54 620.93 709.25 610.87 704.67 600.82 702.07 590.76 701.59 580.7 703.26 570.64 706.99 560.59 712.56 550.53 719.66 540.47 727.88 530.41 736.74 520.36 745.75 510.3 754.38 500.24 762.15 490.18 768.61 480.12 773.38 470.07 776.21 460.01 776.91 449.95 775.47 439.89 771.95 429.84 766.56 419.78 759.61 409.72 751.49 399.66 742.67 389.61 733.65 379.55 724.96 369.49 717.07 359.43 710.46 349.38 705.49 339.32 702.45 329.26 701.51 319.2 702.73 309.14 706.03 299.09 711.23 289.03 718.04 278.97 726.05 268.91 734.82 258.86 743.84 248.8 752.59 238.74 760.59 228.68 767.36 218.63 772.52 208.57 775.78 198.51 776.94 188.45 775.96 178.4 772.87 168.34 767.86 158.28 761.21 148.22 753.3 138.17 744.59 128.11 735.57 118.05 726.76 107.99 718.67 97.94 711.75 87.88 706.4C79.72 703.43 73.52 697.95 70.38 691.81 67.12 685.98 66.89 678.54 71.08 671.66Q76.7 662.56 82 653.96 91.24 638.31 99.24 623.83 105.56 610.81 111.42 598.34 117.8 586.21 125.3 573.93 129.98 567.57 135.29 561.01 141.25 554.19 147.82 547.09 154.95 539.66 162.5 531.88 170.33 523.72 178.26 515.16 186.1 506.21 193.65 496.84 200.73 487.07 207.17 476.9 212.85 466.35 217.67 455.43 221.6 444.17 224.68 432.61 226.97 420.76 228.61 408.68 229.8 396.39 230.74 383.94 231.69 371.38 232.89 358.74 234.59 346.07 237.03 333.41 240.37 320.8 244.77 308.29 250.28 295.9 256.91 283.67 264.59 271.64 273.18 259.82 282.47 248.23 292.21 236.91 302.12 225.85 311.88 215.06 321.17 204.56 329.72 194.33 337.26 184.37 343.6 174.68 348.61 165.23 352.25 156.01 354.57 147 355.68 138.18 354.98 121.03 353.13 104.2 354.35 79.28 355.76 70.97" stroke-dasharray="4 0" transform="rotate(6.121212121212121, 400, 400)" opacity="0.73" class="svg-elem-3"></path><path d="M358.73 81.32C360.35 74.82 366.65 73.25 373.6 75.48 380.55 77.57 388.2 83.41 393.94 92.23Q402.42 103.14 412.21 113.96 423.04 124.67 434.58 135.24 446.45 145.65 458.23 155.88 469.51 165.91 479.91 175.73 489.07 185.32 496.71 194.68 502.63 203.8 506.73 212.68 508.84 229.61 506.55 245.86 500.36 261.15 494.43 276 493.33 290.39 497.26 304.7 502.67 311.9 510.13 319.19 519.51 326.6 530.58 334.16 543 341.91 556.34 349.89 570.13 358.13 583.84 366.64 596.94 375.47 608.95 384.62 619.42 394.12 628 403.97 634.43 414.18 638.58 424.75 640.45 435.68 640.18 446.96 638.02 458.58 634.35 470.51 629.64 482.73 624.41 495.21 619.26 507.91 614.74 520.8 611.42 533.83 609.78 546.97 610.22 560.15 613.01 573.34 618.31 586.48 626.12 599.53 636.3 612.42 648.56 625.12 662.51 637.57 677.62 649.72 693.32 661.55 708.97 673 723.94 684.04 737.63 694.65 749.5 704.81 759.12 714.49 766.18 723.69 770.5 732.39C771.91 738.36 767.1 746.43 759.29 753.63 750.75 760.57 740.37 765.78 732.35 765.79Q722.47 764 712.58 760.31 702.69 754.92 692.81 748.12 682.92 740.27 673.03 731.8 663.15 723.16 653.26 714.81 643.37 707.2 633.49 700.74 623.6 695.78 613.71 692.58 603.83 691.32 593.94 692.06 584.05 694.76 574.17 699.28 564.28 705.37 554.39 712.71 544.51 720.91 534.62 729.52 524.73 738.08 514.85 746.14 504.96 753.25 495.08 759.04 485.19 763.2 475.3 765.51 465.42 765.83 455.53 764.16 445.64 760.58 435.76 755.29 425.87 748.56 415.98 740.76 406.1 732.32 396.21 723.67 386.32 715.29 376.44 707.63 366.55 701.09 356.66 696.03 346.78 692.72 336.89 691.34 327 691.96 317.12 694.54 307.23 698.96 297.34 704.97 287.46 712.25 277.57 720.41 267.68 729 257.8 737.58 247.91 745.68 238.02 752.86 228.14 758.74 218.25 763.01 208.36 765.43 198.48 765.87 188.59 764.31 178.7 760.84 168.82 755.64 158.93 748.99 149.04 741.25 139.15 732.83 129.27 724.18 119.38 715.77 109.49 708.05 99.61 701.44C91.59 697.13 85.45 690.49 82.31 683.74 79.02 677.27 78.65 669.87 82.56 663.97Q92.31 648.92 100.87 634.98 107.51 622.43 113.35 610.42 118.89 598.76 125.03 587 133.31 574.58 143.35 561.49 149.46 554.46 156.13 547.1 163.29 539.4 170.81 531.33 178.53 522.88 186.3 514.04 193.91 504.81 201.2 495.2 207.99 485.21 214.14 474.87 219.54 464.18 224.1 453.17 227.81 441.88 230.7 430.33 232.84 418.55 234.36 406.59 235.44 394.48 236.27 382.26 237.09 369.96 238.13 357.64 239.61 345.33 241.76 333.06 244.75 320.88 248.72 308.81 253.75 296.9 259.86 285.16 266.99 273.62 275.06 262.3 283.88 251.22 293.24 240.4 302.89 229.84 312.54 219.54 321.9 209.51 330.7 199.74 338.67 190.23 345.61 180.96 351.35 171.92 355.8 163.1 360.29 146.07 361.53 129.48 359.69 113.36 357.87 97.36 358.27 85.34 358.73 81.32" stroke-dasharray="1 4" transform="rotate(9.181818181818182, 400, 400)" opacity="0.91" class="svg-elem-4"></path><path d="M363.18 91.7C363.71 85.45 369.25 83.99 376.02 86.21 382.79 88.3 390.87 94.02 397.61 102.59Q407.07 113.19 417.49 123.71 428.57 134.12 439.96 144.4 451.3 154.53 462.22 164.49 472.37 174.27 481.42 183.85 489.11 193.22 495.24 202.36 499.7 211.28 502.47 219.96 502.68 236.53 499.28 252.44 493.29 267.39 488.16 281.85 488.28 295.78 493.32 309.56 499.08 316.45 506.73 323.38 516.12 330.39 527.03 337.52 539.13 344.8 552.03 352.26 565.3 359.93 578.47 367.84 591.07 376.02 602.64 384.49 612.81 393.27 621.24 402.37 627.69 411.8 632.04 421.58 634.26 431.7 634.46 442.17 632.84 452.97 629.72 464.09 625.5 475.52 620.63 487.24 615.64 499.22 611.03 511.43 607.32 523.84 604.98 536.42 604.39 549.12 605.87 561.89 609.63 574.71 615.72 587.51 624.12 600.26 634.64 612.91 646.98 625.4 660.76 637.71 675.5 649.77 690.64 661.56 705.64 673.03 719.91 684.15 732.92 694.88 744.2 705.21 753.37 715.1 760.14 724.55C765.42 737.34 746.65 754.92 730.94 752.92Q721.26 749.36 711.57 744.22 701.89 737.77 692.21 730.32 682.53 722.25 672.85 713.97 663.17 705.9 653.48 698.43 643.8 691.95 634.12 686.78 624.44 683.17 614.76 681.32 605.07 681.32 595.39 683.16 585.71 686.75 576.03 691.92 566.35 698.4 556.67 705.86 546.98 713.93 537.3 722.21 527.62 730.28 517.94 737.74 508.26 744.2 498.57 749.34 488.89 752.91 479.21 754.72 469.53 754.69 459.85 752.82 450.17 749.19 440.48 744 430.8 737.5 421.12 730.02 411.44 721.94 401.76 713.66 392.08 705.6 382.39 698.16 372.71 691.72 363.03 686.61 353.35 683.07 343.67 681.29 333.99 681.36 324.3 683.27 314.62 686.92 304.94 692.14 295.26 698.67 285.58 706.16 275.9 714.25 266.21 722.53 256.53 730.58 246.85 738 237.17 744.42 227.49 749.51 217.81 753.01 208.12 754.76 198.44 754.65 188.76 752.71 179.08 749.02 169.4 743.77 159.72 737.23 150.04 729.72 140.35 721.62 130.67 713.34 120.99 705.3 111.31 697.9C95.6 688.18 86.46 668.75 93.76 658.45Q102.41 645.42 109.87 633.18 115.65 621.77 120.88 610.56 126.31 599.22 132.57 587.52 141.2 574.8 151.61 561.28 157.84 553.97 164.59 546.33 171.75 538.32 179.2 529.95 186.8 521.21 194.36 512.1 201.74 502.64 208.75 492.82 215.25 482.66 221.1 472.19 226.21 461.42 230.51 450.39 234 439.12 236.71 427.65 238.7 416 240.11 404.22 241.08 392.34 241.82 380.39 242.51 368.42 243.39 356.46 244.67 344.54 246.55 332.7 249.21 320.97 252.76 309.38 257.31 297.95 262.9 286.71 269.49 275.68 277 264.88 285.32 254.31 294.24 243.99 303.56 233.92 313.02 224.1 322.35 214.54 331.3 205.23 339.6 196.16 347.04 187.31 353.43 178.68 358.66 170.24 364.81 153.93 367.54 138.02 366.27 122.53 364.14 107.14 363.26 95.57 363.18 91.7" stroke-dasharray="3 7" transform="rotate(12.242424242424242, 400, 400)" opacity="0.32" class="svg-elem-5"></path><path d="M368.87 102.09C368.77 90.01 388.32 96.28 402.6 112.94Q412.66 123.23 423.31 133.44 434.24 143.55 445.13 153.54 455.64 163.39 465.46 173.09 474.3 182.61 481.91 191.94 488.11 201.08 492.78 210 496.76 227.09 496.58 243.52 491.78 258.89 486.13 273.68 482.72 287.65 482.66 301.26 490.42 314.51 503.4 327.72 512.77 334.38 523.48 341.12 535.24 347.96 547.7 354.95 560.45 362.1 573.09 369.46 585.18 377.04 596.33 384.86 606.19 392.96 614.45 401.34 620.91 410.03 625.43 419.03 627.97 428.35 628.62 438 627.52 447.98 624.95 458.28 621.23 468.89 616.77 479.8 612.02 491 607.42 502.46 603.46 514.16 600.56 526.07 599.12 538.15 599.45 550.38 601.79 562.72 606.28 575.13 612.94 587.56 621.69 599.98 632.33 612.34 644.59 624.61 658.08 636.73 672.35 648.67 686.92 660.38 701.29 671.84 714.93 683 727.37 693.83 738.2 704.3 747.07 714.39C755.91 728.2 742.11 743.07 726.8 738.13Q717.36 733.15 707.92 726.96 698.48 719.85 689.04 712.16 679.61 704.24 670.17 696.47 660.73 689.22 651.29 682.82 641.85 677.58 632.42 673.74 622.98 671.48 613.54 670.91 604.1 672.06 594.66 674.87 585.23 679.21 575.79 684.87 566.35 691.6 556.91 699.06 547.48 706.92 538.04 714.81 528.6 722.34 519.16 729.18 509.72 734.99 500.29 739.5 490.85 742.51 481.41 743.87 471.97 743.51 462.54 741.46 453.1 737.81 443.66 732.73 434.22 726.46 424.78 719.29 415.35 711.57 405.91 703.65 396.47 695.91 387.03 688.71 377.6 682.38 368.16 677.24 358.72 673.51 349.28 671.38 339.84 670.94 330.41 672.21 320.97 675.14 311.53 679.59 302.09 685.34 292.66 692.13 283.22 699.64 273.78 707.52 264.34 715.39 254.91 722.88 245.47 729.65 236.03 735.37 226.59 739.78 217.15 742.67 207.72 743.9 198.28 743.42 188.84 741.24 179.4 737.48 169.97 732.3 160.53 725.95 151.09 718.73 141.65 710.98 132.22 703.06 122.78 695.35C107.47 684.19 98.05 663.66 104.56 654.79Q112.07 643.32 118.46 632.3 123.52 621.59 128.32 610.79 133.77 599.42 140.27 587.49 149.3 574.31 160.06 560.22 166.4 552.6 173.19 544.64 180.33 536.34 187.69 527.68 195.12 518.68 202.47 509.34 209.58 499.67 216.3 489.69 222.49 479.43 228.04 468.89 232.87 458.11 236.92 447.12 240.19 435.94 242.72 424.6 244.57 413.15 245.87 401.6 246.74 390.01 247.38 378.39 247.96 366.78 248.7 355.22 249.79 343.73 251.41 332.35 253.74 321.09 256.9 310 260.99 299.07 266.05 288.35 272.09 277.83 279.05 267.54 286.82 257.48 295.27 247.66 304.19 238.09 313.37 228.76 322.58 219.66 331.56 210.8 340.08 202.15 347.91 193.72 354.87 185.49 360.79 177.43 368.62 161.84 373 146.6 372.76 131.72 370.93 116.93 369.31 105.81 368.87 102.09" stroke-dasharray="9 0" transform="rotate(15.303030303030303, 400, 400)" opacity="0.98" class="svg-elem-6"></path><path d="M375.47 112.5C374.1 100.89 393.22 107.13 408.53 123.28Q418.78 133.25 429.27 143.16 439.69 152.97 449.76 162.67 459.2 172.24 467.74 181.66 475.16 190.92 481.3 200 486.05 208.9 489.35 217.61 491.18 234.3 489.55 250.37 484.53 265.41 479.31 279.87 477 293.5 478.13 306.74 486.74 319.53 500.15 332.21 509.45 338.55 519.94 344.93 531.35 351.39 543.36 357.95 555.6 364.63 567.71 371.47 579.3 378.5 590.03 385.73 599.57 393.19 607.66 400.9 614.1 408.88 618.76 417.14 621.59 425.69 622.65 434.54 622.05 443.71 620.02 453.18 616.82 462.96 612.81 473.04 608.35 483.41 603.87 494.06 599.78 504.97 596.48 516.13 594.34 527.51 593.69 539.08 594.79 550.81 597.79 562.67 602.81 574.63 609.81 586.66 618.71 598.71 629.31 610.74 641.33 622.73 654.43 634.62 668.19 646.39 682.19 657.99 695.95 669.38 709.04 680.54 721.02 691.42 731.52 702C743.42 716.65 734.44 729.01 719.59 721.69Q701.29 708.86 682.98 693.94 664.68 679.52 646.37 668.1 628.07 661.66 609.77 661.31 591.46 667.12 573.16 678.07 554.85 692.28 536.55 707.27 518.24 720.45 499.94 729.53 481.63 732.94 463.33 730.08 445.03 721.46 426.72 708.57 408.42 693.63 390.11 679.25 371.81 667.91 353.5 661.59 335.2 661.37 316.89 667.3 298.59 678.34 280.29 692.59 261.98 707.57 243.68 720.69 225.37 729.66 207.07 732.94 188.76 729.96 170.46 721.23 152.15 708.27 133.85 693.32C119 681.52 109.2 660.37 114.85 652.58Q121.24 642.18 126.66 631.92 131.18 621.48 135.72 610.72 141.35 599.05 148.19 586.68 152.48 580.02 157.34 573.06 162.76 565.78 168.71 558.18 175.13 550.25 181.93 541.99 189.01 533.41 196.24 524.5 203.48 515.27 210.59 505.75 217.42 495.94 223.83 485.87 229.71 475.56 234.96 465.02 239.5 454.3 243.31 443.41 246.37 432.39 248.73 421.26 250.44 410.05 251.63 398.8 252.41 387.54 252.96 376.3 253.44 365.1 254.04 353.97 254.95 342.95 256.33 332.04 258.35 321.29 261.13 310.7 264.77 300.3 269.33 290.09 274.82 280.09 281.21 270.32 288.42 260.77 296.34 251.45 304.8 242.37 313.63 233.51 322.62 224.87 331.53 216.45 340.15 208.23 348.27 200.21 355.68 192.36 362.21 184.68 371.64 169.78 377.76 155.2 378.91 140.94 377.92 126.75 376.08 116.07 375.47 112.5" stroke-dasharray="5 7" transform="rotate(18.363636363636363, 400, 400)" opacity="0.29" class="svg-elem-7"></path><path d="M382.57 122.9C380.57 111.77 399.3 117.97 414.98 133.6Q425.03 143.26 434.98 152.85 444.58 162.36 453.58 171.76 461.75 181.04 468.9 190.19 474.87 199.19 479.57 208.03 484.38 225.07 485.51 241.56 482.07 257.05 477.28 271.96 473.1 285.93 470.98 299.4 474.58 312.17 482.47 324.64 489.01 330.74 496.95 336.81 506.15 342.86 516.4 348.93 527.45 355.04 539 361.21 550.73 367.47 562.31 373.85 573.42 380.38 583.72 387.06 592.94 393.94 600.85 401.03 611.18 416.03 616.55 431.81 616.43 440.18 614.92 448.84 612.25 457.79 608.71 467.03 604.61 476.56 600.33 486.37 596.22 496.46 592.67 506.8 590 517.39 588.54 528.21 588.55 539.23 590.23 550.43 593.72 561.78 599.05 573.26 606.22 584.83 615.09 596.46 625.5 608.12 637.17 619.78 649.8 631.39 663.02 642.92 676.44 654.35 689.65 665.62 702.25 676.72 713.86 687.6C728.16 702.83 723.56 713.01 709.24 703.96Q691.58 690.32 673.93 676.02 656.28 663.36 638.62 654.4 620.97 650.56 603.32 652.48 585.67 659.85 568.01 671.47 550.36 685.47 532.71 699.59 515.05 711.55 497.4 719.42 479.75 721.94 462.09 718.69 444.44 710.2 426.79 697.84 409.13 683.6 391.48 669.79 373.83 658.62 356.17 651.91 338.52 650.74 320.87 655.29 303.21 664.83 285.56 677.82 267.91 692.17 250.25 705.56 232.6 715.82 214.95 721.31 197.29 721.13 179.64 715.32 161.99 704.81 144.33 691.3C130.01 679.62 119.81 658.4 124.59 651.31Q133.27 633.96 138.66 621.13 143.33 609.89 148.87 597.97 156.62 584.73 165.93 570.6 171.51 563 177.56 555.08 184.02 546.86 190.8 538.33 197.79 529.5 204.86 520.39 211.88 511.01 218.72 501.36 225.26 491.49 231.36 481.39 236.92 471.1 241.86 460.65 246.13 450.05 249.69 439.33 252.54 428.53 254.73 417.66 256.31 406.77 257.39 395.87 258.09 384.99 258.55 374.16 258.94 363.41 259.42 352.75 260.16 342.21 261.31 331.81 263.04 321.57 265.46 311.51 268.67 301.63 272.73 291.95 277.68 282.48 283.5 273.22 290.13 264.18 297.49 255.35 305.45 246.75 313.86 238.35 322.53 230.17 331.27 222.18 339.88 214.38 348.15 206.75 355.88 199.29 362.91 191.98 373.8 177.76 381.63 163.83 384.43 150.18 384.72 136.57 383.18 126.33 382.57 122.9" stroke-dasharray="3 8" transform="rotate(21.424242424242426, 400, 400)" opacity="0.18" class="svg-elem-8"></path><path d="M389.77 133.32C387.76 122.66 406.11 128.81 421.5 143.92Q430.97 153.26 440.07 162.54 448.59 171.74 456.33 180.85 463.13 189.84 468.84 198.71 473.39 207.44 476.72 216.02 479.29 232.6 478.77 248.66 474.81 263.79 470.14 278.36 466.85 292.02 465.86 305.19 470.5 317.64 479.16 329.74 485.87 335.64 493.83 341.48 502.89 347.29 512.88 353.08 523.54 358.88 534.63 364.71 545.86 370.6 556.92 376.56 567.54 382.64 577.42 388.83 586.33 395.18 594.03 401.69 604.46 415.41 610.34 429.8 609.09 445.43 604.46 461.86 600.77 470.55 596.76 479.51 592.75 488.75 589.06 498.25 586.02 508 583.93 518 583.03 528.23 583.56 538.67 585.66 549.3 589.44 560.1 594.92 571.06 602.07 582.13 610.78 593.29 620.87 604.52 632.11 615.79 644.21 627.06 656.87 638.3 669.71 649.48 682.4 660.57 694.57 671.54C710.49 687.05 709.6 695.45 695.87 685.38Q678.94 671.76 662.01 658.71 645.08 648.19 628.14 641.78 611.21 640.44 594.28 644.37 577.35 652.98 560.42 664.98 543.49 678.58 526.56 691.73 509.63 702.46 492.7 709.18 475.77 710.86 458.84 707.27 441.91 698.93 424.98 687.1 408.05 673.55 391.12 660.31 374.19 649.36 357.26 642.35 340.33 640.32 323.4 643.57 306.46 651.63 289.53 663.28 272.6 676.77 255.67 690.1 238.74 701.25 221.81 708.57 204.88 710.94 187.95 708.03 171.02 700.26 154.09 688.8C140.36 677.96 129.79 657.17 133.74 650.43Q141.14 633.12 146.09 619.98 150.94 608.21 156.85 595.68 165.05 581.76 174.77 566.97 180.49 559.07 186.61 550.87 193.08 542.4 199.79 533.65 206.65 524.65 213.52 515.4 220.3 505.93 226.86 496.24 233.08 486.37 238.86 476.32 244.1 466.14 248.74 455.83 252.73 445.43 256.05 434.96 258.7 424.44 260.72 413.9 262.18 403.37 263.16 392.86 263.78 382.41 264.16 372.04 264.46 361.76 264.83 351.6 265.41 341.57 266.36 331.69 267.81 321.98 269.89 312.45 272.68 303.1 276.27 293.95 280.68 285 285.93 276.25 291.97 267.71 298.75 259.38 306.16 251.25 314.09 243.31 322.37 235.57 330.83 228 339.31 220.61 347.6 213.38 355.53 206.29 362.93 199.33 375.08 185.79 384.53 172.5 389.13 159.44 391.02 146.42 390.21 136.61 389.77 133.32" stroke-dasharray="3 5" transform="rotate(24.484848484848484, 400, 400)" opacity="0.70" class="svg-elem-9"></path><path d="M396.64 143.76C395.18 133.55 413.12 139.63 427.63 154.22Q444.2 172.21 457.83 189.91 467.5 207.19 472.78 223.98 473.89 240.17 471.67 255.71 467.53 270.56 463.21 284.69 460.5 298.14 461.05 310.93 466.04 323.13 476 334.85 490.74 346.2 509.34 357.33 530.25 368.4 551.52 379.56 571.12 390.99 587.19 402.86 598.37 415.32 603.99 428.52 604.22 442.58 600.03 457.57 593.12 473.57 585.6 490.6 579.77 508.64 577.69 527.63 580.95 547.49 590.34 568.09 605.74 589.26 626.13 610.82 649.72 632.56 674.19 654.25C690.93 669.71 692.89 676.8 679.8 666.42Q663.65 653.55 647.5 642.27 631.35 634.15 615.2 630.3 599.06 631.26 582.91 636.91 566.76 646.45 550.61 658.56 534.46 671.57 518.32 683.67 502.17 693.19 486.02 698.79 469.87 699.72 453.72 695.83 437.58 687.67 421.43 676.37 405.28 663.5 389.13 650.84 372.98 640.14 356.84 632.89 340.69 630.09 324.54 632.14 308.39 638.74 292.25 648.99 276.1 661.46 259.95 674.42 243.8 686.07 227.65 694.81 211.51 699.42 195.36 699.26 179.21 694.35 163.06 685.37C149.97 675.95 139.12 656.06 142.33 649.35Q146.13 639.57 149.66 629.09 153.59 617.76 158.57 605.45 165.12 592.1 173.54 577.66 183.88 562.12 195.86 545.54 208.9 527.99 222.24 509.58 235 490.44 246.34 470.74 255.6 450.65 262.39 430.35 266.71 410.02 268.93 389.84 269.79 369.97 270.27 350.55 271.46 331.71 274.42 313.54 279.96 296.1 288.53 279.43 300.16 263.53 314.38 248.38 330.3 233.92 346.72 220.07 362.34 206.75 375.89 193.83 386.38 181.2 393.26 168.73 396.57 150.02 396.64 143.76" stroke-dasharray="3 5" transform="rotate(27.545454545454543, 400, 400)" opacity="0.40" class="svg-elem-10"></path><path d="M402.76 154.2C402.31 144.46 419.83 150.46 432.91 164.51Q447.07 181.86 457.93 198.94 464.88 215.64 467.86 231.89 467.36 247.59 464.35 262.69 460.23 277.15 456.55 290.95 454.9 304.08 456.58 316.59 462.49 328.51 472.97 339.92 487.71 350.94 505.8 361.66 525.84 372.23 546.11 382.79 564.82 393.49 580.34 404.48 591.46 415.92 597.53 427.94 598.6 440.66 595.42 454.19 589.36 468.61 582.21 483.97 575.97 500.29 572.57 517.55 573.56 535.71 579.94 554.7 591.97 574.4 609.14 594.67 630.21 615.36 653.34 636.27C670.08 651.35 673.98 657.6 661.55 647.57Q646.23 636.1 630.9 626.97 615.58 621.34 600.26 619.95 584.94 622.97 569.61 630 554.29 640.16 538.97 652.14 523.65 664.41 508.32 675.4 493 683.71 477.68 688.28 462.36 688.51 447.03 684.38 431.71 676.42 416.39 665.65 401.06 653.44 385.74 641.35 370.42 630.94 355.1 623.52 339.77 620.06 324.45 620.99 309.13 626.2 293.8 635.01 278.48 646.3 263.16 658.64 247.84 670.43 232.51 680.17 217.19 686.62 201.87 688.95 186.54 686.87 171.22 680.63C158.79 673.06 147.83 654.5 150.44 647.55Q153.72 637.29 157.13 626.2 161.26 614.18 166.67 601.17 173.73 587.13 182.62 572.08 193.26 556.06 205.28 539.14 218.1 521.41 230.98 503.01 243.13 484.06 253.8 464.74 262.43 445.2 268.72 425.6 272.7 406.1 274.71 386.86 275.43 368 275.74 349.64 276.63 331.88 279.06 314.79 283.79 298.41 291.32 282.75 301.75 267.81 314.78 253.55 329.73 239.92 345.59 226.83 361.21 214.21 375.41 201.95 387.17 189.93 395.76 178.04 401.83 160.18 402.76 154.2" stroke-dasharray="9 1" transform="rotate(30.606060606060606, 400, 400)" opacity="0.21" class="svg-elem-11"></path><path d="M407.79 164.66C408.69 155.37 425.71 161.27 436.97 174.8Q448.47 191.5 456.57 207.95 461.03 224.07 462.07 239.76 460.35 254.97 456.92 269.63 453.09 283.69 450.23 297.13 449.66 309.95 452.43 322.17 459.18 333.82 470.07 344.95 484.72 355.66 502.26 366.03 521.42 376.17 540.7 386.21 558.53 396.27 573.49 406.51 584.5 417.04 590.94 428.01 592.79 439.53 590.59 451.71 585.44 464.65 578.83 478.42 572.46 493.05 568.08 508.58 567.18 525 570.87 542.26 579.69 560.31 593.52 579.06 611.61 598.38 632.65 618.13C648.65 632.53 653.51 638.39 641.77 629.3Q627.3 619.71 612.82 612.96 598.35 609.84 583.88 610.7 569.4 615.47 554.93 623.56 540.46 634.03 525.98 645.66 511.51 657.06 497.04 666.91 482.56 674.05 468.09 677.63 453.62 677.24 439.14 672.92 424.67 665.17 410.2 654.92 395.72 643.36 381.25 631.86 366.78 621.76 352.3 614.25 337.83 610.22 323.35 610.14 308.88 614.01 294.41 621.39 279.93 631.41 265.46 642.88 250.99 654.47 236.51 664.8 222.04 672.66 207.56 677.14 193.09 677.69 178.62 674.27C166.87 668.83 155.99 651.89 158.18 644.54Q161.21 633.62 164.71 621.81 169.21 609.06 175.13 595.36 182.72 580.72 192.04 565.19 202.89 548.83 214.86 531.74 227.38 514.02 239.74 495.8 251.23 477.23 261.22 458.44 269.23 439.59 275.03 420.8 278.67 402.23 280.49 383.99 281.09 366.19 281.25 348.92 281.87 332.26 283.8 316.24 287.78 300.9 294.3 286.23 303.54 272.23 315.35 258.84 329.2 246.02 344.3 233.68 359.65 221.74 374.19 210.12 386.91 198.7 397.02 187.38 405.9 170.36 407.79 164.66" stroke-dasharray="6 8" transform="rotate(33.666666666666664, 400, 400)" opacity="0.37" class="svg-elem-12"></path><path d="M411.41 175.13C413.85 166.28 430.34 172.08 439.52 185.07Q448.29 201.12 453.79 216.94 456.07 232.46 455.56 247.6 453.04 262.3 449.53 276.49 446.22 290.15 444.3 303.23 444.83 315.73 448.62 327.66 456.09 339.04 467.28 349.91 481.76 360.33 498.71 370.39 516.99 380.16 535.28 389.75 552.24 399.28 566.62 408.86 577.48 418.62 584.23 428.66 586.79 439.12 585.54 450.09 581.33 461.68 575.38 473.96 569.14 487 564.12 500.85 561.73 515.52 563.1 531.02 568.94 547.32 579.47 564.37 594.34 582.09 612.69 600.4C627.34 613.87 632.26 619.72 621.21 612.03Q607.59 604.67 593.97 600.38 580.35 599.63 566.73 602.49 553.11 608.66 539.49 617.47 525.87 627.98 512.25 639.05 498.63 649.49 485.01 658.18 471.39 664.19 457.77 666.86 444.15 665.9 430.53 661.43 416.91 653.92 403.29 644.19 389.67 633.27 376.05 622.34 362.43 612.59 348.81 605.05 335.19 600.55 321.57 599.57 307.95 602.2 294.33 608.17 280.71 616.84 267.09 627.27 253.47 638.35 239.85 648.86 226.23 657.7 212.61 663.9 198.99 666.79 185.37 666.07C174.32 662.88 163.75 647.78 165.72 639.92Q168.74 628.25 172.54 615.7 177.53 602.27 184.02 587.99 192.13 572.89 201.79 557.04 212.76 540.53 224.59 523.45 236.72 505.93 248.5 488.09 259.31 470.05 268.61 451.94 276.01 433.9 281.33 416.03 284.65 398.46 286.28 381.28 286.77 364.58 286.8 348.42 287.16 332.85 288.65 317.9 291.92 303.58 297.48 289.89 305.57 276.79 316.12 264.25 328.78 252.21 342.93 240.6 357.76 229.33 372.32 218.33 385.67 207.5 397 196.74 408.55 180.56 411.41 175.13" stroke-dasharray="4 3" transform="rotate(36.72727272727273, 400, 400)" opacity="0.35" class="svg-elem-13"></path><path d="M413.44 185.61C417.49 177.21 433.34 182.88 440.36 195.34Q446.49 210.73 449.66 225.91 450.16 240.82 448.53 255.4 445.58 269.57 442.3 283.29 439.71 296.52 438.8 309.23 440.41 321.4 445.13 333.03 453.23 344.14 464.61 354.76 478.84 364.92 495.15 374.7 512.54 384.15 529.86 393.37 545.95 402.44 559.75 411.47 570.41 420.56 577.41 429.82 580.61 439.35 580.25 449.26 577 459.64 571.82 470.58 565.91 482.15 560.57 494.41 557.08 507.4 556.53 521.16 559.75 535.67 567.15 550.94 578.71 566.93 593.99 583.57C606.81 595.92 610.99 602.08 600.63 596.11Q587.85 591.15 575.07 589.28 562.29 590.67 549.51 595.21 536.73 602.43 523.95 611.63 511.17 621.91 498.39 632.27 485.61 641.67 472.84 649.2 460.06 654.13 447.28 655.96 434.5 654.52 421.72 649.94 408.94 642.69 396.16 633.46 383.38 623.17 370.6 612.83 357.82 603.44 345.04 595.94 332.26 591.06 319.48 589.27 306.7 590.76 293.92 595.37 281.14 602.66 268.36 611.91 255.58 622.21 242.8 632.54 230.03 641.91 217.25 649.38 204.47 654.22 191.69 655.96C181.32 654.97 171.29 641.81 173.23 633.39Q176.49 620.99 180.75 607.78 186.32 593.8 193.38 579.09 201.95 563.71 211.88 547.74 222.86 531.28 234.44 514.43 246.09 497.31 257.24 480.01 267.35 462.66 275.95 445.37 282.75 428.24 287.61 411.38 290.62 394.87 292.07 378.79 292.45 363.21 292.37 348.15 292.52 333.67 293.59 319.78 296.22 306.46 300.88 293.72 307.84 281.5 317.13 269.78 328.54 258.5 341.6 247.59 355.66 236.97 369.93 226.58 383.57 216.33 395.78 206.13 409.66 190.76 413.44 185.61" stroke-dasharray="1 5" transform="rotate(39.78787878787879, 400, 400)" opacity="0.84" class="svg-elem-14"></path><path d="M413.77 196.09C419.35 188.14 434.48 193.67 439.4 205.58Q443.12 220.31 444.34 234.85 443.48 249.15 441.16 263.14 438.16 276.78 435.36 290.02 433.63 302.81 433.77 315.12 436.42 326.95 441.97 338.28 450.56 349.12 462.03 359.48 475.94 369.4 491.57 378.92 508.07 388.1 524.43 396.99 539.67 405.69 552.86 414.26 563.29 422.8 570.47 431.39 574.23 440.14 574.72 449.13 572.41 458.46 568.07 468.21 562.67 478.45 557.31 489.26 553.09 500.69 551.06 512.78 552.04 525.57 556.6 539.05 564.96 553.24 577 568.1C587.66 579.19 590.48 585.89 580.76 581.82Q568.8 579.26 556.83 579.63 544.86 582.87 532.89 588.72 520.93 596.63 508.96 605.92 496.99 615.75 485.03 625.24 473.06 633.56 461.09 639.96 449.12 643.86 437.16 644.93 425.19 643.06 413.22 638.43 401.25 631.44 389.29 622.72 377.32 613.05 365.35 603.28 353.38 594.29 341.42 586.88 329.45 581.71 317.48 579.23 305.51 579.68 293.55 583.01 281.58 588.92 269.61 596.89 257.64 606.2 245.68 616.03 233.71 625.51 221.74 633.78 209.77 640.11 197.8 643.93C188.09 644.95 178.82 633.73 180.94 624.81Q184.63 611.78 189.47 598.07 195.66 583.71 203.25 568.77 212.2 553.32 222.27 537.46 233.15 521.27 244.38 504.85 255.49 488.29 265.96 471.71 275.34 455.19 283.25 438.83 289.46 422.72 293.87 406.93 296.58 391.52 297.87 376.57 298.16 362.1 297.97 348.16 297.93 334.75 298.65 321.88 300.69 309.54 304.5 297.71 310.39 286.36 318.45 275.43 328.56 264.88 340.42 254.65 353.51 244.67 367.2 234.87 380.76 225.18 393.47 215.54 409.21 200.98 413.77 196.09" stroke-dasharray="5 9" transform="rotate(42.84848484848485, 400, 400)" opacity="0.37" class="svg-elem-15"></path><path d="M412.41 206.6C419.3 199.08 433.68 204.47 436.66 215.83Q438.33 229.88 438.04 243.77 436.28 257.44 433.67 270.85 430.93 283.94 428.82 296.67 428.05 309 429.24 320.91 432.85 332.38 439.12 343.39 448.09 353.94 459.55 364.05 473.05 373.73 487.99 383.01 503.58 391.94 519 400.56 533.39 408.94 545.98 417.13 556.13 425.21 563.43 433.26 567.61 449.69 564.1 466.75 559.35 475.84 554.21 485.36 549.62 495.37 546.52 505.93 545.7 517.09 547.81 528.86 553.21 541.27 562.02 554.32C570.37 564.1 571.41 571.47 562.32 569.34Q551.12 569.06 539.93 571.38 528.73 576.11 517.53 582.89 506.33 591.15 495.14 600.24 483.94 609.42 472.74 617.96 461.55 625.16 450.35 630.45 439.15 633.41 427.96 633.79 416.76 631.57 405.56 626.91 394.37 620.21 383.17 611.99 371.97 602.92 360.77 593.73 349.58 585.16 338.38 577.89 327.18 572.51 315.99 569.46 304.79 568.98 293.59 571.11 282.39 575.68 271.2 582.32 260 590.49 248.8 599.54 237.61 608.74 226.41 617.35 215.21 624.68 204.01 630.13C194.93 632.88 186.61 623.46 189.05 614.14Q193.32 600.68 198.8 586.66 205.58 572.15 213.64 557.22 222.85 541.94 232.95 526.41 243.6 510.69 254.39 494.89 264.88 479.08 274.64 463.35 283.28 447.78 290.5 432.45 296.13 417.42 300.11 402.74 302.54 388.48 303.67 374.66 303.87 361.31 303.6 348.46 303.4 336.1 303.8 324.23 305.31 312.83 308.35 301.89 313.23 291.36 320.08 281.19 328.89 271.36 339.46 261.78 351.42 252.42 364.27 243.2 377.42 234.08 390.24 224.97 407.25 211.21 412.41 206.6" stroke-dasharray="3 9" transform="rotate(45.90909090909091, 400, 400)" opacity="0.29" class="svg-elem-16"></path><path d="M409.51 217.12C417.41 210.02 430.94 215.24 432.27 226.06Q432.34 239.43 431.01 252.66 428.78 265.7 426.25 278.51 424.04 291.04 422.78 303.25 423.02 315.11 425.22 326.6 429.69 337.69 436.56 348.36 445.79 358.62 457.13 368.46 470.18 377.89 484.38 386.95 499.08 395.65 513.56 404.03 527.11 412.13 539.08 420.02 548.93 427.73 556.28 435.34 561.65 450.56 559.84 466.08 555.86 474.18 551.15 482.59 546.51 491.37 542.74 500.57 540.58 510.24 540.67 520.43 543.49 531.16 549.28 542.47C555.31 550.95 554.35 559.02 545.85 558.72Q535.37 560.45 524.89 564.38 514.42 570.21 503.94 577.53 493.46 585.82 482.99 594.46 472.51 602.84 462.03 610.35 451.56 616.44 441.08 620.69 430.6 622.77 420.13 622.54 409.65 620.02 399.17 615.39 388.7 608.98 378.22 601.26 367.74 592.78 357.27 584.16 346.79 576.02 336.31 568.95 325.84 563.45 315.36 559.94 304.88 558.65 294.41 559.69 283.93 562.98 273.46 568.28 262.98 575.2 252.5 583.26 242.03 591.86 231.55 600.38 221.07 608.21 210.6 614.79C202.1 618.86 194.88 611.06 197.74 601.52Q202.68 587.85 208.8 573.77 216.12 559.36 224.54 544.69 233.87 529.81 243.87 514.82 254.17 499.78 264.43 484.76 274.24 469.85 283.25 455.1 291.15 440.58 297.7 426.34 302.76 412.44 306.33 398.91 308.49 385.79 309.48 373.1 309.6 360.86 309.27 349.07 308.93 337.73 309.06 326.83 310.1 316.34 312.44 306.25 316.38 296.51 322.09 287.08 329.61 277.93 338.84 269 349.54 260.23 361.34 251.59 373.77 243.01 386.31 234.43 403.96 221.47 409.51 217.12" stroke-dasharray="8 2" transform="rotate(48.96969696969697, 400, 400)" opacity="0.88" class="svg-elem-17"></path><path d="M405.27 227.63C413.79 220.97 426.46 226.02 426.52 236.27Q425.47 248.95 423.56 261.52 421.28 273.92 419.14 286.11 417.67 298.07 417.35 309.75 418.6 321.12 421.74 332.16 426.95 342.85 434.29 353.17 443.65 363.11 454.78 372.67 467.31 381.86 480.76 390.68 494.55 399.16 508.11 407.32 520.83 415.2 532.17 422.82 541.68 430.23 549.02 437.49 555.43 451.74 555.25 466.02 547.84 480.93 539.52 496.57 536.47 504.95 535.02 513.73 535.68 522.94 538.81 532.63C542.69 539.91 539.69 548.61 531.73 549.93Q521.92 553.32 512.12 558.44 502.31 564.97 492.5 572.48 482.69 580.49 472.88 588.48 463.08 595.94 453.27 602.38 443.46 607.39 433.65 610.65 423.84 611.94 414.03 611.19 404.23 608.44 394.42 603.87 384.61 597.77 374.8 590.53 364.99 582.63 355.18 574.58 345.38 566.89 335.57 560.05 325.76 554.52 315.95 550.64 306.14 548.67 296.33 548.74 286.53 550.83 276.72 554.82 266.91 560.45 257.1 567.35 247.29 575.08 237.48 583.14 227.67 591.01 217.87 598.19C209.91 603.18 203.87 596.75 207.23 587.14Q212.84 573.54 219.54 559.68 227.28 545.62 235.92 531.44 245.25 517.19 254.99 502.94 264.84 488.74 274.47 474.67 283.56 460.77 291.8 447.09 298.96 433.69 304.84 420.6 309.37 407.85 312.53 395.48 314.44 383.5 315.29 371.93 315.34 360.76 314.96 350.01 314.52 339.65 314.42 329.68 315.05 320.06 316.76 310.78 319.84 301.8 324.47 293.08 330.74 284.59 338.63 276.27 347.99 268.09 358.57 260 370.03 251.95 381.94 243.91 399.56 231.72 405.27 227.63" stroke-dasharray="3 8" transform="rotate(52.03030303030303, 400, 400)" opacity="0.42" class="svg-elem-18"></path><path d="M399.99 238.17C408.75 231.94 420.52 236.79 419.72 246.47Q418.05 258.47 416 270.36 414.02 282.11 412.52 293.68 411.91 305.05 412.58 316.17 414.8 327.04 418.78 337.61 424.61 347.87 432.29 357.81 441.66 367.42 452.5 376.68 464.45 385.6 477.12 394.19 490.02 402.45 502.66 410.4 514.56 418.06 525.27 425.46 534.4 432.63 541.66 439.61 548.96 453.11 550.29 466.41 544.34 479.89 536.65 493.76 531.38 508.8 530.54 524.78C532.53 530.97 527.66 540.17 520.2 542.81Q511.01 547.44 501.82 553.34 492.63 560.17 483.44 567.54 474.24 575.03 465.05 582.21 455.86 588.66 446.67 594.03 437.48 598 428.29 600.35 419.09 600.94 409.9 599.74 400.71 596.81 391.52 592.33 382.33 586.55 373.14 579.8 363.94 572.47 354.75 564.98 345.56 557.75 336.37 551.19 327.18 545.69 317.98 541.56 308.79 539.03 299.6 538.25 290.41 539.26 281.22 542.01 272.02 546.33 262.83 551.99 253.64 558.65 244.45 565.94 235.26 573.44 226.06 580.72C218.61 586.17 213.75 580.84 217.61 571.4Q223.84 558.13 231.02 544.74 239.04 531.29 247.74 517.82 256.89 504.39 266.25 491.05 275.54 477.84 284.48 464.82 292.79 452.03 300.26 439.49 306.68 427.25 311.92 415.33 315.92 403.75 318.71 392.53 320.38 381.67 321.1 371.18 321.1 361.05 320.67 351.29 320.15 341.87 319.86 332.78 321.87 315.62 327.25 299.2 332.34 291.34 338.91 283.62 346.9 276.01 356.14 268.46 366.41 260.94 377.39 253.41 394.35 242 399.99 238.17" stroke-dasharray="8 0" transform="rotate(55.090909090909086, 400, 400)" opacity="0.15" class="svg-elem-19"></path><path d="M394.08 248.71C402.67 242.89 413.55 247.55 412.28 256.67Q410.45 267.97 408.65 279.18 407.24 290.26 406.55 301.2 406.9 311.96 408.53 322.52 411.64 332.85 416.34 342.93 422.65 352.75 430.52 362.29 439.8 371.53 450.25 380.47 461.59 389.1 473.45 397.43 485.46 405.46 497.2 413.2 508.29 420.67 518.35 427.87 527.08 434.83 534.21 441.58 542.22 454.49 544.92 467.05 540.57 479.42 533.9 491.91 527.67 505.03 524.28 518.77C524.73 524.02 518.29 533.51 511.29 537.12Q502.67 542.55 494.05 548.81 485.43 555.58 476.81 562.53 468.18 569.29 459.56 575.54 450.94 580.96 442.32 585.27 425.08 589.01 407.83 588.19 399.21 585.15 390.59 580.8 381.97 575.35 373.35 569.08 364.72 562.3 356.1 555.36 347.48 548.6 338.86 542.36 330.24 536.96 321.61 532.67 304.37 528.98 287.13 529.87 278.5 532.93 269.88 537.31 261.26 542.78 252.64 549.06 244.02 555.84 235.39 562.79C228.39 568.3 224.67 563.76 228.99 554.68Q235.72 542.02 243.21 529.34 251.34 516.7 259.92 504.14 268.74 491.69 277.59 479.4 286.23 467.29 294.41 455.41 301.94 443.78 308.62 432.42 314.31 421.36 318.93 410.61 322.44 400.18 324.88 390.08 326.32 380.3 326.92 370.86 326.35 353.06 325.4 336.14 326.54 320.49 330.44 305.43 334.44 298.18 339.75 291.04 346.37 283.98 354.22 276.96 363.16 269.96 372.96 262.94 388.72 252.29 394.08 248.71" stroke-dasharray="4 4" transform="rotate(58.151515151515156, 400, 400)" opacity="0.25" class="svg-elem-20"></path><path d="M387.94 259.28C396.01 253.87 405.98 258.3 404.64 266.85Q403.06 277.45 401.81 287.96 401.17 298.38 401.4 308.67 402.7 318.81 405.24 328.78 409.12 338.56 414.4 348.13 421.04 357.47 428.97 366.58 438.04 375.43 448.04 384.02 458.71 392.34 469.76 400.39 480.88 408.17 491.74 415.69 502.02 422.94 511.44 429.95 519.72 436.72 526.67 443.27 535.23 455.73 539.13 467.73 536.42 479.27 531.08 490.71 524.66 502.35 519.72 514.32C519.02 518.8 511.42 528.36 504.86 532.55Q488.68 544.57 472.5 557.25 456.32 568.4 440.14 576.08 423.96 578.96 407.78 576.55 391.6 569.26 375.42 558.35 359.24 545.71 343.05 533.55 326.87 523.96 310.69 518.6 294.51 518.42 278.33 523.44 262.15 532.78 245.97 544.84C239.41 550.02 236.7 546.02 241.36 537.48Q248.42 525.65 256.04 513.89 264.08 502.24 272.37 490.73 280.73 479.39 288.95 468.23 296.85 457.3 304.24 446.6 310.95 436.16 316.86 425.99 321.85 416.1 325.88 406.5 328.92 397.18 331.02 388.16 332.45 371.11 332.19 354.88 331.17 339.85 331.07 325.44 334.58 311.82 341.2 298.52 346.51 292 352.96 285.5 360.49 279.01 368.96 272.49 383.06 262.6 387.94 259.28" stroke-dasharray="8 4" transform="rotate(61.21212121212121, 400, 400)" opacity="0.77" class="svg-elem-21"></path><path d="M382.02 269.83C389.26 264.84 398.37 269.05 397.29 277.02Q396.25 286.9 395.77 296.72 396.02 306.45 397.18 316.08 399.38 325.59 402.72 334.96 407.24 344.16 412.93 353.2 419.76 362.04 427.62 370.68 436.38 379.11 445.84 387.32 455.81 395.3 466.04 403.04 476.28 410.55 486.27 417.82 495.76 424.85 504.51 431.66 518.42 444.51 528.64 456.77 531.37 476.39 527.98 489.88 522.02 500.43 516.44 511.05C515.01 514.95 506.72 524.31 500.56 528.73Q485.39 540.33 470.22 551.56 455.05 560.72 439.88 566.46 424.71 567.9 409.54 564.83 394.37 557.71 379.2 547.62 364.03 536.05 348.86 524.74 333.69 515.4 318.52 509.41 303.35 507.67 288.18 510.45 273.01 517.32 257.84 527.27C251.68 531.85 249.82 528.14 254.69 520.29Q261.87 509.48 269.41 498.8 277.17 488.26 285 477.91 292.75 467.74 300.25 457.78 307.36 448.05 313.92 438.55 319.82 429.3 324.97 420.29 329.29 411.54 332.75 403.05 336.77 386.93 338.57 371.55 337.89 357.28 336.71 343.6 336.56 330.72 338.09 318.2 343.79 306.08 352.48 294.07 358.58 288.07 365.62 282.05 377.75 272.9 382.02 269.83" stroke-dasharray="9 6" transform="rotate(64.27272727272727, 400, 400)" opacity="0.78" class="svg-elem-22"></path><path d="M376.74 280.41C382.94 275.83 391.2 279.79 390.62 287.18Q390.76 305.45 393.97 323.45 400.97 341.06 411.91 358.14 426.44 374.61 443.67 390.37 462.29 405.37 480.79 419.56 497.59 432.92 511.33 445.49 521.01 457.3 526.2 468.43 527.07 478.98 524.39 489.08 519.49 498.88 514 508.53C512.22 512.01 503.7 520.95 497.95 525.25Q483.76 535.82 469.57 545.3 455.38 552.46 441.19 556.39 427.01 556.59 412.82 553.03 398.63 546.17 384.44 536.89 370.25 526.36 356.06 515.95 341.87 506.97 327.68 500.58 313.5 497.6 299.31 498.4 285.12 502.88 270.93 510.48C265.17 514.24 263.94 510.64 268.85 503.6Q283.16 484.42 297.69 465.94 311.43 448.23 323.43 431.37 332.94 415.39 339.55 400.29 343.24 386.03 344.4 372.57 343.8 359.82 342.49 347.68 341.67 336.03 342.52 324.74 346.04 313.67 352.85 302.68 369.96 286.03 376.74 280.41" stroke-dasharray="1 5" transform="rotate(67.33333333333333, 400, 400)" opacity="0.63" class="svg-elem-23"></path><path d="M372.48 291C377.51 286.81 384.99 290.52 385.05 297.33Q386.96 314.16 391.82 330.78 399.95 347.08 411.29 362.96 425.4 378.35 441.49 393.17 458.52 407.36 475.32 420.88 490.68 433.7 503.55 445.83 513.15 457.27 519.05 468.07 521.24 478.29 520.18 488 516.68 497.29 511.89 506.29C510.1 509.47 501.82 517.78 496.46 521.68Q483.25 530.77 470.04 538.34 456.83 543.56 443.61 545.89 430.4 545.06 417.19 541.17 403.98 534.63 390.76 526.16 377.55 516.65 364.34 507.14 351.12 498.65 337.91 492.1 324.7 488.18 311.48 487.32 298.27 489.61 285.06 494.81C279.7 497.63 278.89 494.01 283.66 487.84Q297.14 471.1 310.32 455.05 322.4 439.73 332.71 425.15 340.75 411.33 346.27 398.23 349.32 385.81 350.23 374.02 349.63 362.77 348.32 351.98 347.25 341.55 347.34 331.37 349.44 321.33 354.17 311.33 367.16 296.13 372.48 291" stroke-dasharray="1 10" transform="rotate(70.3939393939394, 400, 400)" opacity="0.71" class="svg-elem-24"></path><path d="M369.57 301.59C373.41 297.81 380.13 301.25 380.9 307.45Q384.51 322.83 390.73 338.04 399.63 353 411.02 367.64 424.47 381.89 439.3 395.7 454.72 409 469.83 421.76 483.75 433.95 495.7 445.56 505.05 456.59 511.43 467.03 514.74 476.94 515.18 486.33 513.23 495.28 509.62 503.84C508.09 506.84 500.43 514.34 495.48 517.64Q483.26 524.95 471.04 530.57 458.82 534.01 446.61 534.95 434.39 533.3 422.17 529.23 409.95 523.09 397.74 515.42 385.52 506.91 373.3 498.32 361.08 490.42 348.87 483.9 336.65 479.35 324.43 477.18 312.21 477.57 299.99 480.5C295.04 482.35 294.43 478.67 298.89 473.39Q311.16 459.09 322.75 445.41 333.11 432.36 341.76 419.93 348.41 408.11 352.92 396.87 355.38 386.14 356.07 375.88 355.48 366.02 354.22 356.49 352.99 347.2 352.52 338.08 353.49 329.04 356.44 320 365.66 306.23 369.57 301.59" stroke-dasharray="7 4" transform="rotate(73.45454545454545, 400, 400)" opacity="0.46" class="svg-elem-25"></path><path d="M368.25 312.21C370.96 308.81 376.95 311.96 378.38 317.57Q383.44 331.48 390.64 345.26 399.93 358.85 411.05 372.2 423.61 385.25 437.09 397.96 450.88 410.29 464.34 422.2 476.83 433.65 487.78 444.64 496.73 455.15 503.36 465.18 507.53 474.73 509.29 483.82 508.88 492.48 506.73 500.74C505.64 503.61 498.88 510.18 494.34 512.76Q483.16 518.18 471.97 521.95 460.79 523.8 449.6 523.6 438.42 521.36 427.23 517.25 416.05 511.55 404.86 504.69 393.68 497.15 382.49 489.49 371.31 482.26 360.12 475.97 348.94 471.09 337.75 467.96 326.56 466.82 315.38 467.74C310.84 468.7 310.26 464.94 314.25 460.52Q325 448.56 334.86 437.11 343.47 426.17 350.54 415.72 355.89 405.73 359.48 396.16 361.38 378.26 360.17 361.18 358.52 344.89 359.67 328.71 365.6 316.37 368.25 312.21" stroke-dasharray="3 0" transform="rotate(76.51515151515152, 400, 400)" opacity="0.27" class="svg-elem-26"></path><path d="M368.62 322.83C370.33 319.82 375.65 322.68 377.63 327.69Q383.75 340.11 391.52 352.44 400.79 364.63 411.32 376.64 422.81 388.43 434.84 399.98 447 411.24 458.84 422.18 469.91 432.79 479.81 443.04 488.21 452.92 494.85 462.41 499.61 471.52 502.44 480.24 503.43 488.58 502.8 496.56C502.23 499.35 496.57 504.92 492.47 506.75Q482.36 510.31 472.26 512.42 462.16 512.95 452.06 511.87 441.96 509.24 431.85 505.22 421.75 500.02 411.65 493.96 401.55 487.37 391.44 480.64 381.34 474.14 371.24 468.25 361.13 463.31 351.03 459.59 340.93 457.32 330.82 456.62C326.72 456.79 326.02 453.03 329.45 449.39Q338.46 439.59 346.54 430.19 353.44 421.16 359.02 412.49 365.3 396.22 367.76 380.72 366.07 366.09 363.85 351.74 366.52 330.12 368.62 322.83" stroke-dasharray="6 0" transform="rotate(79.57575757575758, 400, 400)" opacity="0.62" class="svg-elem-27"></path><path d="M370.73 333.46C371.63 330.84 376.29 333.39 378.64 337.79Q385.36 348.71 393.23 359.56 402.1 370.32 411.78 380.95 422.03 391.44 432.57 401.74 443.1 411.85 453.34 421.73 462.99 431.37 471.79 440.75 479.5 449.86 485.94 458.69 493.85 475.29 497.48 491C497.45 493.68 492.96 498.26 489.33 499.35Q471.4 501.97 453.48 499.78 435.55 493.15 417.62 483.23 399.69 471.75 381.76 460.69 363.83 451.97 345.9 447.11C342.28 446.68 341.37 442.99 344.15 440.08Q351.35 432.21 357.66 424.61 366.63 410.28 372.35 396.58 373.27 383.67 372.19 371.06 370.04 358.66 368.77 346.21 369.99 336.67 370.73 333.46" stroke-dasharray="1 8" transform="rotate(82.63636363636364, 400, 400)" opacity="0.50" class="svg-elem-28"></path><path d="M374.46 344.09C374.78 341.86 378.81 344.08 381.31 347.87Q395.63 366.64 412.35 385.14 430.23 403.26 447.83 420.84 463.72 437.78 476.63 453.97 485.69 469.34 490.55 483.83C490.99 486.35 487.65 489.98 484.5 490.44Q468.96 490.63 453.43 487.35 437.9 481.04 422.36 472.5 406.83 462.82 391.29 453.24 375.75 444.98 360.22 439.1C357.07 438.28 355.96 434.78 358.08 432.5Q368.13 420.28 375.01 408.67 378.66 397.55 379.47 386.78 378.25 376.19 376.15 365.65 374.46 349.54 374.46 344.09" stroke-dasharray="6 5" transform="rotate(85.6969696969697, 400, 400)" opacity="0.44" class="svg-elem-29"></path><path d="M379.64 354.74C379.59 352.89 382.98 354.77 385.42 357.94Q398.58 373.67 412.97 389.23 427.83 404.55 442.32 419.54 455.6 434.14 466.96 448.28 475.83 461.89 481.87 474.94C482.65 477.22 480.34 479.98 477.69 479.96Q464.66 478.43 451.62 474.64 438.58 468.91 425.54 461.77 412.5 453.85 399.46 445.85 386.42 438.49 373.38 432.42C370.74 431.39 369.46 428.23 370.95 426.49Q377.87 417.01 382.49 407.85 384.88 398.93 385.33 390.15 384.33 381.43 382.55 372.67 380.18 359.27 379.64 354.74" stroke-dasharray="1 5" transform="rotate(88.75757575757575, 400, 400)" opacity="0.45" class="svg-elem-30"></path><path d="M385.97 365.4C385.72 363.92 388.49 365.46 390.64 368Q401.87 380.64 413.58 393.2 425.37 405.62 436.8 417.86 447.46 429.89 456.98 441.66 465.03 453.15 471.4 464.31C472.36 466.29 470.92 468.27 468.79 467.94Q458.33 465.46 447.86 461.66 437.4 456.76 426.94 451.04 416.47 444.83 406.01 438.47 395.54 432.34 385.08 426.78C382.95 425.75 381.61 423.07 382.55 421.76Q388.92 407.6 391.19 393.67 387.44 372.54 385.97 365.4" stroke-dasharray="8 3" transform="rotate(91.81818181818181, 400, 400)" opacity="0.54" class="svg-elem-31"></path><path d="M393.05 376.06C392.8 374.96 394.9 376.13 396.62 378.05Q414.11 397.06 431.27 415.83 446.71 434.21 459.23 452.06C460.19 453.64 459.4 454.98 457.81 454.52Q442.13 448.48 426.45 440.31 410.77 431.05 395.09 421.89C393.5 421.01 392.24 418.9 392.74 417.97Q396.4 407.62 397.06 397.29 394.3 381.44 393.05 376.06" stroke-dasharray="6 7" transform="rotate(94.87878787878789, 400, 400)" opacity="0.52" class="svg-elem-32"></path><path d="M400.5 386.74C400.32 386 401.75 386.8 402.92 388.08Q414.52 400.84 425.75 413.5 436.21 426.04 445.54 438.41C446.32 439.51 445.97 440.32 444.91 439.89Q434.52 435.14 424.12 429.58 413.72 423.55 403.32 417.39C402.26 416.77 401.26 415.32 401.46 414.71Q401.46 393.81 400.5 386.74" stroke-dasharray="1 1" transform="rotate(97.93939393939394, 400, 400)" opacity="0.28" class="svg-elem-33"></path></g></svg>