<?xml version="1.0" encoding="UTF-8"?>
<svg xmlns="http://www.w3.org/2000/svg" version="1.1" xmlns="http://www.w3.org/1999/xlink" xmlns="http://svgjs.dev/svgjs" viewBox="0 0 800 800" width="800" height="800"><defs><linearGradient x1="50%" y1="0%" x2="50%" y2="100%" id="ccchaos-grad"><stop stop-color="hsl(184, 74%, 44%)" stop-opacity="1" offset="0%"></stop><stop stop-color="hsl(332, 87%, 70%)" stop-opacity="1" offset="100%"></stop></linearGradient></defs><g stroke-width="2" stroke="url(#ccchaos-grad)" fill="none" stroke-linecap="round"><path d="M363.57 113.61C368.64 98.94 386.98 95.79 394.75 108.13Q400.14 115.88 405.94 123.69 412.12 131.57 418.67 139.52 425.53 147.56 432.66 155.69 440.01 163.91 447.53 172.22 455.15 180.64 462.81 189.17 470.44 197.8 477.99 206.54 485.38 215.4 492.55 224.37 499.43 233.46 505.98 242.65 512.15 251.96 517.88 261.38 523.14 270.9 527.91 280.52 532.16 290.25 535.88 300.06 539.09 309.96 541.77 319.93 543.97 329.98 545.7 340.09 547 350.25 547.93 360.46 548.53 370.7 548.88 380.96 549.04 391.23 549.08 401.51 549.08 411.78 549.13 422.02 549.28 432.23 549.64 442.4 550.26 452.51 551.23 462.55 552.6 472.51 554.44 482.38 556.79 492.14 559.7 501.8 563.2 511.33 567.32 520.73 572.05 529.99 577.4 539.1 583.36 548.06 589.89 556.86 596.97 565.49 604.55 573.94 612.56 582.22 620.94 590.33 629.62 598.25 638.51 606 647.54 613.57 656.6 620.96 665.61 628.17 674.49 635.22 683.12 642.1 691.44 648.82 699.36 655.4 706.8 661.83 713.7 668.12 720 674.3C727.92 682.99 718.61 702.74 704.32 710.25Q686.69 717.73 669.07 722.64 651.45 724.56 633.82 723.3 616.2 718.97 598.58 711.97 580.95 702.92 563.33 692.6 545.71 681.95 528.08 671.9 510.46 663.34 492.84 657.03 475.21 653.53 457.59 653.15 439.97 655.92 422.34 661.6 404.72 669.69 387.1 679.46 369.47 690.06 351.85 700.54 334.23 709.97 316.6 717.53 298.98 722.53 281.36 724.54 263.74 723.38 246.11 719.16 228.49 712.23 210.87 703.23 193.24 692.94 175.62 682.29 158 672.2 140.38 663.58C126.08 658.2 116.76 641.86 122.79 631.74Q130.6 618.23 137.96 605.08 144.6 592.42 150.88 579.97 156.72 567.71 162.44 555.49 168.22 543.19 174.2 530.76 180.79 518 187.9 504.97 196.04 491.4 204.89 477.46 209.72 470.26 214.79 462.92 220.08 455.43 225.58 447.8 231.27 440.02 237.12 432.09 243.12 424.01 249.21 415.79 255.38 407.42 261.58 398.91 267.78 390.26 273.93 381.47 280 372.56 285.94 363.52 291.73 354.37 297.31 345.12 302.66 335.76 307.75 326.31 312.56 316.77 317.06 307.17 321.24 297.49 325.09 287.77 328.62 277.99 331.81 268.18 334.7 258.35 337.29 248.5 339.6 238.64 341.67 228.78 343.54 218.94 345.23 209.12 346.8 199.32 348.3 189.56 349.76 179.85 351.25 170.19 352.82 160.58 354.52 151.04 356.4 141.57 358.5 132.17 362.23 118.23 363.57 113.61" stroke-dasharray="6 2" transform="rotate(0, 400, 400)" opacity="0.66" class="svg-elem-1"></path><path d="M365.88 123.97C370.01 109.84 387.7 106.71 395.99 118.54Q401.64 125.97 407.63 133.46 413.94 141.01 420.54 148.63 427.38 156.33 434.42 164.11 441.61 171.98 448.9 179.94 456.22 187.99 463.53 196.14 470.76 204.4 477.86 212.75 484.77 221.22 491.43 229.79 497.81 238.46 503.84 247.24 509.49 256.13 514.72 265.13 519.52 274.22 523.84 283.41 527.7 292.7 531.07 302.08 533.96 311.54 536.39 321.09 538.37 330.7 539.94 340.39 541.14 350.13 541.99 359.92 542.57 369.76 542.91 379.63 543.09 389.52 543.17 399.43 543.21 409.35 543.29 419.25 543.47 429.14 543.83 439.01 544.42 448.83 545.32 458.61 546.57 468.33 548.25 477.98 550.38 487.56 553.01 497.04 556.17 506.43 559.89 515.7 564.17 524.86 569.02 533.9 574.43 542.8 580.39 551.57 586.86 560.18 593.82 568.65 601.21 576.96 608.99 585.11 617.09 593.09 625.44 600.91 633.98 608.57 642.63 616.05 651.3 623.37 659.92 630.52 668.41 637.5 676.69 644.33 684.67 651 692.3 657.51 699.49 663.89 706.2 670.12C714.88 678.87 707.38 697.47 693.63 703.71Q676.68 709.43 659.73 712.54 642.78 712.8 625.83 710.17 608.89 704.88 591.94 697.35 574.99 688.21 558.04 678.21 541.09 668.15 524.14 658.87 507.19 651.13 490.24 645.56 473.29 642.62 456.34 642.55 439.39 645.36 422.44 650.81 405.49 658.46 388.54 667.68 371.6 677.71 354.65 687.74 337.7 696.94 320.75 704.56 303.8 709.97 286.85 712.74 269.9 712.62 252.95 709.64 236 704.04 219.05 696.27 202.1 686.97 185.15 676.91 168.2 666.91 151.25 657.79C137.5 651.55 128.25 634.95 133.79 625.75Q140.91 613.38 147.61 601.25 153.68 589.43 159.45 577.7 164.91 566 170.31 554.26 175.87 542.31 181.68 530.17 188.15 517.62 195.14 504.76 203.14 491.34 211.82 477.54 216.54 470.4 221.49 463.14 226.64 455.73 231.99 448.19 237.52 440.5 243.19 432.68 249 424.71 254.9 416.62 260.87 408.39 266.87 400.03 272.88 391.55 278.84 382.94 284.73 374.23 290.51 365.4 296.15 356.48 301.61 347.46 306.86 338.35 311.87 329.17 316.62 319.91 321.1 310.6 325.28 301.23 329.15 291.81 332.72 282.36 335.97 272.88 338.93 263.38 341.59 253.88 343.98 244.37 346.12 234.87 348.04 225.38 349.77 215.92 351.34 206.48 352.81 197.09 354.2 187.74 355.57 178.44 356.96 169.19 358.42 160.01 360 150.89 361.74 141.84 364.78 128.41 365.88 123.97" stroke-dasharray="11 6" transform="rotate(4.04, 400, 400)" opacity="0.14" class="svg-elem-2"></path><path d="M368.74 134.32C372.07 120.72 389.11 117.64 397.81 128.97Q409.73 143.24 422.65 157.76 436.27 172.56 450.22 187.68 464.11 203.15 477.53 218.99 490.1 235.23 501.48 251.87 511.39 268.91 519.65 286.34 526.16 304.13 530.95 322.26 534.17 340.7 536.05 359.38 536.94 378.26 537.25 397.27 537.44 416.36 538 435.43 539.4 454.43 542.07 473.27 546.37 491.89 552.56 510.2 560.79 528.13 571.09 545.63 583.32 562.63 597.27 579.1 612.56 594.98 628.74 610.25 645.29 624.9 661.65 638.93 677.27 652.33 691.6 665.15C700.88 674.03 694.97 691.33 681.79 696.19Q665.54 700.12 649.29 701.52 633.04 700.27 616.8 696.48 600.55 690.42 584.3 682.55 568.05 673.47 551.8 663.87 535.56 654.47 519.31 645.98 503.06 639.04 486.81 634.18 470.56 631.77 454.32 631.98 438.07 634.8 421.82 640.01 405.57 647.23 389.32 655.91 373.08 665.39 356.83 674.96 340.58 683.89 324.33 691.51 308.08 697.23 291.83 700.64 275.59 701.47 259.34 699.66 243.09 695.35 226.84 688.86 210.59 680.67 194.35 671.43 178.1 661.81 161.85 652.54C148.67 645.77 139.48 629.09 144.52 620.68Q151.04 609.22 157.05 597.95 162.63 586.78 167.9 575.62 173.02 564.38 178.14 552.97 183.47 541.32 189.19 529.35 195.46 517.01 202.42 504.24 210.18 491.01 218.78 477.28 228.22 463.03 238.42 448.26 249.27 432.98 260.59 417.19 272.16 400.93 283.74 384.22 295.06 367.12 305.87 349.67 315.94 331.92 325.07 313.94 333.13 295.79 340.03 277.52 345.79 259.21 350.48 240.92 354.26 222.7 357.34 204.6 360.01 186.67 362.57 168.96 365.37 151.5 368.74 134.32 368.74 134.32 368.74 134.32" stroke-dasharray="3 5" transform="rotate(8.08, 400, 400)" opacity="0.41" class="svg-elem-3"></path><path d="M372.09 144.66C374.75 131.62 391.18 128.57 400.14 139.39Q412.17 153.03 424.93 166.89 438.14 181.01 451.45 195.43 464.51 210.17 476.99 225.26 488.55 240.71 498.93 256.54 507.9 272.74 515.33 289.31 521.17 306.23 525.48 323.48 528.38 341.03 530.11 358.84 530.98 376.87 531.34 395.07 531.6 413.37 532.18 431.72 533.49 450.05 535.92 468.29 539.79 486.39 545.35 504.26 552.73 521.84 562.01 539.08 573.09 555.92 585.83 572.3 599.92 588.18 615.03 603.53 630.7 618.31 646.48 632.52 661.85 646.14 676.35 659.19C685.99 668.23 681.48 684.16 668.89 687.59Q653.37 689.79 637.84 689.6 622.32 687.04 606.79 682.28 591.27 675.66 575.74 667.63 560.22 658.76 544.7 649.65 529.17 640.95 513.65 633.25 498.12 627.09 482.6 622.9 467.07 620.96 451.55 621.42 436.02 624.24 420.5 629.23 404.97 636.03 389.45 644.19 373.92 653.12 358.4 662.21 342.88 670.83 327.35 678.38 311.83 684.34 296.3 688.29 280.78 689.96 265.25 689.23 249.73 686.15 234.2 680.94 218.68 673.95 203.15 665.69 187.63 656.7 172.1 647.63C159.51 640.65 150.41 624.08 154.94 616.3Q160.82 605.61 166.26 594.97 171.36 584.32 176.23 573.57 181.05 562.65 185.95 551.49 191.13 540.03 196.73 528.22 202.89 516.01 209.75 503.36 217.36 490.24 225.78 476.65 234.96 462.58 244.86 448.02 255.35 432.99 266.28 417.5 277.44 401.6 288.61 385.31 299.57 368.67 310.09 351.74 319.94 334.56 328.95 317.2 336.99 299.7 343.96 282.11 349.86 264.51 354.72 246.94 358.65 229.45 361.83 212.08 364.49 194.89 366.89 177.9 370.71 152.9 372.09 144.66" stroke-dasharray="5 2" transform="rotate(12.12, 400, 400)" opacity="0.35" class="svg-elem-4"></path><path d="M375.84 154.99C377.97 142.5 393.81 139.51 402.89 149.82Q414.84 162.82 427.29 176.03 439.95 189.48 452.52 203.2 464.71 217.22 476.21 231.55 486.77 246.22 496.16 261.24 504.24 276.61 510.89 292.32 516.12 308.36 519.97 324.73 522.59 341.4 524.19 358.32 525.02 375.48 525.43 392.83 525.75 410.31 526.35 427.89 527.58 445.49 529.8 463.07 533.27 480.57 538.23 497.93 544.83 515.07 553.13 531.96 563.12 548.53 574.66 564.74 587.56 580.53 601.53 595.87 616.22 610.71 631.24 625.05 646.16 638.85 660.57 652.12C670.38 661.33 667.03 675.82 655.04 677.85Q640.25 678.41 625.47 676.81 610.69 673.14 595.91 667.64 581.12 660.65 566.34 652.63 551.56 644.08 536.78 635.54 521.99 627.56 507.21 620.65 492.43 615.24 477.65 611.68 462.86 610.19 448.08 610.87 433.3 613.68 418.51 618.44 403.73 624.84 388.95 632.47 374.17 640.86 359.39 649.47 344.6 657.76 329.82 665.18 315.04 671.28 300.26 675.67 285.47 678.07 270.69 678.31 255.91 676.4 241.13 672.45 226.34 666.71 211.56 659.55 196.78 651.42 182 642.83C170.01 635.92 161.02 619.68 165.08 612.4Q170.35 602.28 175.27 592.12 179.94 581.84 184.48 571.39 189.04 560.69 193.77 549.71 198.81 538.38 204.31 526.69 210.38 514.58 217.12 502.05 224.59 489.07 232.8 475.63 241.73 461.75 251.32 447.43 261.44 432.69 271.96 417.55 282.71 402.04 293.48 386.2 304.06 370.06 314.26 353.68 323.88 337.1 332.75 320.37 340.74 303.54 347.76 286.65 353.78 269.76 358.8 252.92 362.92 236.17 366.25 219.55 368.98 203.09 371.32 186.83 374.68 162.89 375.84 154.99" stroke-dasharray="3 1" transform="rotate(16.16, 400, 400)" opacity="0.27" class="svg-elem-5"></path><path d="M379.91 165.33C381.66 153.38 396.91 150.44 405.96 160.26Q417.67 172.63 429.65 185.19 441.64 197.97 453.4 211 464.65 224.29 475.17 237.88 484.74 251.78 493.19 265.99 500.41 280.53 506.34 295.39 510.99 310.57 514.43 326.05 516.79 341.82 518.26 357.85 519.08 374.12 519.52 390.59 519.89 407.23 520.51 423.98 521.68 440.82 523.69 457.67 526.8 474.51 531.22 491.26 537.08 507.89 544.48 524.33 553.41 540.54 563.79 556.47 575.5 572.06 588.3 587.29 601.92 602.11 616.05 616.49 630.34 630.41 644.41 643.84C654.19 653.2 651.77 666.26 640.4 666.96Q626.37 666.05 612.34 663.23 598.31 658.68 584.28 652.65 570.25 645.49 556.23 637.62 542.2 629.5 528.17 621.59 514.14 614.36 500.11 608.22 486.09 603.52 472.06 600.55 458.03 599.47 444 600.35 429.97 603.13 415.95 607.65 401.92 613.66 387.89 620.79 373.86 628.65 359.83 636.77 345.81 644.69 331.78 651.94 317.75 658.11 303.72 662.83 289.69 665.84 275.67 666.96 261.64 666.12 247.61 663.37 233.58 658.88 219.56 652.9 205.53 645.78 191.5 637.94C180.12 631.35 171.3 615.64 174.91 608.72Q179.64 599.02 184.1 589.19 188.4 579.17 192.66 568.91 197.01 558.37 201.59 547.51 206.53 536.29 211.94 524.69 217.92 512.69 224.55 500.28 231.86 487.45 239.86 474.21 248.52 460.56 257.78 446.51 267.53 432.1 277.65 417.33 287.97 402.26 298.32 386.9 308.52 371.3 318.39 355.5 327.76 339.54 336.46 323.46 344.38 307.32 351.42 291.15 357.54 274.99 362.73 258.89 367.04 242.88 370.55 227 373.41 211.28 375.78 195.75 378.89 172.88 379.91 165.33" stroke-dasharray="1 5" transform="rotate(20.200000000000003, 400, 400)" opacity="0.87" class="svg-elem-6"></path><path d="M384.19 175.65C385.71 164.25 400.35 161.39 409.23 170.7Q420.53 182.44 431.91 194.36 443.15 206.47 454.03 218.81 464.32 231.39 473.85 244.24 482.46 257.37 490.01 270.79 496.42 284.5 501.68 298.52 505.81 312.83 508.87 327.43 510.99 342.3 512.34 357.43 513.14 372.8 513.62 388.38 514.04 404.14 514.67 420.05 515.77 436.06 517.6 452.14 520.38 468.24 524.3 484.33 529.49 500.35 536.04 516.25 543.97 532 553.25 547.54 563.77 562.84 575.39 577.85 587.9 592.54 601.03 606.86 614.51 620.79 628.03 634.31C637.6 643.78 635.87 655.43 625.1 654.92Q611.84 652.73 598.57 648.93 585.31 643.72 572.05 637.37 558.78 630.22 545.52 622.64 532.25 615.04 518.99 607.8 505.72 601.32 492.46 595.93 479.19 591.92 465.93 589.49 452.66 588.78 439.4 589.82 426.13 592.56 412.87 596.85 399.6 602.47 386.34 609.13 373.07 616.46 359.81 624.09 346.54 631.62 333.28 638.64 320.01 644.8 306.75 649.76 293.48 653.27 280.22 655.14 266.95 655.28 253.69 653.67 240.42 650.4 227.16 645.64 213.89 639.64 200.63 632.73C189.87 626.69 181.24 611.68 184.45 605Q188.7 595.59 192.76 585.98 196.75 576.13 200.78 566 204.98 555.56 209.44 544.79 214.3 533.66 219.63 522.17 225.52 510.29 232.03 498.02 239.17 485.38 246.95 472.36 255.33 458.97 264.25 445.25 273.62 431.2 283.32 416.86 293.21 402.26 303.14 387.42 312.95 372.39 322.48 357.19 331.57 341.88 340.08 326.48 347.9 311.04 354.94 295.59 361.14 280.17 366.47 264.82 370.97 249.56 374.69 234.43 377.72 219.45 380.21 204.65 383.25 182.85 384.19 175.65" stroke-dasharray="3 5" transform="rotate(24.24, 400, 400)" opacity="0.84" class="svg-elem-7"></path><path d="M388.59 185.98C389.97 175.12 404.02 172.33 412.59 181.16Q423.34 192.27 434.02 203.54 444.42 214.99 454.37 226.65 463.7 238.53 472.26 250.64 479.93 263.01 486.62 275.64 492.29 288.54 496.93 301.72 500.56 315.17 503.28 328.89 505.19 342.87 506.44 357.1 507.21 371.56 507.72 386.23 508.18 401.09 508.82 416.12 509.86 431.27 511.53 446.53 514.01 461.85 517.47 477.19 522.04 492.53 527.8 507.81 534.79 523 543.01 538.06 552.4 552.94 562.84 567.62 574.19 582.05 586.25 596.2 598.79 610.04 611.57 623.54C620.77 633.03 619.51 643.37 609.37 641.81Q596.87 638.57 584.37 634.02 571.88 628.38 559.38 621.91 546.88 614.93 534.38 607.76 521.88 600.74 509.38 594.21 496.88 588.48 484.38 583.82 471.88 580.45 459.38 578.52 446.88 578.14 434.38 579.32 421.88 582.01 409.38 586.07 396.88 591.32 384.38 597.49 371.88 604.32 359.38 611.45 346.88 618.57 334.38 625.33 321.88 631.41 309.38 636.52 296.88 640.42 284.38 642.92 271.88 643.9 259.37 643.33 246.87 641.22 234.37 637.68 221.87 632.86 209.37 627.02C199.24 621.7 190.87 607.54 193.74 601.03Q197.57 591.79 201.31 582.32 205.05 572.57 208.91 562.53 212.97 552.17 217.35 541.49 222.13 530.45 227.39 519.07 233.19 507.34 239.56 495.26 246.52 482.83 254.07 470.08 262.16 457.02 270.74 443.66 279.72 430.03 288.99 416.15 298.45 402.06 307.95 387.78 317.35 373.34 326.52 358.78 335.31 344.14 343.61 329.43 351.3 314.71 358.3 300 364.55 285.33 370.01 270.73 374.69 256.22 378.62 241.85 381.86 227.62 384.52 213.55 387.65 192.82 388.59 185.98" stroke-dasharray="10 0" transform="rotate(28.28, 400, 400)" opacity="0.67" class="svg-elem-8"></path><path d="M392.97 196.29C394.34 185.99 407.79 183.28 415.92 191.61Q426 202.1 435.87 212.74 445.38 223.53 454.38 234.51 462.75 245.69 470.36 257.08 477.14 268.69 483.03 280.55 488 292.65 492.06 304.99 495.26 317.59 497.66 330.44 499.37 343.53 500.53 356.85 501.29 370.4 501.82 384.16 502.31 398.11 502.96 412.23 503.95 426.5 505.46 440.89 507.67 455.37 510.72 469.92 514.72 484.5 519.75 499.08 525.88 513.62 533.1 528.09 541.4 542.46 550.69 556.69 560.87 570.75 571.8 584.61 583.31 598.23 595.2 611.58C603.88 621.02 602.89 630.12 593.37 627.71Q581.63 623.66 569.9 618.61 558.16 612.75 546.42 606.35 534.69 599.67 522.95 593 511.21 586.63 499.48 580.82 487.74 575.82 476 571.85 464.27 569.08 452.53 567.62 440.79 567.53 429.06 568.83 417.32 571.44 405.58 575.28 393.84 580.16 382.11 585.88 370.37 592.2 358.63 598.84 346.9 605.54 335.16 611.99 323.42 617.92 311.69 623.09 299.95 627.27 288.21 630.28 276.48 632 264.74 632.35 253 631.31 241.26 628.94 229.53 625.33 217.79 620.63C208.26 616.16 200.23 602.97 202.8 596.56Q206.29 587.43 209.77 578.04 213.33 568.36 217.05 558.39 221.02 548.12 225.33 537.52 230.05 526.61 235.23 515.38 240.93 503.83 247.16 491.98 253.93 479.82 261.23 467.39 269.01 454.69 277.23 441.74 285.82 428.57 294.66 415.2 303.68 401.66 312.74 387.97 321.72 374.16 330.52 360.27 339 346.31 347.05 332.32 354.59 318.33 361.52 304.36 367.78 290.45 373.34 276.61 378.18 262.87 382.31 249.24 385.78 235.76 388.65 222.43 391.99 202.78 392.97 196.29" stroke-dasharray="9 5" transform="rotate(32.32, 400, 400)" opacity="0.68" class="svg-elem-9"></path><path d="M397.24 206.6C398.69 196.86 411.51 194.23 419.11 202.08Q428.41 211.95 437.41 221.95 445.99 232.09 454.04 242.4 461.46 252.88 468.16 263.56 474.1 274.43 479.24 285.52 483.57 296.82 487.11 308.35 489.91 320.1 492.03 332.09 493.56 344.29 494.64 356.72 495.38 369.36 495.93 382.19 496.45 395.22 497.1 408.42 498.04 421.78 499.42 435.28 501.38 448.88 504.05 462.58 507.53 476.35 511.91 490.15 517.23 503.97 523.52 517.76 530.78 531.51 538.95 545.19 547.98 558.76 557.77 572.19 568.18 585.46 579.07 598.54C587.1 607.82 586.21 615.81 577.3 612.74Q566.31 608.15 555.33 602.81 544.35 596.95 533.37 590.77 522.39 584.52 511.41 578.43 500.43 572.73 489.45 567.65 478.47 563.36 467.49 560.05 456.51 557.83 445.53 556.78 434.54 556.96 423.56 558.34 412.58 560.88 401.6 564.48 390.62 569.01 379.64 574.29 368.66 580.12 357.68 586.28 346.7 592.53 335.72 598.65 324.74 604.38 313.76 609.53 302.78 613.88 291.8 617.28 280.82 619.6 269.84 620.74 258.86 620.67 247.88 619.39 236.9 616.94 225.91 613.43C217 609.87 209.35 597.75 211.68 591.38Q214.9 582.32 218.19 572.99 221.6 563.39 225.23 553.5 229.14 543.32 233.4 532.85 238.06 522.1 243.16 511.06 248.74 499.75 254.82 488.17 261.38 476.34 268.42 464.28 275.89 452 283.74 439.51 291.92 426.85 300.33 414.03 308.89 401.07 317.51 388.01 326.07 374.86 334.47 361.65 342.62 348.41 350.41 335.15 357.75 321.91 364.58 308.7 370.82 295.55 376.44 282.47 381.41 269.5 385.74 256.63 389.43 243.9 392.53 231.31 396.18 212.74 397.24 206.6" stroke-dasharray="3 2" transform="rotate(36.36, 400, 400)" opacity="0.70" class="svg-elem-10"></path><path d="M401.28 216.9C402.88 207.72 415.04 205.19 422.03 212.55Q430.48 221.8 438.57 231.17 446.22 240.67 453.32 250.31 459.82 260.1 465.67 270.07 470.82 280.21 475.27 290.54 479.01 301.06 482.08 311.78 484.51 322.71 486.38 333.84 487.76 345.17 488.75 356.7 489.47 368.44 490.04 380.36 490.58 392.46 491.23 404.73 492.12 417.16 493.37 429.74 495.11 442.44 497.44 455.25 500.46 468.15 504.24 481.12 508.82 494.13 514.26 507.17 520.54 520.21 527.65 533.23 535.56 546.19 544.2 559.08 553.48 571.87 563.29 584.54C570.62 593.58 569.66 600.59 561.36 597.09Q551.12 592.18 540.89 586.79 530.65 581.1 520.41 575.28 510.18 569.55 499.94 564.1 489.71 559.1 479.47 554.72 469.23 551.12 459 548.42 448.76 546.7 438.52 546.03 428.29 546.42 418.05 547.87 407.82 550.32 397.58 553.7 387.34 557.88 377.11 562.73 366.87 568.09 356.64 573.76 346.4 579.57 336.16 585.32 325.93 590.81 315.69 595.86 305.46 600.29 295.22 603.96 284.98 606.75 274.75 608.56 264.51 609.32 254.28 609.02 244.04 607.67 233.81 605.3C225.5 602.69 218.29 591.68 220.44 585.35Q223.48 576.34 226.62 567.08 229.94 557.56 233.51 547.78 237.37 537.74 241.58 527.45 246.17 516.9 251.19 506.12 256.65 495.1 262.55 483.86 268.89 472.41 275.64 460.77 282.79 448.96 290.27 436.99 298.03 424.87 306 412.65 314.11 400.32 322.26 387.91 330.39 375.45 338.39 362.95 346.18 350.43 353.67 337.92 360.8 325.44 367.48 313 373.66 300.61 379.3 288.31 384.37 276.1 388.86 264 392.76 252.02 396.1 240.17 400.1 222.68 401.28 216.9" stroke-dasharray="2 4" transform="rotate(40.400000000000006, 400, 400)" opacity="0.51" class="svg-elem-11"></path><path d="M404.99 227.19C406.78 218.58 418.29 216.15 424.59 223.02Q432.14 231.66 439.3 240.41 446.01 249.26 452.2 258.24 457.83 267.36 462.87 276.63 467.3 286.05 471.11 295.63 474.32 305.38 476.96 315.31 479.07 325.42 480.71 335.71 481.95 346.18 482.88 356.83 483.58 367.66 484.15 378.67 484.71 389.85 485.35 401.19 486.2 412.69 487.34 424.33 488.88 436.1 490.91 448 493.51 459.99 496.74 472.08 500.67 484.24 505.31 496.45 510.69 508.7 516.81 520.96 523.65 533.22 531.17 545.45 539.31 557.64 548 569.77C554.54 578.44 553.43 584.61 545.71 580.88Q536.21 575.91 526.7 570.65 517.2 565.28 507.7 559.95 498.19 554.81 488.69 550.02 479.18 545.72 469.68 542.04 460.17 539.08 450.67 536.94 441.16 535.68 431.66 535.34 422.15 535.92 412.65 537.4 403.14 539.76 393.64 542.9 384.13 546.75 374.63 551.19 365.12 556.08 355.62 561.28 346.11 566.64 336.61 572 327.1 577.2 317.6 582.08 308.09 586.5 298.59 590.33 289.08 593.46 279.57 595.79 270.07 597.26 260.56 597.82 251.06 597.45 241.55 596.16C233.84 594.48 227.13 584.6 229.15 578.31Q232.05 569.38 235.1 560.22 238.37 550.83 241.89 541.2 245.71 531.36 249.87 521.3 254.4 511.03 259.32 500.55 264.63 489.89 270.34 479.05 276.44 468.04 282.9 456.89 289.7 445.6 296.8 434.19 304.14 422.67 311.66 411.07 319.31 399.4 327 387.69 334.68 375.93 342.26 364.17 349.68 352.4 356.85 340.65 363.72 328.93 370.22 317.26 376.3 305.66 381.92 294.13 387.04 282.69 391.65 271.35 395.74 260.13 399.31 249.02 403.68 232.61 404.99 227.19" stroke-dasharray="5 2" transform="rotate(44.44, 400, 400)" opacity="0.54" class="svg-elem-12"></path><path d="M408.28 237.49C410.29 229.44 421.11 227.12 426.69 233.51Q433.32 241.54 439.56 249.67 445.36 257.89 450.68 266.21 455.49 274.66 459.78 283.23 463.55 291.94 466.79 300.79 469.52 309.79 471.78 318.93 473.6 328.24 475.04 337.7 476.15 347.33 477.01 357.11 477.69 367.06 478.27 377.17 478.83 387.43 479.47 397.84 480.26 408.4 481.3 419.1 482.67 429.93 484.43 440.89 486.66 451.95 489.41 463.12 492.73 474.37 496.66 485.7 501.22 497.09 506.42 508.52 512.25 519.99 518.69 531.47 525.72 542.95 533.28 554.41C539.02 562.63 537.68 568.11 530.55 564.35Q521.76 559.5 512.97 554.55 504.18 549.63 495.38 544.86 486.59 540.36 477.8 536.25 469.01 532.64 460.22 529.61 451.43 527.26 442.64 525.63 433.85 524.78 425.05 524.72 416.26 525.45 407.47 526.95 398.68 529.2 389.89 532.12 381.1 535.64 372.31 539.68 363.52 544.13 354.73 548.86 345.93 553.77 337.14 558.73 328.35 563.59 319.56 568.25 310.77 572.58 301.98 576.47 293.19 579.81 284.4 582.53 275.61 584.55 266.82 585.82 258.02 586.3 249.23 585.99C242.1 585.16 235.95 576.39 237.88 570.18Q240.7 561.37 243.7 552.36 246.93 543.16 250.43 533.76 254.21 524.18 258.32 514.42 262.77 504.49 267.56 494.4 272.71 484.16 278.21 473.78 284.05 463.27 290.2 452.66 296.65 441.94 303.34 431.14 310.25 420.26 317.32 409.33 324.5 398.36 331.73 387.35 338.95 376.34 346.1 365.32 353.12 354.32 359.94 343.34 366.53 332.4 372.81 321.52 378.74 310.69 384.29 299.94 389.42 289.28 394.11 278.7 398.33 268.23 402.1 257.87 406.84 242.55 408.28 237.49" stroke-dasharray="11 3" transform="rotate(48.48, 400, 400)" opacity="0.42" class="svg-elem-13"></path><path d="M411.06 247.77C413.29 240.28 423.4 238.08 428.25 244Q433.97 251.43 439.31 258.93 444.24 266.52 448.75 274.21 456.19 289.94 462.3 306.02 466.35 322.72 469.35 339.83 470.35 348.62 471.15 357.56 471.8 366.64 472.38 375.86 472.95 385.22 473.57 394.71 474.33 404.34 475.27 414.1 476.48 423.99 478 433.99 479.9 444.11 482.22 454.33 485.01 464.65 488.3 475.05 492.12 485.53 496.47 496.08 501.37 506.68 506.81 517.32 512.77 527.99 519.23 538.68C524.17 546.38 522.55 551.27 515.98 547.64Q499.79 538.6 483.61 530.06 467.42 522.8 451.23 517.44 435.04 514.47 418.85 514.15 402.66 516.5 386.47 521.32 370.28 528.19 354.09 536.48 337.91 545.48 321.72 554.37 305.53 562.38 289.34 568.8 273.15 573.05 256.96 574.75C250.39 574.68 244.82 567 246.71 560.91Q249.49 552.29 252.47 543.51 255.68 534.57 259.14 525.47 262.89 516.22 266.92 506.84 271.27 497.32 275.92 487.69 280.89 477.94 286.16 468.08 291.71 458.14 297.54 448.11 303.61 438.02 309.9 427.87 316.37 417.68 322.98 407.45 329.68 397.19 336.43 386.93 343.18 376.67 349.89 366.42 356.5 356.19 362.95 346 369.22 335.84 375.24 325.74 380.99 315.71 386.41 305.74 391.49 295.85 396.2 286.04 400.52 276.32 404.44 266.7 409.51 252.48 411.06 247.77" stroke-dasharray="10 1" transform="rotate(52.52, 400, 400)" opacity="0.95" class="svg-elem-14"></path><path d="M413.29 258.05C415.71 251.13 425.07 249.06 429.19 254.5Q438.52 268.23 446.4 282.24 452.77 296.59 457.67 311.32 461.23 326.48 463.67 342.09 465.31 358.18 466.51 374.76 467.68 391.82 469.25 409.37 471.63 427.37 475.18 445.8 480.23 464.62 486.98 483.77 495.54 503.19 505.92 522.82C510.08 529.92 508.17 534.33 502.15 530.98Q487.32 522.92 472.49 515.65 457.65 509.7 442.82 505.53 427.99 503.46 413.15 503.64 398.32 506.06 383.48 510.53 368.65 516.72 353.82 524.16 338.98 532.29 324.15 540.49 309.31 548.14 294.48 554.67 279.64 559.58 264.81 562.5C258.8 563.06 253.83 556.41 255.7 550.49Q261.43 533.68 268.05 516.36 275.69 498.61 284.4 480.46 294.17 462 304.91 443.29 316.47 424.41 328.63 405.44 341.12 386.43 353.64 367.47 365.88 348.63 377.52 329.96 388.29 311.52 397.94 293.37 406.31 275.53 413.29 258.05 413.29 258.05 413.29 258.05" stroke-dasharray="11 4" transform="rotate(56.56, 400, 400)" opacity="0.41" class="svg-elem-15"></path><path d="M414.89 268.32C417.46 261.98 426.07 260.04 429.5 265Q437.2 277.53 443.66 290.29 448.88 303.33 452.9 316.7 455.88 330.41 457.98 344.5 459.47 358.99 460.63 373.88 461.77 389.2 463.22 404.93 465.28 421.07 468.26 437.6 472.4 454.5 477.9 471.73 484.87 489.25 493.36 507.03C496.79 513.48 494.62 517.52 489.14 514.56Q475.62 507.65 462.11 501.66 448.6 496.98 435.08 493.89 421.57 492.61 408.05 493.2 394.54 495.63 381.03 499.74 367.51 505.29 354 511.9 340.48 519.16 326.97 526.62 313.45 533.79 299.94 540.22 286.42 545.51 272.91 549.31C267.43 550.36 263.08 544.65 264.96 538.97Q270.66 522.92 277.21 506.51 284.65 489.78 293.01 472.78 302.26 455.59 312.32 438.24 323.05 420.8 334.28 403.32 345.79 385.87 357.36 368.49 368.73 351.24 379.66 334.16 389.92 317.3 399.31 300.68 407.67 284.35 414.89 268.32 414.89 268.32 414.89 268.32" stroke-dasharray="9 7" transform="rotate(60.599999999999994, 400, 400)" opacity="0.26" class="svg-elem-16"></path><path d="M415.84 278.59C418.5 272.81 426.35 271.01 429.13 275.51Q435.35 286.84 440.55 298.37 444.75 310.13 448.02 322.14 450.49 334.44 452.3 347.05 453.65 359.98 454.76 373.25 455.86 386.87 457.18 400.83 458.98 415.15 461.46 429.8 464.82 444.79 469.23 460.09 474.8 475.68 481.6 491.53C484.34 497.3 481.96 501.04 477 498.53Q464.77 492.86 452.55 488.14 440.32 484.63 428.09 482.51 415.86 481.89 403.63 482.8 391.4 485.19 379.17 488.95 366.94 493.87 354.71 499.69 342.48 506.11 330.25 512.78 318.02 519.37 305.79 525.52 293.56 530.9 281.34 535.25C276.37 536.66 272.65 531.79 274.52 526.43Q280.19 511.33 286.6 495.99 293.79 480.44 301.74 464.73 310.43 448.89 319.76 432.99 329.64 417.05 339.92 401.13 350.45 385.26 361.04 369.49 371.51 353.84 381.66 338.36 391.32 323.07 400.33 307.99 412.19 285.88 415.84 278.59" stroke-dasharray="8 1" transform="rotate(64.64, 400, 400)" opacity="0.90" class="svg-elem-17"></path><path d="M416.14 288.86C418.82 283.66 425.89 282 428.09 286.04Q432.99 296.18 437.08 306.49 440.41 316.98 443.04 327.68 445.07 338.6 446.62 349.76 447.84 361.18 448.89 372.87 449.93 384.84 451.14 397.1 452.69 409.64 454.74 422.47 457.44 435.59 460.92 448.98 465.28 462.63 470.59 476.53C472.74 481.59 470.22 485.08 465.77 483.07Q454.79 478.65 443.82 475.14 432.85 472.68 421.88 471.39 410.9 471.32 399.93 472.46 388.96 474.78 377.99 478.17 367.01 482.48 356.04 487.54 345.07 493.13 334.09 499.02 323.12 504.94 312.15 510.64 301.17 515.89 290.2 520.47C285.75 522.08 282.62 517.96 284.47 512.98Q290.06 499.02 296.28 484.91 303.14 470.68 310.62 456.36 318.67 441.99 327.25 427.61 336.24 413.23 345.57 398.9 355.09 384.64 364.68 370.48 374.21 356.45 383.52 342.56 392.5 328.84 400.99 315.31 412.52 295.42 416.14 288.86" stroke-dasharray="6 3" transform="rotate(68.68, 400, 400)" opacity="0.08" class="svg-elem-18"></path><path d="M415.77 299.12C418.43 294.48 424.68 292.98 426.37 296.56Q430.13 305.54 433.29 314.64 435.88 323.88 437.96 333.28 439.63 342.86 440.95 352.62 442.05 362.58 443.02 372.75 444 383.13 445.09 393.74 446.42 404.58 448.1 415.65 450.25 426.95 452.95 438.47 456.29 450.23 460.33 462.2C461.98 466.57 459.39 469.8 455.44 468.29Q445.7 465.07 435.96 462.65 426.21 461.11 416.47 460.51 406.73 460.86 396.99 462.16 387.25 464.35 377.5 467.37 367.76 471.11 358.02 475.45 348.28 480.24 338.53 485.32 328.79 490.52 319.05 495.67 309.3 500.58 299.56 505.09C295.61 506.77 293.04 503.33 294.87 498.79Q300.3 486.12 306.24 473.38 312.69 460.59 319.62 447.76 327 434.94 334.77 422.13 342.86 409.36 351.21 396.64 359.72 384.01 368.3 371.47 376.85 359.05 385.27 346.75 393.46 334.6 401.34 322.61 412.29 304.95 415.77 299.12" stroke-dasharray="3 7" transform="rotate(72.72, 400, 400)" opacity="0.52" class="svg-elem-19"></path><path d="M414.79 309.38C417.32 305.32 422.77 303.98 424.03 307.1Q429.01 322.88 432.82 338.97 435.22 355.71 437.16 372.89 438.06 381.75 439.03 390.78 440.17 399.99 441.54 409.37 443.23 418.93 445.29 428.67 447.79 438.59 450.78 448.68C451.99 452.36 449.44 455.36 445.97 454.32Q428.91 451.06 411.86 449.88 394.8 452.24 377.74 456.59 369.21 459.78 360.68 463.43 352.15 467.46 343.62 471.75 335.09 476.19 326.56 480.68 318.03 485.08 309.5 489.3C306.04 490.94 303.99 488.06 305.75 484.02Q310.92 472.79 316.49 461.54 322.45 450.28 328.76 439.03 335.4 427.8 342.32 416.61 349.49 405.47 356.85 394.39 364.33 383.39 371.88 372.48 379.42 361.67 386.9 350.96 394.24 340.38 401.37 329.91 411.52 314.48 414.79 309.38" stroke-dasharray="8 10" transform="rotate(76.76, 400, 400)" opacity="0.47" class="svg-elem-20"></path><path d="M413.23 319.63C415.55 316.15 420.21 314.98 421.11 317.64Q424.87 331.03 427.62 344.74 429.65 358.81 431.31 373.29 432.97 388.23 435.03 403.66 437.88 419.61 441.85 436.08C442.71 439.11 440.29 441.84 437.32 441.21Q422.66 439.31 408 439.48 393.35 441.69 378.69 445.79 364.03 451.47 349.37 458.29 334.72 465.74 320.06 473.26C317.09 474.74 315.5 472.36 317.16 468.87Q327.05 449.52 338.03 430.24 349.91 411.11 362.48 392.18 375.42 373.52 388.43 355.18 401.14 337.21 413.23 319.63 413.23 319.63 413.23 319.63" stroke-dasharray="5 10" transform="rotate(80.80000000000001, 400, 400)" opacity="0.83" class="svg-elem-21"></path><path d="M411.15 329.87C413.19 326.97 417.06 325.97 417.68 328.18Q420.33 339.28 422.39 350.59 424.03 362.14 425.45 373.96 426.89 386.08 428.56 398.53 430.68 411.32 433.47 424.48C434.05 426.88 431.86 429.31 429.38 429.02Q417.11 428.44 404.85 429.29 392.59 431.51 380.32 435 368.06 439.56 355.79 444.97 343.53 450.93 331.26 457.13C328.78 458.39 327.59 456.45 329.09 453.55Q337.9 437.46 347.42 421.49 357.54 405.66 368.11 390.02 378.95 374.6 389.87 359.42 400.67 344.5 411.15 329.87 411.15 329.87 411.15 329.87" stroke-dasharray="8 10" transform="rotate(84.84, 400, 400)" opacity="0.64" class="svg-elem-22"></path><path d="M408.63 340.12C410.35 337.79 413.4 336.99 413.82 338.74Q415.63 347.57 417.13 356.52 418.42 365.63 419.6 374.89 420.79 384.34 422.1 393.98 423.65 403.83 425.54 413.9C425.93 415.74 424.04 417.8 422.05 417.76Q412.18 418.09 402.32 419.31 392.45 421.37 382.58 424.21 372.71 427.74 362.84 431.82 352.98 436.33 343.11 441.11C341.11 442.1 340.26 440.56 341.56 438.25Q349.05 425.5 356.95 412.85 365.21 400.34 373.74 387.96 382.44 375.74 391.23 363.69 404.31 345.96 408.63 340.12" stroke-dasharray="1 3" transform="rotate(88.88, 400, 400)" opacity="0.78" class="svg-elem-23"></path><path d="M405.78 350.35C407.1 348.62 409.37 348 409.64 349.3Q411.87 362.53 413.75 376.07 415.65 389.99 417.96 404.33C418.2 405.65 416.72 407.28 415.21 407.39Q400.3 409.5 385.4 413.42 370.5 418.84 355.59 425.35C354.07 426.05 353.51 424.89 354.56 423.18Q366.6 404.42 379.36 386 392.54 367.97 405.78 350.35 405.78 350.35 405.78 350.35" stroke-dasharray="2 1" transform="rotate(92.92, 400, 400)" opacity="0.12" class="svg-elem-24"></path><path d="M402.68 360.6C403.58 359.43 405.08 359.01 405.23 359.88Q406.62 368.63 407.9 377.5 409.2 386.53 410.62 395.72C410.76 396.56 409.73 397.72 408.72 397.88Q398.7 399.88 388.68 402.63 378.66 406.05 368.64 410.01C367.63 410.43 367.3 409.63 368.03 408.52Q376.37 396.26 384.98 384.19 398.23 366.44 402.68 360.6" stroke-dasharray="5 7" transform="rotate(96.96, 400, 400)" opacity="0.22" class="svg-elem-25"></path></g></svg>