<svg viewBox="0 0 800 800" width="800" height="800"><g fill="none" stroke-width="3" stroke="hsl(158, 100%, 67%)" stroke-linecap="round"><line x1="710" y1="400" x2="90" y2="400" transform="rotate(0, 400, 400)" opacity="0.85" class="intro-1"></line><line x1="641" y1="400" x2="159" y2="400" transform="rotate(4, 400, 400)" opacity="0.69" class="intro-2"></line><line x1="710.5" y1="400" x2="89.5" y2="400" transform="rotate(8, 400, 400)" opacity="0.91" class="intro-3"></line><line x1="328.5" y1="400" x2="471.5" y2="400" transform="rotate(12, 400, 400)" opacity="0.33" class="intro-4"></line><line x1="524.5" y1="400" x2="275.5" y2="400" transform="rotate(16, 400, 400)" opacity="0.65" class="intro-5"></line><line x1="99" y1="400" x2="701" y2="400" transform="rotate(20, 400, 400)" opacity="0.99" class="intro-6"></line><line x1="108.5" y1="400" x2="691.5" y2="400" transform="rotate(24, 400, 400)" opacity="0.94" class="intro-7"></line><line x1="289" y1="400" x2="511" y2="400" transform="rotate(28, 400, 400)" opacity="0.31" class="intro-8"></line><line x1="500" y1="400" x2="300" y2="400" transform="rotate(32, 400, 400)" opacity="0.10" class="intro-9"></line><line x1="550.5" y1="400" x2="249.5" y2="400" transform="rotate(36, 400, 400)" opacity="0.93" class="intro-10"></line><line x1="688.5" y1="400" x2="111.5" y2="400" transform="rotate(40, 400, 400)" opacity="0.55" class="intro-11"></line><line x1="693" y1="400" x2="107" y2="400" transform="rotate(44, 400, 400)" opacity="0.78" class="intro-12"></line><line x1="420" y1="400" x2="380" y2="400" transform="rotate(48, 400, 400)" opacity="0.32" class="intro-13"></line><line x1="294.5" y1="400" x2="505.5" y2="400" transform="rotate(52, 400, 400)" opacity="0.58" class="intro-14"></line><line x1="210.5" y1="400" x2="589.5" y2="400" transform="rotate(56, 400, 400)" opacity="0.54" class="intro-15"></line><line x1="599.5" y1="400" x2="200.5" y2="400" transform="rotate(60, 400, 400)" opacity="0.81" class="intro-16"></line><line x1="32" y1="400" x2="768" y2="400" transform="rotate(64, 400, 400)" opacity="0.28" class="intro-17"></line><line x1="659.5" y1="400" x2="140.5" y2="400" transform="rotate(68, 400, 400)" opacity="0.92" class="intro-18"></line><line x1="549.5" y1="400" x2="250.5" y2="400" transform="rotate(72, 400, 400)" opacity="0.96" class="intro-19"></line><line x1="247" y1="400" x2="553" y2="400" transform="rotate(76, 400, 400)" opacity="0.51" class="intro-20"></line><line x1="31.5" y1="400" x2="768.5" y2="400" transform="rotate(80, 400, 400)" opacity="0.15" class="intro-21"></line><line x1="134" y1="400" x2="666" y2="400" transform="rotate(84, 400, 400)" opacity="0.09" class="intro-22"></line><line x1="172.5" y1="400" x2="627.5" y2="400" transform="rotate(88, 400, 400)" opacity="0.24" class="intro-23"></line><line x1="314.5" y1="400" x2="485.5" y2="400" transform="rotate(92, 400, 400)" opacity="0.74" class="intro-24"></line><line x1="436" y1="400" x2="364" y2="400" transform="rotate(96, 400, 400)" opacity="0.22" class="intro-25"></line><line x1="75.5" y1="400" x2="724.5" y2="400" transform="rotate(100, 400, 400)" opacity="0.66" class="intro-26"></line><line x1="266" y1="400" x2="534" y2="400" transform="rotate(104, 400, 400)" opacity="0.12" class="intro-27"></line><line x1="97" y1="400" x2="703" y2="400" transform="rotate(108, 400, 400)" opacity="0.47" class="intro-28"></line><line x1="40.5" y1="400" x2="759.5" y2="400" transform="rotate(112, 400, 400)" opacity="0.45" class="intro-29"></line><line x1="582" y1="400" x2="218" y2="400" transform="rotate(116, 400, 400)" opacity="0.76" class="intro-30"></line><line x1="437.5" y1="400" x2="362.5" y2="400" transform="rotate(120, 400, 400)" opacity="0.72" class="intro-31"></line><line x1="81.5" y1="400" x2="718.5" y2="400" transform="rotate(124, 400, 400)" opacity="0.57" class="intro-32"></line><line x1="741" y1="400" x2="59" y2="400" transform="rotate(128, 400, 400)" opacity="0.98" class="intro-33"></line><line x1="445" y1="400" x2="355" y2="400" transform="rotate(132, 400, 400)" opacity="0.39" class="intro-34"></line><line x1="511" y1="400" x2="289" y2="400" transform="rotate(136, 400, 400)" opacity="0.31" class="intro-35"></line><line x1="114" y1="400" x2="686" y2="400" transform="rotate(140, 400, 400)" opacity="0.83" class="intro-36"></line><line x1="698.5" y1="400" x2="101.5" y2="400" transform="rotate(144, 400, 400)" opacity="0.73" class="intro-37"></line><line x1="547" y1="400" x2="253" y2="400" transform="rotate(148, 400, 400)" opacity="0.07" class="intro-38"></line><line x1="428.5" y1="400" x2="371.5" y2="400" transform="rotate(152, 400, 400)" opacity="0.71" class="intro-39"></line><line x1="179" y1="400" x2="621" y2="400" transform="rotate(156, 400, 400)" opacity="0.74" class="intro-40"></line><line x1="446" y1="400" x2="354" y2="400" transform="rotate(160, 400, 400)" opacity="0.71" class="intro-41"></line><line x1="187.5" y1="400" x2="612.5" y2="400" transform="rotate(164, 400, 400)" opacity="0.32" class="intro-42"></line><line x1="592" y1="400" x2="208" y2="400" transform="rotate(168, 400, 400)" opacity="0.42" class="intro-43"></line><line x1="393.5" y1="400" x2="406.5" y2="400" transform="rotate(172, 400, 400)" opacity="0.64" class="intro-44"></line><line x1="701.5" y1="400" x2="98.5" y2="400" transform="rotate(176, 400, 400)" opacity="0.65" class="intro-45"></line><line x1="266" y1="400" x2="534" y2="400" transform="rotate(180, 400, 400)" opacity="0.74" class="intro-46"></line><line x1="304.5" y1="400" x2="495.5" y2="400" transform="rotate(184, 400, 400)" opacity="0.76" class="intro-47"></line><line x1="434.5" y1="400" x2="365.5" y2="400" transform="rotate(188, 400, 400)" opacity="0.73" class="intro-48"></line><line x1="445" y1="400" x2="355" y2="400" transform="rotate(192, 400, 400)" opacity="0.57" class="intro-49"></line><line x1="391.5" y1="400" x2="408.5" y2="400" transform="rotate(196, 400, 400)" opacity="0.83" class="intro-50"></line><line x1="30" y1="400" x2="770" y2="400" transform="rotate(200, 400, 400)" opacity="0.45" class="intro-51"></line><line x1="542" y1="400" x2="258" y2="400" transform="rotate(204, 400, 400)" opacity="0.38" class="intro-52"></line><line x1="220" y1="400" x2="580" y2="400" transform="rotate(208, 400, 400)" opacity="0.24" class="intro-53"></line><line x1="54" y1="400" x2="746" y2="400" transform="rotate(212, 400, 400)" opacity="0.10" class="intro-54"></line><line x1="730" y1="400" x2="70" y2="400" transform="rotate(216, 400, 400)" opacity="0.23" class="intro-55"></line><line x1="652" y1="400" x2="148" y2="400" transform="rotate(220, 400, 400)" opacity="0.77" class="intro-56"></line><line x1="590.5" y1="400" x2="209.5" y2="400" transform="rotate(224, 400, 400)" opacity="0.75" class="intro-57"></line><line x1="436" y1="400" x2="364" y2="400" transform="rotate(228, 400, 400)" opacity="0.86" class="intro-58"></line><line x1="139.5" y1="400" x2="660.5" y2="400" transform="rotate(232, 400, 400)" opacity="0.24" class="intro-59"></line><line x1="141.5" y1="400" x2="658.5" y2="400" transform="rotate(236, 400, 400)" opacity="0.62" class="intro-60"></line><line x1="141.5" y1="400" x2="658.5" y2="400" transform="rotate(240, 400, 400)" opacity="0.61" class="intro-61"></line><line x1="346" y1="400" x2="454" y2="400" transform="rotate(244, 400, 400)" opacity="0.99" class="intro-62"></line><line x1="81" y1="400" x2="719" y2="400" transform="rotate(248, 400, 400)" opacity="0.90" class="intro-63"></line><line x1="582.5" y1="400" x2="217.5" y2="400" transform="rotate(252, 400, 400)" opacity="0.87" class="intro-64"></line><line x1="327" y1="400" x2="473" y2="400" transform="rotate(256, 400, 400)" opacity="0.79" class="intro-65"></line><line x1="703.5" y1="400" x2="96.5" y2="400" transform="rotate(260, 400, 400)" opacity="0.23" class="intro-66"></line><line x1="202.5" y1="400" x2="597.5" y2="400" transform="rotate(264, 400, 400)" opacity="0.33" class="intro-67"></line><line x1="142" y1="400" x2="658" y2="400" transform="rotate(268, 400, 400)" opacity="0.41" class="intro-68"></line><line x1="576.5" y1="400" x2="223.5" y2="400" transform="rotate(272, 400, 400)" opacity="0.32" class="intro-69"></line><line x1="589" y1="400" x2="211" y2="400" transform="rotate(276, 400, 400)" opacity="0.29" class="intro-70"></line><line x1="649.5" y1="400" x2="150.5" y2="400" transform="rotate(280, 400, 400)" opacity="0.93" class="intro-71"></line><line x1="607" y1="400" x2="193" y2="400" transform="rotate(284, 400, 400)" opacity="0.40" class="intro-72"></line><line x1="212.5" y1="400" x2="587.5" y2="400" transform="rotate(288, 400, 400)" opacity="0.83" class="intro-73"></line><line x1="518" y1="400" x2="282" y2="400" transform="rotate(292, 400, 400)" opacity="0.59" class="intro-74"></line><line x1="457.5" y1="400" x2="342.5" y2="400" transform="rotate(296, 400, 400)" opacity="0.46" class="intro-75"></line><line x1="77.5" y1="400" x2="722.5" y2="400" transform="rotate(300, 400, 400)" opacity="0.83" class="intro-76"></line><line x1="140" y1="400" x2="660" y2="400" transform="rotate(304, 400, 400)" opacity="0.77" class="intro-77"></line><line x1="177" y1="400" x2="623" y2="400" transform="rotate(308, 400, 400)" opacity="0.90" class="intro-78"></line><line x1="525" y1="400" x2="275" y2="400" transform="rotate(312, 400, 400)" opacity="0.22" class="intro-79"></line><line x1="564" y1="400" x2="236" y2="400" transform="rotate(316, 400, 400)" opacity="0.24" class="intro-80"></line><line x1="321" y1="400" x2="479" y2="400" transform="rotate(320, 400, 400)" opacity="0.37" class="intro-81"></line><line x1="539" y1="400" x2="261" y2="400" transform="rotate(324, 400, 400)" opacity="0.61" class="intro-82"></line><line x1="271.5" y1="400" x2="528.5" y2="400" transform="rotate(328, 400, 400)" opacity="0.48" class="intro-83"></line><line x1="64.5" y1="400" x2="735.5" y2="400" transform="rotate(332, 400, 400)" opacity="0.92" class="intro-84"></line><line x1="440" y1="400" x2="360" y2="400" transform="rotate(336, 400, 400)" opacity="0.47" class="intro-85"></line><line x1="293" y1="400" x2="507" y2="400" transform="rotate(340, 400, 400)" opacity="0.38" class="intro-86"></line><line x1="571" y1="400" x2="229" y2="400" transform="rotate(344, 400, 400)" opacity="0.45" class="intro-87"></line><line x1="29" y1="400" x2="771" y2="400" transform="rotate(348, 400, 400)" opacity="0.84" class="intro-88"></line></g></svg>